<svg width="32" height="33" viewBox="0 0 32 33" fill="none" xmlns="http://www.w3.org/2000/svg">
<path d="M15.9963 4.5C9.46245 4.5 4.00612 9.96746 4.00612 16.4971C4.00863 18.8607 4.70708 21.1713 6.01429 23.1403L4.00024 28.5L10.7379 27.2811C12.3765 28.0772 14.1747 28.49 15.9963 28.4882C22.5361 28.4922 28.0002 23.0325 28.0002 16.499C28.0002 9.97334 22.5341 4.49608 15.9963 4.5Z" stroke="#FAFAFA" stroke-width="2.12566" stroke-linecap="round" stroke-linejoin="round"/>
<path d="M16.6567 21.785C18.2809 22.8255 19.9717 22.0672 21.1511 21.1873C21.9642 20.5798 21.9387 19.4099 21.2432 18.6691L19.8717 17.2092C19.3526 17.7285 18.3377 17.9871 17.6344 17.7716C16.1199 17.3111 15.4851 16.5233 14.9699 15.7198C14.3802 14.7988 15.0482 13.4231 15.5674 12.9038L14.0393 11.5085C13.3947 10.9206 12.417 10.8226 11.8548 11.4889C10.7419 12.8077 10.0523 14.8125 10.8693 16.0882C12.3387 18.3791 14.3664 20.3152 16.6567 21.785Z" stroke="#FAFAFA" stroke-width="2.12566" stroke-linecap="round" stroke-linejoin="round"/>
</svg>
