<svg width="36" height="37" viewBox="0 0 36 37" fill="none" xmlns="http://www.w3.org/2000/svg">
<g clip-path="url(#clip0_16_105)">
<path fill-rule="evenodd" clip-rule="evenodd" d="M18 0.379883C8.0586 0.379883 0 8.43848 0 18.3799C0 21.7819 0.945 24.9679 2.5884 27.6823L0.9828 33.1399C0.890612 33.4532 0.884546 33.7856 0.96524 34.1021C1.04593 34.4186 1.21041 34.7075 1.44137 34.9385C1.67233 35.1695 1.96125 35.3339 2.27775 35.4146C2.59425 35.4953 2.92665 35.4893 3.24 35.3971L8.6976 33.7915C11.5033 35.4888 14.7208 36.384 18 36.3799C27.9414 36.3799 36 28.3213 36 18.3799C36 8.43848 27.9414 0.379883 18 0.379883ZM13.9284 22.4533C17.5698 26.0929 21.0456 26.5735 22.2732 26.6185C24.1398 26.6869 25.9578 25.2613 26.6652 23.6071C26.7537 23.4011 26.7858 23.1753 26.7579 22.9529C26.7301 22.7304 26.6434 22.5194 26.5068 22.3417C25.5204 21.0817 24.1866 20.1763 22.8834 19.2763C22.6115 19.0877 22.277 19.012 21.9503 19.065C21.6236 19.118 21.3303 19.2957 21.132 19.5607L20.052 21.2077C19.9949 21.2959 19.9065 21.3591 19.8045 21.3845C19.7026 21.4099 19.5948 21.3956 19.503 21.3445C18.7704 20.9251 17.703 20.2123 16.9362 19.4455C16.1694 18.6787 15.4998 17.6599 15.1236 16.9741C15.0781 16.8867 15.0652 16.786 15.0873 16.6899C15.1094 16.5939 15.1651 16.509 15.2442 16.4503L16.9074 15.2155C17.1454 15.0095 17.2991 14.723 17.339 14.4108C17.3788 14.0986 17.3021 13.7826 17.1234 13.5235C16.317 12.3427 15.3774 10.8415 14.0148 9.84608C13.8386 9.71946 13.6326 9.64051 13.4169 9.61685C13.2012 9.5932 12.9831 9.62566 12.7836 9.71108C11.1276 10.4203 9.6948 12.2383 9.7632 14.1085C9.8082 15.3361 10.2888 18.8119 13.9284 22.4533Z" fill="#E5E7EB"/>
</g>
<defs>
<clipPath id="clip0_16_105">
<rect width="36" height="36" fill="white" transform="translate(-0.00317383 0.669922)"/>
</clipPath>
</defs>
</svg>
