<svg width="161" height="49" viewBox="0 0 161 49" fill="none" xmlns="http://www.w3.org/2000/svg">
<g clip-path="url(#clip0_6_175)">
<g clip-path="url(#clip1_6_175)">
<path d="M0.2323 12.6366L26.1162 20.186L52.0001 12.6366" stroke="#1E3A8A" stroke-width="1.0785"/>
<path d="M52 12.6366L26.1161 5.08708L0.232236 12.6366" stroke="#1E3A8A" stroke-width="1.0785"/>
<path d="M0 20.7253L25.8839 28.2747L51.7678 20.7253" stroke="#ADD8E6" stroke-width="1.0785"/>
<path d="M0.2323 28.814L26.1162 36.3634L52.0001 28.814" stroke="#ADD8E6" stroke-width="1.0785"/>
<path d="M0.2323 36.3634L26.1162 43.9129L52.0001 36.3634" stroke="#ADD8E6" stroke-width="1.0785"/>
<g clip-path="url(#clip2_6_175)">
<path d="M66.7172 19.5H65.3251L70.6163 4.95455H72.0368L77.328 19.5H75.9359L71.3763 6.6804H71.2768L66.7172 19.5ZM67.7186 13.9247H74.9345V15.1179H67.7186V13.9247ZM79.8209 19.5V4.95455H81.149V18.3068H88.0808V19.5H79.8209ZM91.0709 19.5V4.95455H92.399V18.3068H99.3308V19.5H91.0709ZM107.946 19.5V4.95455H116.362V6.14773H109.274V11.6236H115.702V12.8168H109.274V19.5H107.946ZM120.993 4.95455V19.5H119.665V4.95455H120.993ZM125.087 4.95455L129.114 11.2685H129.207L133.233 4.95455H134.803L130.123 12.2273L134.803 19.5H133.233L129.207 13.2571H129.114L125.087 19.5H123.518L128.269 12.2273L123.518 4.95455H125.087Z" fill="white"/>
<path d="M65.8649 43.5V28.9545H71.8734C72.9624 28.9545 73.9023 29.151 74.693 29.544C75.4885 29.9323 76.1016 30.491 76.5325 31.2202C76.9634 31.9446 77.1788 32.804 77.1788 33.7983C77.1788 34.8068 76.9586 35.6638 76.5183 36.3693C76.078 37.0701 75.453 37.6051 74.6433 37.9744C73.8336 38.339 72.8748 38.5213 71.7669 38.5213H67.9672V35.7514H71.1135C71.6438 35.7514 72.0865 35.6828 72.4416 35.5455C72.8014 35.4034 73.0737 35.1903 73.2584 34.9062C73.443 34.6174 73.5353 34.2481 73.5353 33.7983C73.5353 33.3485 73.443 32.9768 73.2584 32.6832C73.0737 32.3849 72.8014 32.1624 72.4416 32.0156C72.0817 31.8641 71.639 31.7884 71.1135 31.7884H69.3805V43.5H65.8649ZM74.0538 36.8523L77.676 43.5H73.8407L70.2896 36.8523H74.0538ZM83.9917 43.706C82.8506 43.706 81.8657 43.4811 81.0371 43.0312C80.2133 42.5767 79.5788 41.9304 79.1337 41.0923C78.6934 40.2495 78.4732 39.2481 78.4732 38.0881C78.4732 36.9612 78.6957 35.9763 79.1408 35.1335C79.5859 34.286 80.2133 33.6278 81.0229 33.1591C81.8326 32.6856 82.7866 32.4489 83.8851 32.4489C84.6616 32.4489 85.3719 32.5696 86.0158 32.8111C86.6598 33.0526 87.2161 33.41 87.6848 33.8835C88.1536 34.357 88.5182 34.9418 88.7786 35.6378C89.039 36.3291 89.1692 37.1222 89.1692 38.017V38.8835H79.6877V36.8665H85.9377C85.933 36.4972 85.8454 36.1681 85.6749 35.8793C85.5045 35.5904 85.2701 35.3655 84.9718 35.2045C84.6782 35.0388 84.3397 34.956 83.9562 34.956C83.5679 34.956 83.2199 35.0436 82.9121 35.2188C82.6044 35.3892 82.3605 35.6236 82.1806 35.9219C82.0007 36.2154 81.906 36.5492 81.8965 36.9233V38.9759C81.8965 39.4209 81.9841 39.8116 82.1593 40.1477C82.3345 40.4792 82.583 40.7372 82.905 40.9219C83.227 41.1065 83.6105 41.1989 84.0556 41.1989C84.3634 41.1989 84.6427 41.1562 84.8937 41.071C85.1446 40.9858 85.36 40.8603 85.54 40.6946C85.7199 40.5289 85.8548 40.3253 85.9448 40.0838L89.1337 40.1761C89.0011 40.8911 88.7099 41.5137 88.2601 42.044C87.8151 42.5696 87.2303 42.9792 86.5059 43.2727C85.7814 43.5616 84.9434 43.706 83.9917 43.706ZM97.1433 32.5909V35.1477H90.1263V32.5909H97.1433ZM91.5893 43.5V32.0369C91.5893 31.1941 91.7479 30.4957 92.0652 29.9418C92.3824 29.383 92.8228 28.9664 93.3862 28.6918C93.9496 28.4124 94.6007 28.2727 95.3393 28.2727C95.8223 28.2727 96.2768 28.3106 96.703 28.3864C97.1338 28.4574 97.4534 28.5213 97.6618 28.5781L97.1078 31.1207C96.9799 31.0781 96.8237 31.0426 96.639 31.0142C96.4591 30.9858 96.2887 30.9716 96.1277 30.9716C95.7205 30.9716 95.4411 31.0616 95.2896 31.2415C95.1381 31.4214 95.0623 31.6676 95.0623 31.9801V43.5H91.5893ZM103.555 43.706C102.409 43.706 101.424 43.4716 100.6 43.0028C99.7812 42.5294 99.1491 41.8712 98.704 41.0284C98.2637 40.1809 98.0435 39.1984 98.0435 38.081C98.0435 36.9588 98.2637 35.9763 98.704 35.1335C99.1491 34.286 99.7812 33.6278 100.6 33.1591C101.424 32.6856 102.409 32.4489 103.555 32.4489C104.701 32.4489 105.683 32.6856 106.502 33.1591C107.326 33.6278 107.958 34.286 108.399 35.1335C108.844 35.9763 109.066 36.9588 109.066 38.081C109.066 39.1984 108.844 40.1809 108.399 41.0284C107.958 41.8712 107.326 42.5294 106.502 43.0028C105.683 43.4716 104.701 43.706 103.555 43.706ZM103.576 41.0852C103.993 41.0852 104.346 40.9574 104.634 40.7017C104.923 40.446 105.143 40.0909 105.295 39.6364C105.451 39.1818 105.529 38.6562 105.529 38.0597C105.529 37.4536 105.451 36.9233 105.295 36.4688C105.143 36.0142 104.923 35.6591 104.634 35.4034C104.346 35.1477 103.993 35.0199 103.576 35.0199C103.145 35.0199 102.781 35.1477 102.482 35.4034C102.189 35.6591 101.964 36.0142 101.808 36.4688C101.656 36.9233 101.58 37.4536 101.58 38.0597C101.58 38.6562 101.656 39.1818 101.808 39.6364C101.964 40.0909 102.189 40.446 102.482 40.7017C102.781 40.9574 103.145 41.0852 103.576 41.0852ZM110.845 43.5V32.5909H114.219V34.5795H114.333C114.531 33.8598 114.856 33.3248 115.306 32.9744C115.755 32.6193 116.279 32.4418 116.875 32.4418C117.036 32.4418 117.202 32.4536 117.372 32.4773C117.543 32.4962 117.701 32.527 117.848 32.5696V35.5881C117.682 35.5312 117.465 35.4863 117.195 35.4531C116.93 35.42 116.693 35.4034 116.485 35.4034C116.073 35.4034 115.701 35.4957 115.37 35.6804C115.043 35.8603 114.785 36.1136 114.595 36.4403C114.411 36.7623 114.318 37.1411 114.318 37.5767V43.5H110.845ZM119.263 43.5V32.5909H122.566V34.5938H122.687C122.914 33.9309 123.297 33.4077 123.837 33.0241C124.377 32.6406 125.021 32.4489 125.769 32.4489C126.527 32.4489 127.175 32.643 127.715 33.0312C128.255 33.4195 128.598 33.9403 128.745 34.5938H128.858C129.062 33.9451 129.46 33.4266 130.052 33.0384C130.644 32.6454 131.342 32.4489 132.147 32.4489C133.179 32.4489 134.017 32.7803 134.661 33.4432C135.305 34.1013 135.627 35.0057 135.627 36.1562V43.5H132.154V36.9517C132.154 36.4072 132.014 35.9929 131.735 35.7088C131.456 35.42 131.093 35.2756 130.648 35.2756C130.17 35.2756 129.794 35.4318 129.519 35.7443C129.249 36.0521 129.114 36.4664 129.114 36.9872V43.5H125.776V36.9162C125.776 36.4096 125.639 36.0095 125.364 35.7159C125.09 35.4223 124.727 35.2756 124.278 35.2756C123.975 35.2756 123.707 35.349 123.475 35.4957C123.243 35.6378 123.061 35.8414 122.928 36.1065C122.8 36.3717 122.736 36.6842 122.736 37.044V43.5H119.263ZM140.854 43.6847C140.158 43.6847 139.54 43.5687 139.001 43.3366C138.466 43.0999 138.042 42.7448 137.729 42.2713C137.421 41.7931 137.268 41.1941 137.268 40.4744C137.268 39.8684 137.374 39.357 137.587 38.9403C137.8 38.5237 138.094 38.1851 138.468 37.9247C138.842 37.6643 139.273 37.4678 139.76 37.3352C140.248 37.1979 140.769 37.1056 141.323 37.0582C141.943 37.0014 142.443 36.9422 142.822 36.8807C143.2 36.8144 143.475 36.7221 143.645 36.6037C143.821 36.4806 143.908 36.3078 143.908 36.0852V36.0497C143.908 35.6851 143.783 35.4034 143.532 35.2045C143.281 35.0057 142.942 34.9062 142.516 34.9062C142.057 34.9062 141.688 35.0057 141.408 35.2045C141.129 35.4034 140.951 35.678 140.876 36.0284L137.672 35.9148C137.767 35.2519 138.011 34.66 138.404 34.1392C138.802 33.6136 139.346 33.2017 140.037 32.9034C140.733 32.6004 141.569 32.4489 142.545 32.4489C143.241 32.4489 143.882 32.5317 144.469 32.6974C145.056 32.8584 145.568 33.0952 146.003 33.4077C146.439 33.7154 146.775 34.0942 147.012 34.544C147.253 34.9938 147.374 35.5076 147.374 36.0852V43.5H144.107V41.9801H144.022C143.828 42.3494 143.579 42.6619 143.276 42.9176C142.978 43.1733 142.625 43.3651 142.218 43.4929C141.815 43.6207 141.361 43.6847 140.854 43.6847ZM141.927 41.4119C142.301 41.4119 142.637 41.3362 142.935 41.1847C143.238 41.0331 143.48 40.8248 143.66 40.5597C143.84 40.2898 143.93 39.9773 143.93 39.6222V38.5852C143.83 38.6373 143.709 38.6847 143.567 38.7273C143.43 38.7699 143.278 38.8101 143.113 38.848C142.947 38.8859 142.777 38.919 142.601 38.9474C142.426 38.9759 142.258 39.0019 142.097 39.0256C141.77 39.0777 141.491 39.1581 141.259 39.267C141.032 39.3759 140.857 39.518 140.733 39.6932C140.615 39.8636 140.556 40.0672 140.556 40.304C140.556 40.6638 140.684 40.9384 140.939 41.1278C141.2 41.3172 141.529 41.4119 141.927 41.4119ZM159.022 35.9219L155.833 36.0071C155.8 35.7798 155.71 35.5786 155.563 35.4034C155.416 35.2235 155.225 35.0838 154.988 34.9844C154.756 34.8802 154.486 34.8281 154.178 34.8281C153.776 34.8281 153.432 34.9086 153.148 35.0696C152.869 35.2306 152.732 35.4484 152.736 35.723C152.732 35.9361 152.817 36.1207 152.992 36.277C153.172 36.4332 153.492 36.5587 153.951 36.6534L156.053 37.0511C157.142 37.2595 157.952 37.6051 158.482 38.0881C159.017 38.571 159.287 39.2102 159.292 40.0057C159.287 40.7538 159.064 41.4048 158.624 41.9588C158.189 42.5128 157.592 42.9437 156.834 43.2514C156.077 43.5545 155.21 43.706 154.235 43.706C152.677 43.706 151.448 43.3864 150.549 42.7472C149.654 42.1032 149.143 41.2415 149.015 40.1619L152.445 40.0767C152.521 40.4744 152.717 40.7775 153.035 40.9858C153.352 41.1941 153.757 41.2983 154.249 41.2983C154.694 41.2983 155.056 41.2154 155.336 41.0497C155.615 40.884 155.757 40.6638 155.762 40.3892C155.757 40.143 155.648 39.9465 155.435 39.7997C155.222 39.6482 154.888 39.5298 154.434 39.4446L152.53 39.0824C151.437 38.8835 150.622 38.5166 150.087 37.9815C149.552 37.4418 149.287 36.7552 149.292 35.9219C149.287 35.1927 149.481 34.5701 149.874 34.054C150.267 33.5331 150.826 33.1354 151.55 32.8608C152.275 32.5862 153.129 32.4489 154.114 32.4489C155.591 32.4489 156.756 32.759 157.608 33.3793C158.461 33.9948 158.932 34.8423 159.022 35.9219Z" fill="white"/>
</g>
</g>
</g>
<defs>
<clipPath id="clip0_6_175">
<rect width="160.764" height="48" fill="white" transform="translate(0 0.5)"/>
</clipPath>
<clipPath id="clip1_6_175">
<rect width="160.764" height="48" fill="white" transform="translate(0 0.5)"/>
</clipPath>
<clipPath id="clip2_6_175">
<rect width="96" height="48" fill="white" transform="translate(64.764 0.5)"/>
</clipPath>
</defs>
</svg>
