<svg width="183" height="49" viewBox="0 0 183 49" fill="none" xmlns="http://www.w3.org/2000/svg">
<g clip-path="url(#clip0_5_61)">
<path d="M0.2323 12.6366L26.1162 20.186L52.0001 12.6366" stroke="#19543A" stroke-width="1.0785"/>
<path d="M52 12.6366L26.1161 5.08708L0.232236 12.6366" stroke="#19543A" stroke-width="1.0785"/>
<path d="M0 20.7253L25.8839 28.2747L51.7678 20.7253" stroke="#40934D" stroke-width="1.0785"/>
<path d="M0.2323 28.814L26.1162 36.3634L52.0001 28.814" stroke="#40934D" stroke-width="1.0785"/>
<path d="M0.2323 36.3635L26.1162 43.9129L52.0001 36.3635" stroke="#40934D" stroke-width="1.0785"/>
<g clip-path="url(#clip1_5_61)">
<mask id="path-6-outside-1_5_61" maskUnits="userSpaceOnUse" x="63.764" y="4.5" width="72" height="16" fill="black">
<rect fill="white" x="63.764" y="4.5" width="72" height="16"/>
<path d="M66.7172 19.5H65.3251L70.6163 4.95455H72.0368L77.328 19.5H75.9359L71.3763 6.6804H71.2768L66.7172 19.5ZM67.7186 13.9247H74.9345V15.1179H67.7186V13.9247ZM79.8209 19.5V4.95455H81.149V18.3068H88.0808V19.5H79.8209ZM91.0709 19.5V4.95455H92.399V18.3068H99.3308V19.5H91.0709ZM107.946 19.5V4.95455H116.362V6.14773H109.274V11.6236H115.702V12.8168H109.274V19.5H107.946ZM120.993 4.95455V19.5H119.665V4.95455H120.993ZM125.087 4.95455L129.114 11.2685H129.207L133.233 4.95455H134.803L130.123 12.2273L134.803 19.5H133.233L129.207 13.2571H129.114L125.087 19.5H123.518L128.269 12.2273L123.518 4.95455H125.087Z"/>
</mask>
<path d="M66.7172 19.5H65.3251L70.6163 4.95455H72.0368L77.328 19.5H75.9359L71.3763 6.6804H71.2768L66.7172 19.5ZM67.7186 13.9247H74.9345V15.1179H67.7186V13.9247ZM79.8209 19.5V4.95455H81.149V18.3068H88.0808V19.5H79.8209ZM91.0709 19.5V4.95455H92.399V18.3068H99.3308V19.5H91.0709ZM107.946 19.5V4.95455H116.362V6.14773H109.274V11.6236H115.702V12.8168H109.274V19.5H107.946ZM120.993 4.95455V19.5H119.665V4.95455H120.993ZM125.087 4.95455L129.114 11.2685H129.207L133.233 4.95455H134.803L130.123 12.2273L134.803 19.5H133.233L129.207 13.2571H129.114L125.087 19.5H123.518L128.269 12.2273L123.518 4.95455H125.087Z" fill="white"/>
<path d="M66.7172 19.5V19.9H66.9994L67.094 19.634L66.7172 19.5ZM65.3251 19.5L64.9492 19.3633L64.754 19.9H65.3251V19.5ZM70.6163 4.95455V4.55455H70.3362L70.2404 4.8178L70.6163 4.95455ZM72.0368 4.95455L72.4127 4.8178L72.3169 4.55455H72.0368V4.95455ZM77.328 19.5V19.9H77.8991L77.7039 19.3633L77.328 19.5ZM75.9359 19.5L75.559 19.634L75.6536 19.9H75.9359V19.5ZM71.3763 6.6804L71.7531 6.54635L71.6585 6.2804H71.3763V6.6804ZM71.2768 6.6804V6.2804H70.9945L70.9 6.54635L71.2768 6.6804ZM67.7186 13.9247V13.5247H67.3186V13.9247H67.7186ZM74.9345 13.9247H75.3345V13.5247H74.9345V13.9247ZM74.9345 15.1179V15.5179H75.3345V15.1179H74.9345ZM67.7186 15.1179H67.3186V15.5179H67.7186V15.1179ZM66.7172 19.5V19.1H65.3251V19.5V19.9H66.7172V19.5ZM65.3251 19.5L65.701 19.6367L70.9922 5.09129L70.6163 4.95455L70.2404 4.8178L64.9492 19.3633L65.3251 19.5ZM70.6163 4.95455V5.35455H72.0368V4.95455V4.55455H70.6163V4.95455ZM72.0368 4.95455L71.6609 5.09129L76.9521 19.6367L77.328 19.5L77.7039 19.3633L72.4127 4.8178L72.0368 4.95455ZM77.328 19.5V19.1H75.9359V19.5V19.9H77.328V19.5ZM75.9359 19.5L76.3128 19.366L71.7531 6.54635L71.3763 6.6804L70.9994 6.81444L75.559 19.634L75.9359 19.5ZM71.3763 6.6804V6.2804H71.2768V6.6804V7.0804H71.3763V6.6804ZM71.2768 6.6804L70.9 6.54635L66.3403 19.366L66.7172 19.5L67.094 19.634L71.6537 6.81444L71.2768 6.6804ZM67.7186 13.9247V14.3247H74.9345V13.9247V13.5247H67.7186V13.9247ZM74.9345 13.9247H74.5345V15.1179H74.9345H75.3345V13.9247H74.9345ZM74.9345 15.1179V14.7179H67.7186V15.1179V15.5179H74.9345V15.1179ZM67.7186 15.1179H68.1186V13.9247H67.7186H67.3186V15.1179H67.7186ZM79.8209 19.5H79.4209V19.9H79.8209V19.5ZM79.8209 4.95455V4.55455H79.4209V4.95455H79.8209ZM81.149 4.95455H81.549V4.55455H81.149V4.95455ZM81.149 18.3068H80.749V18.7068H81.149V18.3068ZM88.0808 18.3068H88.4808V17.9068H88.0808V18.3068ZM88.0808 19.5V19.9H88.4808V19.5H88.0808ZM79.8209 19.5H80.2209V4.95455H79.8209H79.4209V19.5H79.8209ZM79.8209 4.95455V5.35455H81.149V4.95455V4.55455H79.8209V4.95455ZM81.149 4.95455H80.749V18.3068H81.149H81.549V4.95455H81.149ZM81.149 18.3068V18.7068H88.0808V18.3068V17.9068H81.149V18.3068ZM88.0808 18.3068H87.6808V19.5H88.0808H88.4808V18.3068H88.0808ZM88.0808 19.5V19.1H79.8209V19.5V19.9H88.0808V19.5ZM91.0709 19.5H90.6709V19.9H91.0709V19.5ZM91.0709 4.95455V4.55455H90.6709V4.95455H91.0709ZM92.399 4.95455H92.799V4.55455H92.399V4.95455ZM92.399 18.3068H91.999V18.7068H92.399V18.3068ZM99.3308 18.3068H99.7308V17.9068H99.3308V18.3068ZM99.3308 19.5V19.9H99.7308V19.5H99.3308ZM91.0709 19.5H91.4709V4.95455H91.0709H90.6709V19.5H91.0709ZM91.0709 4.95455V5.35455H92.399V4.95455V4.55455H91.0709V4.95455ZM92.399 4.95455H91.999V18.3068H92.399H92.799V4.95455H92.399ZM92.399 18.3068V18.7068H99.3308V18.3068V17.9068H92.399V18.3068ZM99.3308 18.3068H98.9308V19.5H99.3308H99.7308V18.3068H99.3308ZM99.3308 19.5V19.1H91.0709V19.5V19.9H99.3308V19.5ZM107.946 19.5H107.546V19.9H107.946V19.5ZM107.946 4.95455V4.55455H107.546V4.95455H107.946ZM116.362 4.95455H116.762V4.55455H116.362V4.95455ZM116.362 6.14773V6.54773H116.762V6.14773H116.362ZM109.274 6.14773V5.74773H108.874V6.14773H109.274ZM109.274 11.6236H108.874V12.0236H109.274V11.6236ZM115.702 11.6236H116.102V11.2236H115.702V11.6236ZM115.702 12.8168V13.2168H116.102V12.8168H115.702ZM109.274 12.8168V12.4168H108.874V12.8168H109.274ZM109.274 19.5V19.9H109.674V19.5H109.274ZM107.946 19.5H108.346V4.95455H107.946H107.546V19.5H107.946ZM107.946 4.95455V5.35455H116.362V4.95455V4.55455H107.946V4.95455ZM116.362 4.95455H115.962V6.14773H116.362H116.762V4.95455H116.362ZM116.362 6.14773V5.74773H109.274V6.14773V6.54773H116.362V6.14773ZM109.274 6.14773H108.874V11.6236H109.274H109.674V6.14773H109.274ZM109.274 11.6236V12.0236H115.702V11.6236V11.2236H109.274V11.6236ZM115.702 11.6236H115.302V12.8168H115.702H116.102V11.6236H115.702ZM115.702 12.8168V12.4168H109.274V12.8168V13.2168H115.702V12.8168ZM109.274 12.8168H108.874V19.5H109.274H109.674V12.8168H109.274ZM109.274 19.5V19.1H107.946V19.5V19.9H109.274V19.5ZM120.993 4.95455H121.393V4.55455H120.993V4.95455ZM120.993 19.5V19.9H121.393V19.5H120.993ZM119.665 19.5H119.265V19.9H119.665V19.5ZM119.665 4.95455V4.55455H119.265V4.95455H119.665ZM120.993 4.95455H120.593V19.5H120.993H121.393V4.95455H120.993ZM120.993 19.5V19.1H119.665V19.5V19.9H120.993V19.5ZM119.665 19.5H120.065V4.95455H119.665H119.265V19.5H119.665ZM119.665 4.95455V5.35455H120.993V4.95455V4.55455H119.665V4.95455ZM125.087 4.95455L125.424 4.73945L125.307 4.55455H125.087V4.95455ZM129.114 11.2685L128.777 11.4836L128.895 11.6685H129.114V11.2685ZM129.207 11.2685V11.6685H129.426L129.544 11.4836L129.207 11.2685ZM133.233 4.95455V4.55455H133.014L132.896 4.73945L133.233 4.95455ZM134.803 4.95455L135.139 5.17101L135.536 4.55455H134.803V4.95455ZM130.123 12.2273L129.786 12.0108L129.647 12.2273L129.786 12.4437L130.123 12.2273ZM134.803 19.5V19.9H135.536L135.139 19.2835L134.803 19.5ZM133.233 19.5L132.897 19.7168L133.016 19.9H133.233V19.5ZM129.207 13.2571L129.543 13.0403L129.424 12.8571H129.207V13.2571ZM129.114 13.2571V12.8571H128.896L128.778 13.0403L129.114 13.2571ZM125.087 19.5V19.9H125.305L125.423 19.7168L125.087 19.5ZM123.518 19.5L123.183 19.2812L122.778 19.9H123.518V19.5ZM128.269 12.2273L128.604 12.446L128.747 12.2273L128.604 12.0085L128.269 12.2273ZM123.518 4.95455V4.55455H122.778L123.183 5.17332L123.518 4.95455ZM125.087 4.95455L124.75 5.16964L128.777 11.4836L129.114 11.2685L129.451 11.0534L125.424 4.73945L125.087 4.95455ZM129.114 11.2685V11.6685H129.207V11.2685V10.8685H129.114V11.2685ZM129.207 11.2685L129.544 11.4836L133.571 5.16964L133.233 4.95455L132.896 4.73945L128.869 11.0534L129.207 11.2685ZM133.233 4.95455V5.35455H134.803V4.95455V4.55455H133.233V4.95455ZM134.803 4.95455L134.467 4.73808L129.786 12.0108L130.123 12.2273L130.459 12.4437L135.139 5.17101L134.803 4.95455ZM130.123 12.2273L129.786 12.4437L134.467 19.7165L134.803 19.5L135.139 19.2835L130.459 12.0108L130.123 12.2273ZM134.803 19.5V19.1H133.233V19.5V19.9H134.803V19.5ZM133.233 19.5L133.57 19.2832L129.543 13.0403L129.207 13.2571L128.87 13.4739L132.897 19.7168L133.233 19.5ZM129.207 13.2571V12.8571H129.114V13.2571V13.6571H129.207V13.2571ZM129.114 13.2571L128.778 13.0403L124.751 19.2832L125.087 19.5L125.423 19.7168L129.45 13.4739L129.114 13.2571ZM125.087 19.5V19.1H123.518V19.5V19.9H125.087V19.5ZM123.518 19.5L123.852 19.7188L128.604 12.446L128.269 12.2273L127.934 12.0085L123.183 19.2812L123.518 19.5ZM128.269 12.2273L128.604 12.0085L123.852 4.73577L123.518 4.95455L123.183 5.17332L127.934 12.446L128.269 12.2273ZM123.518 4.95455V5.35455H125.087V4.95455V4.55455H123.518V4.95455Z" fill="black" mask="url(#path-6-outside-1_5_61)"/>
<mask id="path-8-outside-2_5_61" maskUnits="userSpaceOnUse" x="63.764" y="27.5" width="118" height="21" fill="black">
<rect fill="white" x="63.764" y="27.5" width="118" height="21"/>
<path d="M71.774 28.9545H75.2399V39.0114C75.2352 39.9536 75.0103 40.7775 74.5652 41.483C74.1201 42.1837 73.5046 42.7282 72.7186 43.1165C71.9373 43.5047 71.033 43.6989 70.0055 43.6989C69.0964 43.6989 68.2702 43.5402 67.5268 43.223C66.7882 42.9058 66.1987 42.4134 65.7584 41.7457C65.3228 41.0781 65.1073 40.2235 65.112 39.1818H68.6135C68.6277 39.5559 68.6987 39.8755 68.8265 40.1406C68.9591 40.401 69.1414 40.5975 69.3734 40.7301C69.6054 40.8627 69.8824 40.929 70.2044 40.929C70.5406 40.929 70.8246 40.858 71.0567 40.7159C71.2887 40.5691 71.4638 40.3537 71.5822 40.0696C71.7053 39.7855 71.7692 39.4328 71.774 39.0114V28.9545ZM80.5222 43.6847C79.8262 43.6847 79.2083 43.5687 78.6685 43.3366C78.1335 43.0999 77.7097 42.7448 77.3972 42.2713C77.0894 41.7931 76.9356 41.1941 76.9356 40.4744C76.9356 39.8684 77.0421 39.357 77.2552 38.9403C77.4682 38.5237 77.7618 38.1851 78.1358 37.9247C78.5099 37.6643 78.9408 37.4678 79.4285 37.3352C79.9161 37.1979 80.437 37.1056 80.991 37.0582C81.6112 37.0014 82.1107 36.9422 82.4895 36.8807C82.8683 36.8144 83.1429 36.7221 83.3134 36.6037C83.4886 36.4806 83.5762 36.3078 83.5762 36.0852V36.0497C83.5762 35.6851 83.4507 35.4034 83.1998 35.2045C82.9488 35.0057 82.6103 34.9062 82.1841 34.9062C81.7249 34.9062 81.3555 35.0057 81.0762 35.2045C80.7968 35.4034 80.6193 35.678 80.5435 36.0284L77.3404 35.9148C77.4351 35.2519 77.6789 34.66 78.0719 34.1392C78.4696 33.6136 79.0142 33.2017 79.7054 32.9034C80.4015 32.6004 81.2372 32.4489 82.2125 32.4489C82.9086 32.4489 83.5501 32.5317 84.1373 32.6974C84.7244 32.8584 85.2357 33.0952 85.6714 33.4077C86.107 33.7154 86.4431 34.0942 86.6799 34.544C86.9214 34.9938 87.0421 35.5076 87.0421 36.0852V43.5H83.775V41.9801H83.6898C83.4957 42.3494 83.2471 42.6619 82.9441 42.9176C82.6458 43.1733 82.293 43.3651 81.8858 43.4929C81.4834 43.6207 81.0288 43.6847 80.5222 43.6847ZM81.5946 41.4119C81.9687 41.4119 82.3049 41.3362 82.6032 41.1847C82.9062 41.0331 83.1477 40.8248 83.3276 40.5597C83.5075 40.2898 83.5975 39.9773 83.5975 39.6222V38.5852C83.4981 38.6373 83.3773 38.6847 83.2353 38.7273C83.098 38.7699 82.9464 38.8101 82.7807 38.848C82.615 38.8859 82.4446 38.919 82.2694 38.9474C82.0942 38.9759 81.9261 39.0019 81.7651 39.0256C81.4384 39.0777 81.159 39.1581 80.927 39.267C80.6998 39.3759 80.5246 39.518 80.4015 39.6932C80.2831 39.8636 80.2239 40.0672 80.2239 40.304C80.2239 40.6638 80.3518 40.9384 80.6074 41.1278C80.8678 41.3172 81.1969 41.4119 81.5946 41.4119ZM89.1657 43.5V32.5909H92.5393V34.5795H92.6529C92.8518 33.8598 93.1761 33.3248 93.6259 32.9744C94.0757 32.6193 94.5989 32.4418 95.1955 32.4418C95.3565 32.4418 95.5222 32.4536 95.6927 32.4773C95.8631 32.4962 96.0217 32.527 96.1685 32.5696V35.5881C96.0028 35.5312 95.785 35.4863 95.5151 35.4531C95.25 35.42 95.0132 35.4034 94.8049 35.4034C94.3929 35.4034 94.0213 35.4957 93.6898 35.6804C93.3631 35.8603 93.1051 36.1136 92.9157 36.4403C92.731 36.7623 92.6387 37.1411 92.6387 37.5767V43.5H89.1657ZM101.002 43.6562C100.197 43.6562 99.4652 43.4479 98.807 43.0312C98.1489 42.6146 97.6233 41.9896 97.2303 41.1562C96.8373 40.3229 96.6408 39.2884 96.6408 38.0526C96.6408 36.7694 96.8444 35.7135 97.2516 34.8849C97.6588 34.0563 98.1915 33.4432 98.8496 33.0455C99.5125 32.6477 100.225 32.4489 100.987 32.4489C101.56 32.4489 102.05 32.5483 102.458 32.7472C102.865 32.9413 103.201 33.1922 103.466 33.5C103.731 33.8078 103.932 34.1274 104.07 34.4588H104.141V28.9545H107.614V43.5H104.176V41.7315H104.07C103.923 42.0677 103.715 42.3826 103.445 42.6761C103.175 42.9697 102.836 43.2064 102.429 43.3864C102.027 43.5663 101.551 43.6562 101.002 43.6562ZM102.209 40.9503C102.63 40.9503 102.99 40.8319 103.289 40.5952C103.587 40.3537 103.816 40.0152 103.977 39.5795C104.138 39.1439 104.219 38.6326 104.219 38.0455C104.219 37.4489 104.138 36.9351 103.977 36.5043C103.821 36.0734 103.592 35.742 103.289 35.5099C102.99 35.2779 102.63 35.1619 102.209 35.1619C101.778 35.1619 101.414 35.2803 101.115 35.517C100.817 35.7538 100.59 36.0876 100.433 36.5185C100.282 36.9493 100.206 37.4583 100.206 38.0455C100.206 38.6326 100.284 39.1439 100.441 39.5795C100.597 40.0152 100.822 40.3537 101.115 40.5952C101.414 40.8319 101.778 40.9503 102.209 40.9503ZM109.81 43.5V32.5909H113.283V43.5H109.81ZM111.55 31.3196C111.063 31.3196 110.644 31.1586 110.293 30.8366C109.943 30.5099 109.768 30.117 109.768 29.6577C109.768 29.2031 109.943 28.8149 110.293 28.4929C110.644 28.1662 111.063 28.0028 111.55 28.0028C112.043 28.0028 112.462 28.1662 112.807 28.4929C113.158 28.8149 113.333 29.2031 113.333 29.6577C113.333 30.117 113.158 30.5099 112.807 30.8366C112.462 31.1586 112.043 31.3196 111.55 31.3196ZM118.967 37.2784V43.5H115.494V32.5909H118.796V34.5938H118.917C119.159 33.9261 119.571 33.4029 120.153 33.0241C120.735 32.6406 121.429 32.4489 122.234 32.4489C123.001 32.4489 123.666 32.6217 124.23 32.9673C124.798 33.3082 125.238 33.7865 125.551 34.402C125.868 35.0128 126.024 35.7277 126.019 36.5469V43.5H122.546V37.2287C122.551 36.6226 122.397 36.1491 122.085 35.8082C121.777 35.4673 121.348 35.2969 120.799 35.2969C120.435 35.2969 120.113 35.3774 119.833 35.5384C119.559 35.6946 119.346 35.9195 119.194 36.2131C119.047 36.5066 118.972 36.8617 118.967 37.2784ZM131.245 43.6847C130.549 43.6847 129.931 43.5687 129.391 43.3366C128.856 43.0999 128.432 42.7448 128.12 42.2713C127.812 41.7931 127.658 41.1941 127.658 40.4744C127.658 39.8684 127.765 39.357 127.978 38.9403C128.191 38.5237 128.484 38.1851 128.858 37.9247C129.233 37.6643 129.663 37.4678 130.151 37.3352C130.639 37.1979 131.16 37.1056 131.714 37.0582C132.334 37.0014 132.833 36.9422 133.212 36.8807C133.591 36.8144 133.866 36.7221 134.036 36.6037C134.211 36.4806 134.299 36.3078 134.299 36.0852V36.0497C134.299 35.6851 134.173 35.4034 133.922 35.2045C133.671 35.0057 133.333 34.9062 132.907 34.9062C132.448 34.9062 132.078 35.0057 131.799 35.2045C131.519 35.4034 131.342 35.678 131.266 36.0284L128.063 35.9148C128.158 35.2519 128.402 34.66 128.795 34.1392C129.192 33.6136 129.737 33.2017 130.428 32.9034C131.124 32.6004 131.96 32.4489 132.935 32.4489C133.631 32.4489 134.273 32.5317 134.86 32.6974C135.447 32.8584 135.958 33.0952 136.394 33.4077C136.83 33.7154 137.166 34.0942 137.403 34.544C137.644 34.9938 137.765 35.5076 137.765 36.0852V43.5H134.498V41.9801H134.412C134.218 42.3494 133.97 42.6619 133.667 42.9176C133.368 43.1733 133.016 43.3651 132.608 43.4929C132.206 43.6207 131.751 43.6847 131.245 43.6847ZM132.317 41.4119C132.691 41.4119 133.028 41.3362 133.326 41.1847C133.629 41.0331 133.87 40.8248 134.05 40.5597C134.23 40.2898 134.32 39.9773 134.32 39.6222V38.5852C134.221 38.6373 134.1 38.6847 133.958 38.7273C133.821 38.7699 133.669 38.8101 133.503 38.848C133.338 38.8859 133.167 38.919 132.992 38.9474C132.817 38.9759 132.649 39.0019 132.488 39.0256C132.161 39.0777 131.882 39.1581 131.65 39.267C131.422 39.3759 131.247 39.518 131.124 39.6932C131.006 39.8636 130.947 40.0672 130.947 40.304C130.947 40.6638 131.074 40.9384 131.33 41.1278C131.591 41.3172 131.92 41.4119 132.317 41.4119ZM144.974 47.8182C143.937 47.8182 143.049 47.6738 142.31 47.3849C141.572 47.0961 140.992 46.7008 140.57 46.1989C140.149 45.697 139.895 45.1288 139.81 44.4943L143.099 44.3097C143.16 44.5322 143.274 44.7263 143.439 44.892C143.61 45.0578 143.83 45.1856 144.1 45.2756C144.375 45.3655 144.697 45.4105 145.066 45.4105C145.648 45.4105 146.129 45.2685 146.508 44.9844C146.891 44.705 147.083 44.215 147.083 43.5142V41.5966H146.962C146.825 41.9328 146.617 42.2334 146.337 42.4986C146.058 42.7637 145.71 42.9721 145.293 43.1236C144.881 43.2751 144.408 43.3509 143.873 43.3509C143.077 43.3509 142.348 43.1662 141.685 42.7969C141.027 42.4228 140.499 41.8452 140.101 41.0639C139.708 40.2779 139.512 39.267 139.512 38.0312C139.512 36.7576 139.716 35.7088 140.123 34.8849C140.53 34.0563 141.063 33.4432 141.721 33.0455C142.384 32.6477 143.096 32.4489 143.858 32.4489C144.431 32.4489 144.921 32.5483 145.329 32.7472C145.741 32.9413 146.079 33.1922 146.344 33.5C146.609 33.8078 146.811 34.1274 146.948 34.4588H147.047V32.5909H150.506V43.5426C150.506 44.4659 150.274 45.2448 149.81 45.8793C149.346 46.5137 148.698 46.9943 147.864 47.321C147.031 47.6525 146.067 47.8182 144.974 47.8182ZM145.08 40.8224C145.501 40.8224 145.861 40.7112 146.16 40.4886C146.458 40.2661 146.688 39.9465 146.849 39.5298C147.01 39.1132 147.09 38.6136 147.09 38.0312C147.09 37.4394 147.01 36.9304 146.849 36.5043C146.692 36.0734 146.463 35.742 146.16 35.5099C145.861 35.2779 145.501 35.1619 145.08 35.1619C144.649 35.1619 144.285 35.2803 143.986 35.517C143.688 35.7538 143.461 36.0876 143.305 36.5185C143.153 36.9446 143.077 37.4489 143.077 38.0312C143.077 38.6136 143.155 39.1132 143.312 39.5298C143.468 39.9465 143.693 40.2661 143.986 40.4886C144.285 40.7112 144.649 40.8224 145.08 40.8224ZM157.82 43.706C156.679 43.706 155.694 43.4811 154.865 43.0312C154.041 42.5767 153.407 41.9304 152.962 41.0923C152.521 40.2495 152.301 39.2481 152.301 38.0881C152.301 36.9612 152.524 35.9763 152.969 35.1335C153.414 34.286 154.041 33.6278 154.851 33.1591C155.661 32.6856 156.615 32.4489 157.713 32.4489C158.49 32.4489 159.2 32.5696 159.844 32.8111C160.488 33.0526 161.044 33.41 161.513 33.8835C161.982 34.357 162.346 34.9418 162.607 35.6378C162.867 36.3291 162.997 37.1222 162.997 38.017V38.8835H153.516V36.8665H159.766C159.761 36.4972 159.673 36.1681 159.503 35.8793C159.333 35.5904 159.098 35.3655 158.8 35.2045C158.506 35.0388 158.168 34.956 157.784 34.956C157.396 34.956 157.048 35.0436 156.74 35.2188C156.432 35.3892 156.189 35.6236 156.009 35.9219C155.829 36.2154 155.734 36.5492 155.725 36.9233V38.9759C155.725 39.4209 155.812 39.8116 155.987 40.1477C156.163 40.4792 156.411 40.7372 156.733 40.9219C157.055 41.1065 157.439 41.1989 157.884 41.1989C158.191 41.1989 158.471 41.1562 158.722 41.071C158.973 40.9858 159.188 40.8603 159.368 40.6946C159.548 40.5289 159.683 40.3253 159.773 40.0838L162.962 40.1761C162.829 40.8911 162.538 41.5137 162.088 42.044C161.643 42.5696 161.058 42.9792 160.334 43.2727C159.61 43.5616 158.771 43.706 157.82 43.706ZM164.771 43.5V32.5909H168.074V34.5938H168.194C168.422 33.9309 168.805 33.4077 169.345 33.0241C169.885 32.6406 170.529 32.4489 171.277 32.4489C172.034 32.4489 172.683 32.643 173.223 33.0312C173.763 33.4195 174.106 33.9403 174.253 34.5938H174.366C174.57 33.9451 174.968 33.4266 175.559 33.0384C176.151 32.6454 176.85 32.4489 177.655 32.4489C178.687 32.4489 179.525 32.7803 180.169 33.4432C180.813 34.1013 181.135 35.0057 181.135 36.1562V43.5H177.662V36.9517C177.662 36.4072 177.522 35.9929 177.243 35.7088C176.963 35.42 176.601 35.2756 176.156 35.2756C175.678 35.2756 175.301 35.4318 175.027 35.7443C174.757 36.0521 174.622 36.4664 174.622 36.9872V43.5H171.284V36.9162C171.284 36.4096 171.147 36.0095 170.872 35.7159C170.597 35.4223 170.235 35.2756 169.785 35.2756C169.482 35.2756 169.215 35.349 168.983 35.4957C168.751 35.6378 168.568 35.8414 168.436 36.1065C168.308 36.3717 168.244 36.6842 168.244 37.044V43.5H164.771Z"/>
</mask>
<path d="M71.774 28.9545H75.2399V39.0114C75.2352 39.9536 75.0103 40.7775 74.5652 41.483C74.1201 42.1837 73.5046 42.7282 72.7186 43.1165C71.9373 43.5047 71.033 43.6989 70.0055 43.6989C69.0964 43.6989 68.2702 43.5402 67.5268 43.223C66.7882 42.9058 66.1987 42.4134 65.7584 41.7457C65.3228 41.0781 65.1073 40.2235 65.112 39.1818H68.6135C68.6277 39.5559 68.6987 39.8755 68.8265 40.1406C68.9591 40.401 69.1414 40.5975 69.3734 40.7301C69.6054 40.8627 69.8824 40.929 70.2044 40.929C70.5406 40.929 70.8246 40.858 71.0567 40.7159C71.2887 40.5691 71.4638 40.3537 71.5822 40.0696C71.7053 39.7855 71.7692 39.4328 71.774 39.0114V28.9545ZM80.5222 43.6847C79.8262 43.6847 79.2083 43.5687 78.6685 43.3366C78.1335 43.0999 77.7097 42.7448 77.3972 42.2713C77.0894 41.7931 76.9356 41.1941 76.9356 40.4744C76.9356 39.8684 77.0421 39.357 77.2552 38.9403C77.4682 38.5237 77.7618 38.1851 78.1358 37.9247C78.5099 37.6643 78.9408 37.4678 79.4285 37.3352C79.9161 37.1979 80.437 37.1056 80.991 37.0582C81.6112 37.0014 82.1107 36.9422 82.4895 36.8807C82.8683 36.8144 83.1429 36.7221 83.3134 36.6037C83.4886 36.4806 83.5762 36.3078 83.5762 36.0852V36.0497C83.5762 35.6851 83.4507 35.4034 83.1998 35.2045C82.9488 35.0057 82.6103 34.9062 82.1841 34.9062C81.7249 34.9062 81.3555 35.0057 81.0762 35.2045C80.7968 35.4034 80.6193 35.678 80.5435 36.0284L77.3404 35.9148C77.4351 35.2519 77.6789 34.66 78.0719 34.1392C78.4696 33.6136 79.0142 33.2017 79.7054 32.9034C80.4015 32.6004 81.2372 32.4489 82.2125 32.4489C82.9086 32.4489 83.5501 32.5317 84.1373 32.6974C84.7244 32.8584 85.2357 33.0952 85.6714 33.4077C86.107 33.7154 86.4431 34.0942 86.6799 34.544C86.9214 34.9938 87.0421 35.5076 87.0421 36.0852V43.5H83.775V41.9801H83.6898C83.4957 42.3494 83.2471 42.6619 82.9441 42.9176C82.6458 43.1733 82.293 43.3651 81.8858 43.4929C81.4834 43.6207 81.0288 43.6847 80.5222 43.6847ZM81.5946 41.4119C81.9687 41.4119 82.3049 41.3362 82.6032 41.1847C82.9062 41.0331 83.1477 40.8248 83.3276 40.5597C83.5075 40.2898 83.5975 39.9773 83.5975 39.6222V38.5852C83.4981 38.6373 83.3773 38.6847 83.2353 38.7273C83.098 38.7699 82.9464 38.8101 82.7807 38.848C82.615 38.8859 82.4446 38.919 82.2694 38.9474C82.0942 38.9759 81.9261 39.0019 81.7651 39.0256C81.4384 39.0777 81.159 39.1581 80.927 39.267C80.6998 39.3759 80.5246 39.518 80.4015 39.6932C80.2831 39.8636 80.2239 40.0672 80.2239 40.304C80.2239 40.6638 80.3518 40.9384 80.6074 41.1278C80.8678 41.3172 81.1969 41.4119 81.5946 41.4119ZM89.1657 43.5V32.5909H92.5393V34.5795H92.6529C92.8518 33.8598 93.1761 33.3248 93.6259 32.9744C94.0757 32.6193 94.5989 32.4418 95.1955 32.4418C95.3565 32.4418 95.5222 32.4536 95.6927 32.4773C95.8631 32.4962 96.0217 32.527 96.1685 32.5696V35.5881C96.0028 35.5312 95.785 35.4863 95.5151 35.4531C95.25 35.42 95.0132 35.4034 94.8049 35.4034C94.3929 35.4034 94.0213 35.4957 93.6898 35.6804C93.3631 35.8603 93.1051 36.1136 92.9157 36.4403C92.731 36.7623 92.6387 37.1411 92.6387 37.5767V43.5H89.1657ZM101.002 43.6562C100.197 43.6562 99.4652 43.4479 98.807 43.0312C98.1489 42.6146 97.6233 41.9896 97.2303 41.1562C96.8373 40.3229 96.6408 39.2884 96.6408 38.0526C96.6408 36.7694 96.8444 35.7135 97.2516 34.8849C97.6588 34.0563 98.1915 33.4432 98.8496 33.0455C99.5125 32.6477 100.225 32.4489 100.987 32.4489C101.56 32.4489 102.05 32.5483 102.458 32.7472C102.865 32.9413 103.201 33.1922 103.466 33.5C103.731 33.8078 103.932 34.1274 104.07 34.4588H104.141V28.9545H107.614V43.5H104.176V41.7315H104.07C103.923 42.0677 103.715 42.3826 103.445 42.6761C103.175 42.9697 102.836 43.2064 102.429 43.3864C102.027 43.5663 101.551 43.6562 101.002 43.6562ZM102.209 40.9503C102.63 40.9503 102.99 40.8319 103.289 40.5952C103.587 40.3537 103.816 40.0152 103.977 39.5795C104.138 39.1439 104.219 38.6326 104.219 38.0455C104.219 37.4489 104.138 36.9351 103.977 36.5043C103.821 36.0734 103.592 35.742 103.289 35.5099C102.99 35.2779 102.63 35.1619 102.209 35.1619C101.778 35.1619 101.414 35.2803 101.115 35.517C100.817 35.7538 100.59 36.0876 100.433 36.5185C100.282 36.9493 100.206 37.4583 100.206 38.0455C100.206 38.6326 100.284 39.1439 100.441 39.5795C100.597 40.0152 100.822 40.3537 101.115 40.5952C101.414 40.8319 101.778 40.9503 102.209 40.9503ZM109.81 43.5V32.5909H113.283V43.5H109.81ZM111.55 31.3196C111.063 31.3196 110.644 31.1586 110.293 30.8366C109.943 30.5099 109.768 30.117 109.768 29.6577C109.768 29.2031 109.943 28.8149 110.293 28.4929C110.644 28.1662 111.063 28.0028 111.55 28.0028C112.043 28.0028 112.462 28.1662 112.807 28.4929C113.158 28.8149 113.333 29.2031 113.333 29.6577C113.333 30.117 113.158 30.5099 112.807 30.8366C112.462 31.1586 112.043 31.3196 111.55 31.3196ZM118.967 37.2784V43.5H115.494V32.5909H118.796V34.5938H118.917C119.159 33.9261 119.571 33.4029 120.153 33.0241C120.735 32.6406 121.429 32.4489 122.234 32.4489C123.001 32.4489 123.666 32.6217 124.23 32.9673C124.798 33.3082 125.238 33.7865 125.551 34.402C125.868 35.0128 126.024 35.7277 126.019 36.5469V43.5H122.546V37.2287C122.551 36.6226 122.397 36.1491 122.085 35.8082C121.777 35.4673 121.348 35.2969 120.799 35.2969C120.435 35.2969 120.113 35.3774 119.833 35.5384C119.559 35.6946 119.346 35.9195 119.194 36.2131C119.047 36.5066 118.972 36.8617 118.967 37.2784ZM131.245 43.6847C130.549 43.6847 129.931 43.5687 129.391 43.3366C128.856 43.0999 128.432 42.7448 128.12 42.2713C127.812 41.7931 127.658 41.1941 127.658 40.4744C127.658 39.8684 127.765 39.357 127.978 38.9403C128.191 38.5237 128.484 38.1851 128.858 37.9247C129.233 37.6643 129.663 37.4678 130.151 37.3352C130.639 37.1979 131.16 37.1056 131.714 37.0582C132.334 37.0014 132.833 36.9422 133.212 36.8807C133.591 36.8144 133.866 36.7221 134.036 36.6037C134.211 36.4806 134.299 36.3078 134.299 36.0852V36.0497C134.299 35.6851 134.173 35.4034 133.922 35.2045C133.671 35.0057 133.333 34.9062 132.907 34.9062C132.448 34.9062 132.078 35.0057 131.799 35.2045C131.519 35.4034 131.342 35.678 131.266 36.0284L128.063 35.9148C128.158 35.2519 128.402 34.66 128.795 34.1392C129.192 33.6136 129.737 33.2017 130.428 32.9034C131.124 32.6004 131.96 32.4489 132.935 32.4489C133.631 32.4489 134.273 32.5317 134.86 32.6974C135.447 32.8584 135.958 33.0952 136.394 33.4077C136.83 33.7154 137.166 34.0942 137.403 34.544C137.644 34.9938 137.765 35.5076 137.765 36.0852V43.5H134.498V41.9801H134.412C134.218 42.3494 133.97 42.6619 133.667 42.9176C133.368 43.1733 133.016 43.3651 132.608 43.4929C132.206 43.6207 131.751 43.6847 131.245 43.6847ZM132.317 41.4119C132.691 41.4119 133.028 41.3362 133.326 41.1847C133.629 41.0331 133.87 40.8248 134.05 40.5597C134.23 40.2898 134.32 39.9773 134.32 39.6222V38.5852C134.221 38.6373 134.1 38.6847 133.958 38.7273C133.821 38.7699 133.669 38.8101 133.503 38.848C133.338 38.8859 133.167 38.919 132.992 38.9474C132.817 38.9759 132.649 39.0019 132.488 39.0256C132.161 39.0777 131.882 39.1581 131.65 39.267C131.422 39.3759 131.247 39.518 131.124 39.6932C131.006 39.8636 130.947 40.0672 130.947 40.304C130.947 40.6638 131.074 40.9384 131.33 41.1278C131.591 41.3172 131.92 41.4119 132.317 41.4119ZM144.974 47.8182C143.937 47.8182 143.049 47.6738 142.31 47.3849C141.572 47.0961 140.992 46.7008 140.57 46.1989C140.149 45.697 139.895 45.1288 139.81 44.4943L143.099 44.3097C143.16 44.5322 143.274 44.7263 143.439 44.892C143.61 45.0578 143.83 45.1856 144.1 45.2756C144.375 45.3655 144.697 45.4105 145.066 45.4105C145.648 45.4105 146.129 45.2685 146.508 44.9844C146.891 44.705 147.083 44.215 147.083 43.5142V41.5966H146.962C146.825 41.9328 146.617 42.2334 146.337 42.4986C146.058 42.7637 145.71 42.9721 145.293 43.1236C144.881 43.2751 144.408 43.3509 143.873 43.3509C143.077 43.3509 142.348 43.1662 141.685 42.7969C141.027 42.4228 140.499 41.8452 140.101 41.0639C139.708 40.2779 139.512 39.267 139.512 38.0312C139.512 36.7576 139.716 35.7088 140.123 34.8849C140.53 34.0563 141.063 33.4432 141.721 33.0455C142.384 32.6477 143.096 32.4489 143.858 32.4489C144.431 32.4489 144.921 32.5483 145.329 32.7472C145.741 32.9413 146.079 33.1922 146.344 33.5C146.609 33.8078 146.811 34.1274 146.948 34.4588H147.047V32.5909H150.506V43.5426C150.506 44.4659 150.274 45.2448 149.81 45.8793C149.346 46.5137 148.698 46.9943 147.864 47.321C147.031 47.6525 146.067 47.8182 144.974 47.8182ZM145.08 40.8224C145.501 40.8224 145.861 40.7112 146.16 40.4886C146.458 40.2661 146.688 39.9465 146.849 39.5298C147.01 39.1132 147.09 38.6136 147.09 38.0312C147.09 37.4394 147.01 36.9304 146.849 36.5043C146.692 36.0734 146.463 35.742 146.16 35.5099C145.861 35.2779 145.501 35.1619 145.08 35.1619C144.649 35.1619 144.285 35.2803 143.986 35.517C143.688 35.7538 143.461 36.0876 143.305 36.5185C143.153 36.9446 143.077 37.4489 143.077 38.0312C143.077 38.6136 143.155 39.1132 143.312 39.5298C143.468 39.9465 143.693 40.2661 143.986 40.4886C144.285 40.7112 144.649 40.8224 145.08 40.8224ZM157.82 43.706C156.679 43.706 155.694 43.4811 154.865 43.0312C154.041 42.5767 153.407 41.9304 152.962 41.0923C152.521 40.2495 152.301 39.2481 152.301 38.0881C152.301 36.9612 152.524 35.9763 152.969 35.1335C153.414 34.286 154.041 33.6278 154.851 33.1591C155.661 32.6856 156.615 32.4489 157.713 32.4489C158.49 32.4489 159.2 32.5696 159.844 32.8111C160.488 33.0526 161.044 33.41 161.513 33.8835C161.982 34.357 162.346 34.9418 162.607 35.6378C162.867 36.3291 162.997 37.1222 162.997 38.017V38.8835H153.516V36.8665H159.766C159.761 36.4972 159.673 36.1681 159.503 35.8793C159.333 35.5904 159.098 35.3655 158.8 35.2045C158.506 35.0388 158.168 34.956 157.784 34.956C157.396 34.956 157.048 35.0436 156.74 35.2188C156.432 35.3892 156.189 35.6236 156.009 35.9219C155.829 36.2154 155.734 36.5492 155.725 36.9233V38.9759C155.725 39.4209 155.812 39.8116 155.987 40.1477C156.163 40.4792 156.411 40.7372 156.733 40.9219C157.055 41.1065 157.439 41.1989 157.884 41.1989C158.191 41.1989 158.471 41.1562 158.722 41.071C158.973 40.9858 159.188 40.8603 159.368 40.6946C159.548 40.5289 159.683 40.3253 159.773 40.0838L162.962 40.1761C162.829 40.8911 162.538 41.5137 162.088 42.044C161.643 42.5696 161.058 42.9792 160.334 43.2727C159.61 43.5616 158.771 43.706 157.82 43.706ZM164.771 43.5V32.5909H168.074V34.5938H168.194C168.422 33.9309 168.805 33.4077 169.345 33.0241C169.885 32.6406 170.529 32.4489 171.277 32.4489C172.034 32.4489 172.683 32.643 173.223 33.0312C173.763 33.4195 174.106 33.9403 174.253 34.5938H174.366C174.57 33.9451 174.968 33.4266 175.559 33.0384C176.151 32.6454 176.85 32.4489 177.655 32.4489C178.687 32.4489 179.525 32.7803 180.169 33.4432C180.813 34.1013 181.135 35.0057 181.135 36.1562V43.5H177.662V36.9517C177.662 36.4072 177.522 35.9929 177.243 35.7088C176.963 35.42 176.601 35.2756 176.156 35.2756C175.678 35.2756 175.301 35.4318 175.027 35.7443C174.757 36.0521 174.622 36.4664 174.622 36.9872V43.5H171.284V36.9162C171.284 36.4096 171.147 36.0095 170.872 35.7159C170.597 35.4223 170.235 35.2756 169.785 35.2756C169.482 35.2756 169.215 35.349 168.983 35.4957C168.751 35.6378 168.568 35.8414 168.436 36.1065C168.308 36.3717 168.244 36.6842 168.244 37.044V43.5H164.771Z" fill="white"/>
<path d="M71.774 28.9545V28.5545H71.374V28.9545H71.774ZM75.2399 28.9545H75.6399V28.5545H75.2399V28.9545ZM75.2399 39.0114L75.6399 39.0134V39.0114H75.2399ZM74.5652 41.483L74.9028 41.6974L74.9035 41.6964L74.5652 41.483ZM72.7186 43.1165L72.5414 42.7578L72.5406 42.7583L72.7186 43.1165ZM67.5268 43.223L67.369 43.5905L67.3698 43.5909L67.5268 43.223ZM65.7584 41.7457L65.4234 41.9643L65.4244 41.966L65.7584 41.7457ZM65.112 39.1818V38.7818H64.7139L64.7121 39.18L65.112 39.1818ZM68.6135 39.1818L69.0132 39.1666L68.9986 38.7818H68.6135V39.1818ZM68.8265 40.1406L68.4661 40.3144L68.4701 40.3221L68.8265 40.1406ZM69.3734 40.7301L69.5719 40.3828L69.5719 40.3828L69.3734 40.7301ZM71.0567 40.7159L71.2655 41.0571L71.2705 41.0539L71.0567 40.7159ZM71.5822 40.0696L71.2152 39.9105L71.213 39.9158L71.5822 40.0696ZM71.774 39.0114L72.174 39.0159V39.0114H71.774ZM71.774 28.9545V29.3545H75.2399V28.9545V28.5545H71.774V28.9545ZM75.2399 28.9545H74.8399V39.0114H75.2399H75.6399V28.9545H75.2399ZM75.2399 39.0114L74.8399 39.0094C74.8355 39.8867 74.627 40.6353 74.2269 41.2695L74.5652 41.483L74.9035 41.6964C75.3935 40.9197 75.6348 40.0205 75.6399 39.0134L75.2399 39.0114ZM74.5652 41.483L74.2275 41.2685C73.824 41.9039 73.2656 42.4001 72.5414 42.7578L72.7186 43.1165L72.8957 43.4751C73.7436 43.0563 74.4162 42.4635 74.9028 41.6974L74.5652 41.483ZM72.7186 43.1165L72.5406 42.7583C71.8236 43.1146 70.9821 43.2989 70.0055 43.2989V43.6989V44.0989C71.0838 44.0989 72.051 43.8949 72.8966 43.4747L72.7186 43.1165ZM70.0055 43.6989V43.2989C69.1437 43.2989 68.3717 43.1487 67.6838 42.8551L67.5268 43.223L67.3698 43.5909C68.1687 43.9318 69.0492 44.0989 70.0055 44.0989V43.6989ZM67.5268 43.223L67.6847 42.8555C67.0175 42.5689 66.4893 42.1275 66.0923 41.5255L65.7584 41.7457L65.4244 41.966C65.9081 42.6992 66.5589 43.2426 67.369 43.5905L67.5268 43.223ZM65.7584 41.7457L66.0934 41.5272C65.7118 40.9424 65.5076 40.1707 65.512 39.1836L65.112 39.1818L64.7121 39.18C64.7071 40.2763 64.9337 41.2138 65.4234 41.9643L65.7584 41.7457ZM65.112 39.1818V39.5818H68.6135V39.1818V38.7818H65.112V39.1818ZM68.6135 39.1818L68.2138 39.197C68.2295 39.6117 68.3089 39.9881 68.4662 40.3143L68.8265 40.1406L69.1868 39.9669C69.0885 39.7628 69.0258 39.5001 69.0132 39.1666L68.6135 39.1818ZM68.8265 40.1406L68.4701 40.3221C68.6346 40.6452 68.8689 40.9025 69.175 41.0774L69.3734 40.7301L69.5719 40.3828C69.4139 40.2925 69.2836 40.1568 69.183 39.9592L68.8265 40.1406ZM69.3734 40.7301L69.175 41.0774C69.4787 41.251 69.827 41.329 70.2044 41.329V40.929V40.529C69.9378 40.529 69.7322 40.4744 69.5719 40.3828L69.3734 40.7301ZM70.2044 40.929V41.329C70.5969 41.329 70.9573 41.2457 71.2655 41.057L71.0567 40.7159L70.8478 40.3748C70.6919 40.4702 70.4842 40.529 70.2044 40.529V40.929ZM71.0567 40.7159L71.2705 41.0539C71.5803 40.858 71.8054 40.5739 71.9515 40.2234L71.5822 40.0696L71.213 39.9158C71.1223 40.1335 70.997 40.2803 70.8428 40.3779L71.0567 40.7159ZM71.5822 40.0696L71.9492 40.2286C72.0997 39.8815 72.1688 39.4724 72.174 39.0159L71.774 39.0114L71.374 39.0069C71.3697 39.3931 71.311 39.6895 71.2152 39.9106L71.5822 40.0696ZM71.774 39.0114H72.174V28.9545H71.774H71.374V39.0114H71.774ZM78.6685 43.3366L78.5066 43.7025L78.5106 43.7041L78.6685 43.3366ZM77.3972 42.2713L77.0608 42.4878L77.0634 42.4916L77.3972 42.2713ZM77.2552 38.9403L76.899 38.7582L76.899 38.7582L77.2552 38.9403ZM78.1358 37.9247L78.3644 38.253L78.3644 38.253L78.1358 37.9247ZM79.4285 37.3352L79.5334 37.7212L79.5369 37.7203L79.4285 37.3352ZM80.991 37.0582L81.025 37.4568L81.0274 37.4566L80.991 37.0582ZM82.4895 36.8807L82.5537 37.2755L82.5585 37.2747L82.4895 36.8807ZM83.3134 36.6037L83.5416 36.9322L83.5434 36.931L83.3134 36.6037ZM83.1998 35.2045L83.4482 34.891L83.4482 34.891L83.1998 35.2045ZM81.0762 35.2045L80.8442 34.8787L80.8442 34.8787L81.0762 35.2045ZM80.5435 36.0284L80.5293 36.4282L80.8638 36.44L80.9345 36.1129L80.5435 36.0284ZM77.3404 35.9148L76.9444 35.8582L76.8815 36.2987L77.3262 36.3145L77.3404 35.9148ZM78.0719 34.1392L77.753 33.8978L77.7526 33.8983L78.0719 34.1392ZM79.7054 32.9034L79.8639 33.2707L79.8651 33.2702L79.7054 32.9034ZM84.1373 32.6974L84.0286 33.0824L84.0315 33.0832L84.1373 32.6974ZM85.6714 33.4077L85.4382 33.7327L85.4405 33.7344L85.6714 33.4077ZM86.6799 34.544L86.3259 34.7303L86.3275 34.7332L86.6799 34.544ZM87.0421 43.5V43.9H87.4421V43.5H87.0421ZM83.775 43.5H83.375V43.9H83.775V43.5ZM83.775 41.9801H84.175V41.5801H83.775V41.9801ZM83.6898 41.9801V41.5801H83.4482L83.3358 41.794L83.6898 41.9801ZM82.9441 42.9176L82.6861 42.6119L82.6838 42.6139L82.9441 42.9176ZM81.8858 43.4929L81.766 43.1113L81.7647 43.1117L81.8858 43.4929ZM82.6032 41.1847L82.4243 40.8269L82.422 40.828L82.6032 41.1847ZM83.3276 40.5597L83.6586 40.7843L83.6604 40.7815L83.3276 40.5597ZM83.5975 38.5852H83.9975V37.9241L83.4119 38.2309L83.5975 38.5852ZM83.2353 38.7273L83.1203 38.3441L83.1167 38.3452L83.2353 38.7273ZM82.2694 38.9474L82.3334 39.3423L82.3334 39.3423L82.2694 38.9474ZM81.7651 39.0256L81.7069 38.6298L81.7021 38.6306L81.7651 39.0256ZM80.927 39.267L80.7571 38.9049L80.7542 38.9063L80.927 39.267ZM80.4015 39.6932L80.0742 39.4632L80.0729 39.465L80.4015 39.6932ZM80.6074 41.1278L80.3693 41.4493L80.3722 41.4513L80.6074 41.1278ZM80.5222 43.6847V43.2847C79.8706 43.2847 79.308 43.1761 78.8265 42.9692L78.6685 43.3366L78.5106 43.7041C79.1086 43.9612 79.7817 44.0847 80.5222 44.0847V43.6847ZM78.6685 43.3366L78.8304 42.9709C78.3631 42.7641 78 42.4584 77.731 42.051L77.3972 42.2713L77.0634 42.4916C77.4194 43.0312 77.9039 43.4357 78.5067 43.7024L78.6685 43.3366ZM77.3972 42.2713L77.7336 42.0548C77.4771 41.6563 77.3356 41.1376 77.3356 40.4744H76.9356H76.5356C76.5356 41.2506 76.7018 41.9298 77.0608 42.4878L77.3972 42.2713ZM76.9356 40.4744H77.3356C77.3356 39.9136 77.4343 39.4686 77.6113 39.1225L77.2552 38.9403L76.899 38.7582C76.6499 39.2454 76.5356 39.8231 76.5356 40.4744H76.9356ZM77.2552 38.9403L77.6113 39.1225C77.7953 38.7626 78.0457 38.4749 78.3644 38.253L78.1358 37.9247L77.9073 37.5964C77.4779 37.8954 77.1411 38.2847 76.899 38.7582L77.2552 38.9403ZM78.1358 37.9247L78.3644 38.253C78.697 38.0214 79.0851 37.8431 79.5334 37.7212L79.4285 37.3352L79.3235 36.9492C78.7964 37.0925 78.3228 37.3072 77.9073 37.5964L78.1358 37.9247ZM79.4285 37.3352L79.5369 37.7203C79.998 37.5904 80.4938 37.5022 81.025 37.4568L80.991 37.0582L80.9569 36.6597C80.3802 36.709 79.8343 36.8054 79.32 36.9502L79.4285 37.3352ZM80.991 37.0582L81.0274 37.4566C81.652 37.3994 82.1619 37.3392 82.5537 37.2755L82.4895 36.8807L82.4254 36.4859C82.0596 36.5453 81.5704 36.6035 80.9545 36.6599L80.991 37.0582ZM82.4895 36.8807L82.5585 37.2747C82.9538 37.2055 83.2983 37.1011 83.5416 36.9322L83.3134 36.6037L83.0852 36.2751C82.9876 36.343 82.7828 36.4233 82.4206 36.4867L82.4895 36.8807ZM83.3134 36.6037L83.5434 36.931C83.83 36.7295 83.9762 36.432 83.9762 36.0852H83.5762H83.1762C83.1762 36.1836 83.1471 36.2316 83.0834 36.2764L83.3134 36.6037ZM83.5762 36.0852H83.9762V36.0497H83.5762H83.1762V36.0852H83.5762ZM83.5762 36.0497H83.9762C83.9762 35.5821 83.809 35.1769 83.4482 34.891L83.1998 35.2045L82.9513 35.518C83.0925 35.6299 83.1762 35.7881 83.1762 36.0497H83.5762ZM83.1998 35.2045L83.4482 34.891C83.1063 34.6201 82.6706 34.5062 82.1841 34.5062V34.9062V35.3063C82.5499 35.3063 82.7914 35.3913 82.9513 35.518L83.1998 35.2045ZM82.1841 34.9062V34.5062C81.6695 34.5062 81.2109 34.6176 80.8442 34.8787L81.0762 35.2045L81.3082 35.5304C81.5002 35.3937 81.7802 35.3063 82.1841 35.3063V34.9062ZM81.0762 35.2045L80.8442 34.8787C80.4797 35.1382 80.2483 35.5009 80.1525 35.9439L80.5435 36.0284L80.9345 36.1129C80.9902 35.8552 81.114 35.6686 81.3082 35.5304L81.0762 35.2045ZM80.5435 36.0284L80.5577 35.6287L77.3546 35.515L77.3404 35.9148L77.3262 36.3145L80.5293 36.4282L80.5435 36.0284ZM77.3404 35.9148L77.7364 35.9713C77.8218 35.3736 78.0401 34.8455 78.3912 34.3801L78.0719 34.1392L77.7526 33.8983C77.3178 34.4746 77.0484 35.1302 76.9444 35.8582L77.3404 35.9148ZM78.0719 34.1392L78.3909 34.3806C78.7413 33.9176 79.2269 33.5455 79.8639 33.2707L79.7054 32.9034L79.547 32.5361C78.8014 32.8579 78.198 33.3097 77.753 33.8978L78.0719 34.1392ZM79.7054 32.9034L79.8651 33.2702C80.4986 32.9944 81.2771 32.8489 82.2125 32.8489V32.4489V32.0489C81.1972 32.0489 80.3043 32.2064 79.5458 32.5367L79.7054 32.9034ZM82.2125 32.4489V32.8489C82.8769 32.8489 83.4814 32.928 84.0286 33.0824L84.1373 32.6974L84.2459 32.3125C83.6189 32.1355 82.9402 32.0489 82.2125 32.0489V32.4489ZM84.1373 32.6974L84.0315 33.0832C84.579 33.2333 85.046 33.4513 85.4382 33.7327L85.6714 33.4077L85.9045 33.0827C85.4255 32.739 84.8698 32.4835 84.243 32.3117L84.1373 32.6974ZM85.6714 33.4077L85.4405 33.7344C85.8272 34.0075 86.12 34.3391 86.3259 34.7303L86.6799 34.544L87.0338 34.3577C86.7662 33.8493 86.3867 33.4233 85.9022 33.081L85.6714 33.4077ZM86.6799 34.544L86.3275 34.7332C86.5338 35.1176 86.6421 35.5648 86.6421 36.0852H87.0421H87.4421C87.4421 35.4503 87.3089 34.8701 87.0323 34.3548L86.6799 34.544ZM87.0421 36.0852H86.6421V43.5H87.0421H87.4421V36.0852H87.0421ZM87.0421 43.5V43.1H83.775V43.5V43.9H87.0421V43.5ZM83.775 43.5H84.175V41.9801H83.775H83.375V43.5H83.775ZM83.775 41.9801V41.5801H83.6898V41.9801V42.3801H83.775V41.9801ZM83.6898 41.9801L83.3358 41.794C83.1644 42.1201 82.9477 42.3912 82.6861 42.6119L82.9441 42.9176L83.202 43.2233C83.5466 42.9326 83.827 42.5788 84.0439 42.1662L83.6898 41.9801ZM82.9441 42.9176L82.6838 42.6139C82.43 42.8314 82.1261 42.9982 81.766 43.1113L81.8858 43.4929L82.0057 43.8745C82.46 43.7319 82.8616 43.5152 83.2044 43.2213L82.9441 42.9176ZM81.8858 43.4929L81.7647 43.1117C81.4084 43.2249 80.9957 43.2847 80.5222 43.2847V43.6847V44.0847C81.062 44.0847 81.5584 44.0166 82.0069 43.8741L81.8858 43.4929ZM81.5946 41.4119V41.8119C82.0241 41.8119 82.4236 41.7245 82.7843 41.5413L82.6032 41.1847L82.422 40.828C82.1862 40.9478 81.9133 41.0119 81.5946 41.0119V41.4119ZM82.6032 41.1847L82.7821 41.5424C83.1427 41.3621 83.438 41.1094 83.6586 40.7843L83.3276 40.5597L82.9966 40.3351C82.8574 40.5403 82.6697 40.7042 82.4243 40.8269L82.6032 41.1847ZM83.3276 40.5597L83.6604 40.7815C83.8883 40.4397 83.9975 40.0484 83.9975 39.6222H83.5975H83.1975C83.1975 39.9061 83.1268 40.1398 82.9948 40.3378L83.3276 40.5597ZM83.5975 39.6222H83.9975V38.5852H83.5975H83.1975V39.6222H83.5975ZM83.5975 38.5852L83.4119 38.2309C83.3409 38.2681 83.2452 38.3067 83.1203 38.3441L83.2353 38.7273L83.3502 39.1104C83.5094 39.0626 83.6552 39.0065 83.7831 38.9396L83.5975 38.5852ZM83.2353 38.7273L83.1167 38.3452C82.9907 38.3844 82.8491 38.4221 82.6916 38.4581L82.7807 38.848L82.8699 39.238C83.0438 39.1982 83.2053 39.1554 83.3538 39.1093L83.2353 38.7273ZM82.7807 38.848L82.6916 38.4581C82.5345 38.494 82.3725 38.5255 82.2053 38.5526L82.2694 38.9474L82.3334 39.3423C82.5166 39.3126 82.6955 39.2778 82.8699 39.238L82.7807 38.848ZM82.2694 38.9474L82.2053 38.5526C82.0319 38.5807 81.8658 38.6065 81.7069 38.6298L81.7651 39.0256L81.8233 39.4213C81.9864 39.3973 82.1564 39.371 82.3334 39.3423L82.2694 38.9474ZM81.7651 39.0256L81.7021 38.6306C81.3485 38.6869 81.0312 38.7763 80.7571 38.905L80.927 39.267L81.097 39.6291C81.2869 39.54 81.5283 39.4684 81.8281 39.4206L81.7651 39.0256ZM80.927 39.267L80.7542 38.9063C80.4761 39.0396 80.2432 39.2227 80.0742 39.4632L80.4015 39.6932L80.7287 39.9232C80.806 39.8133 80.9234 39.7123 81.0999 39.6278L80.927 39.267ZM80.4015 39.6932L80.0729 39.465C79.9017 39.7116 79.8239 39.9976 79.8239 40.304H80.2239H80.6239C80.6239 40.1369 80.6645 40.0157 80.73 39.9213L80.4015 39.6932ZM80.2239 40.304H79.8239C79.8239 40.7715 79.9974 41.1738 80.3693 41.4493L80.6074 41.1278L80.8455 40.8064C80.7061 40.7031 80.6239 40.5561 80.6239 40.304H80.2239ZM80.6074 41.1278L80.3722 41.4513C80.7156 41.7011 81.1326 41.8119 81.5946 41.8119V41.4119V41.0119C81.2613 41.0119 81.0201 40.9333 80.8427 40.8043L80.6074 41.1278ZM89.1657 43.5H88.7657V43.9H89.1657V43.5ZM89.1657 32.5909V32.1909H88.7657V32.5909H89.1657ZM92.5393 32.5909H92.9393V32.1909H92.5393V32.5909ZM92.5393 34.5795H92.1393V34.9795H92.5393V34.5795ZM92.6529 34.5795V34.9795H92.9574L93.0384 34.6861L92.6529 34.5795ZM93.6259 32.9744L93.8717 33.29L93.8738 33.2884L93.6259 32.9744ZM95.6927 32.4773L95.6376 32.8736L95.6485 32.8748L95.6927 32.4773ZM96.1685 32.5696H96.5685V32.2692L96.28 32.1855L96.1685 32.5696ZM96.1685 35.5881L96.0388 35.9664L96.5685 36.1481V35.5881H96.1685ZM95.5151 35.4531L95.4655 35.85L95.4663 35.8501L95.5151 35.4531ZM93.6898 35.6804L93.8828 36.0308L93.8845 36.0298L93.6898 35.6804ZM92.9157 36.4403L92.5696 36.2397L92.5687 36.2413L92.9157 36.4403ZM92.6387 43.5V43.9H93.0387V43.5H92.6387ZM89.1657 43.5H89.5657V32.5909H89.1657H88.7657V43.5H89.1657ZM89.1657 32.5909V32.9909H92.5393V32.5909V32.1909H89.1657V32.5909ZM92.5393 32.5909H92.1393V34.5795H92.5393H92.9393V32.5909H92.5393ZM92.5393 34.5795V34.9795H92.6529V34.5795V34.1795H92.5393V34.5795ZM92.6529 34.5795L93.0384 34.6861C93.2215 34.0237 93.5081 33.5732 93.8717 33.29L93.6259 32.9744L93.3801 32.6589C92.8441 33.0764 92.482 33.696 92.2673 34.473L92.6529 34.5795ZM93.6259 32.9744L93.8738 33.2884C94.2499 32.9914 94.6849 32.8418 95.1955 32.8418V32.4418V32.0418C94.5129 32.0418 93.9015 32.2472 93.378 32.6605L93.6259 32.9744ZM95.1955 32.4418V32.8418C95.3369 32.8418 95.4842 32.8522 95.6376 32.8735L95.6927 32.4773L95.7477 32.0811C95.5602 32.055 95.3761 32.0418 95.1955 32.0418V32.4418ZM95.6927 32.4773L95.6485 32.8748C95.7989 32.8915 95.9347 32.9182 96.057 32.9537L96.1685 32.5696L96.28 32.1855C96.1088 32.1357 95.9274 32.1009 95.7368 32.0797L95.6927 32.4773ZM96.1685 32.5696H95.7685V35.5881H96.1685H96.5685V32.5696H96.1685ZM96.1685 35.5881L96.2982 35.2097C96.096 35.1404 95.848 35.091 95.5639 35.0561L95.5151 35.4531L95.4663 35.8501C95.722 35.8815 95.9096 35.9221 96.0388 35.9664L96.1685 35.5881ZM95.5151 35.4531L95.5647 35.0562C95.2874 35.0216 95.0337 35.0034 94.8049 35.0034V35.4034V35.8034C94.9928 35.8034 95.2125 35.8184 95.4655 35.85L95.5151 35.4531ZM94.8049 35.4034V35.0034C94.3308 35.0034 93.8911 35.1103 93.4951 35.331L93.6898 35.6804L93.8845 36.0298C94.1514 35.8811 94.4551 35.8034 94.8049 35.8034V35.4034ZM93.6898 35.6804L93.4969 35.33C93.1056 35.5455 92.795 35.8509 92.5696 36.2397L92.9157 36.4403L93.2617 36.641C93.4151 36.3763 93.6206 36.1752 93.8828 36.0308L93.6898 35.6804ZM92.9157 36.4403L92.5687 36.2413C92.3437 36.6337 92.2387 37.0835 92.2387 37.5767H92.6387H93.0387C93.0387 37.1987 93.1183 36.891 93.2627 36.6393L92.9157 36.4403ZM92.6387 37.5767H92.2387V43.5H92.6387H93.0387V37.5767H92.6387ZM92.6387 43.5V43.1H89.1657V43.5V43.9H92.6387V43.5ZM98.807 43.0312L98.593 43.3692L98.593 43.3692L98.807 43.0312ZM97.2303 41.1562L96.8685 41.3269L96.8685 41.3269L97.2303 41.1562ZM97.2516 34.8849L97.6106 35.0614L97.6106 35.0614L97.2516 34.8849ZM98.8496 33.0455L98.6438 32.7025L98.6427 32.7031L98.8496 33.0455ZM102.458 32.7472L102.282 33.1066L102.285 33.1082L102.458 32.7472ZM103.466 33.5L103.769 33.2389L103.769 33.2389L103.466 33.5ZM104.07 34.4588L103.7 34.6119L103.803 34.8588H104.07V34.4588ZM104.141 34.4588V34.8588H104.541V34.4588H104.141ZM104.141 28.9545V28.5545H103.741V28.9545H104.141ZM107.614 28.9545H108.014V28.5545H107.614V28.9545ZM107.614 43.5V43.9H108.014V43.5H107.614ZM104.176 43.5H103.776V43.9H104.176V43.5ZM104.176 41.7315H104.576V41.3315H104.176V41.7315ZM104.07 41.7315V41.3315H103.808L103.703 41.5715L104.07 41.7315ZM103.445 42.6761L103.15 42.4054L103.15 42.4054L103.445 42.6761ZM102.429 43.3864L102.267 43.0205L102.266 43.0212L102.429 43.3864ZM103.289 40.5952L103.537 40.9085L103.54 40.9061L103.289 40.5952ZM103.977 39.5795L104.353 39.7182L104.353 39.7182L103.977 39.5795ZM103.977 36.5043L103.601 36.6406L103.603 36.6443L103.977 36.5043ZM103.289 35.5099L103.043 35.8257L103.045 35.8275L103.289 35.5099ZM101.115 35.517L101.364 35.8304L101.115 35.517ZM100.433 36.5185L100.057 36.3821L100.056 36.3858L100.433 36.5185ZM101.115 40.5952L100.861 40.9041L100.867 40.9085L101.115 40.5952ZM101.002 43.6562V43.2562C100.27 43.2562 99.6129 43.068 99.021 42.6933L98.807 43.0312L98.593 43.3692C99.3174 43.8278 100.124 44.0563 101.002 44.0563V43.6562ZM98.807 43.0312L99.021 42.6933C98.4379 42.3242 97.9587 41.763 97.5921 40.9856L97.2303 41.1562L96.8685 41.3269C97.2879 42.2161 97.8598 42.905 98.593 43.3692L98.807 43.0312ZM97.2303 41.1562L97.5921 40.9856C97.2313 40.2206 97.0408 39.2485 97.0408 38.0526H96.6408H96.2408C96.2408 39.3282 96.4433 40.4252 96.8685 41.3269L97.2303 41.1562ZM96.6408 38.0526H97.0408C97.0408 36.8081 97.2388 35.818 97.6106 35.0614L97.2516 34.8849L96.8926 34.7085C96.45 35.6091 96.2408 36.7307 96.2408 38.0526H96.6408ZM97.2516 34.8849L97.6106 35.0614C97.9909 34.2876 98.476 33.7386 99.0565 33.3878L98.8496 33.0455L98.6427 32.7031C97.9069 33.1478 97.3267 33.8251 96.8926 34.7085L97.2516 34.8849ZM98.8496 33.0455L99.0554 33.3885C99.6571 33.0275 100.299 32.8489 100.987 32.8489V32.4489V32.0489C100.152 32.0489 99.3679 32.268 98.6438 32.7025L98.8496 33.0455ZM100.987 32.4489V32.8489C101.515 32.8489 101.942 32.9405 102.282 33.1066L102.458 32.7472L102.633 32.3877C102.159 32.1561 101.606 32.0489 100.987 32.0489V32.4489ZM102.458 32.7472L102.285 33.1082C102.648 33.2811 102.938 33.4998 103.163 33.7611L103.466 33.5L103.769 33.2389C103.464 32.8847 103.081 32.6015 102.63 32.3861L102.458 32.7472ZM103.466 33.5L103.163 33.7611C103.404 34.0408 103.581 34.3246 103.7 34.6119L104.07 34.4588L104.439 34.3057C104.284 33.9301 104.058 33.5747 103.769 33.2389L103.466 33.5ZM104.07 34.4588V34.8588H104.141V34.4588V34.0588H104.07V34.4588ZM104.141 34.4588H104.541V28.9545H104.141H103.741V34.4588H104.141ZM104.141 28.9545V29.3545H107.614V28.9545V28.5545H104.141V28.9545ZM107.614 28.9545H107.214V43.5H107.614H108.014V28.9545H107.614ZM107.614 43.5V43.1H104.176V43.5V43.9H107.614V43.5ZM104.176 43.5H104.576V41.7315H104.176H103.776V43.5H104.176ZM104.176 41.7315V41.3315H104.07V41.7315V42.1315H104.176V41.7315ZM104.07 41.7315L103.703 41.5715C103.576 41.8636 103.393 42.1417 103.15 42.4054L103.445 42.6761L103.739 42.9469C104.037 42.6235 104.27 42.2718 104.436 41.8916L104.07 41.7315ZM103.445 42.6761L103.15 42.4054C102.922 42.654 102.63 42.8602 102.268 43.0205L102.429 43.3864L102.591 43.7522C103.042 43.5527 103.428 43.2854 103.739 42.9469L103.445 42.6761ZM102.429 43.3864L102.266 43.0212C101.926 43.1732 101.508 43.2562 101.002 43.2562V43.6562V44.0563C101.594 44.0563 102.128 43.9593 102.592 43.7515L102.429 43.3864ZM102.209 40.9503V41.3503C102.71 41.3503 103.161 41.2074 103.537 40.9085L103.289 40.5952L103.04 40.2819C102.82 40.4564 102.55 40.5503 102.209 40.5503V40.9503ZM103.289 40.5952L103.54 40.9061C103.905 40.6107 104.172 40.2071 104.353 39.7182L103.977 39.5795L103.602 39.4409C103.461 39.8232 103.269 40.0967 103.037 40.2843L103.289 40.5952ZM103.977 39.5795L104.353 39.7182C104.534 39.2282 104.619 38.6679 104.619 38.0455H104.219H103.819C103.819 38.5972 103.743 39.0597 103.602 39.4409L103.977 39.5795ZM104.219 38.0455H104.619C104.619 37.4145 104.534 36.851 104.352 36.3643L103.977 36.5043L103.603 36.6443C103.743 37.0193 103.819 37.4832 103.819 38.0455H104.219ZM103.977 36.5043L104.353 36.3679C104.176 35.8797 103.907 35.4794 103.532 35.1923L103.289 35.5099L103.045 35.8275C103.276 36.0045 103.466 36.267 103.601 36.6406L103.977 36.5043ZM103.289 35.5099L103.534 35.1942C103.158 34.9013 102.709 34.7619 102.209 34.7619V35.1619V35.5619C102.552 35.5619 102.823 35.6546 103.043 35.8257L103.289 35.5099ZM102.209 35.1619V34.7619C101.7 34.7619 101.245 34.9035 100.867 35.2037L101.115 35.517L101.364 35.8304C101.582 35.6571 101.856 35.5619 102.209 35.5619V35.1619ZM101.115 35.517L100.867 35.2037C100.499 35.4951 100.234 35.8958 100.057 36.3821L100.433 36.5185L100.809 36.6548C100.946 36.2793 101.134 36.0125 101.364 35.8304L101.115 35.517ZM100.433 36.5185L100.056 36.3858C99.886 36.8695 99.8062 37.4254 99.8062 38.0455H100.206H100.606C100.606 37.4913 100.678 37.0292 100.811 36.6512L100.433 36.5185ZM100.206 38.0455H99.8062C99.8062 38.6668 99.8887 39.2258 100.064 39.7146L100.441 39.5795L100.817 39.4445C100.68 39.0621 100.606 38.5983 100.606 38.0455H100.206ZM100.441 39.5795L100.064 39.7146C100.239 40.2034 100.501 40.6077 100.861 40.9041L101.115 40.5952L101.369 40.2863C101.143 40.0997 100.954 39.8269 100.817 39.4445L100.441 39.5795ZM101.115 40.5952L100.867 40.9085C101.245 41.2087 101.7 41.3503 102.209 41.3503V40.9503V40.5503C101.856 40.5503 101.582 40.4552 101.364 40.2819L101.115 40.5952ZM109.81 43.5H109.41V43.9H109.81V43.5ZM109.81 32.5909V32.1909H109.41V32.5909H109.81ZM113.283 32.5909H113.683V32.1909H113.283V32.5909ZM113.283 43.5V43.9H113.683V43.5H113.283ZM110.293 30.8366L110.02 31.1292L110.023 31.1312L110.293 30.8366ZM110.293 28.4929L110.564 28.7874L110.566 28.7855L110.293 28.4929ZM112.807 28.4929L112.533 28.7836L112.537 28.7874L112.807 28.4929ZM112.807 30.8366L113.08 31.1293L113.08 31.1292L112.807 30.8366ZM109.81 43.5H110.21V32.5909H109.81H109.41V43.5H109.81ZM109.81 32.5909V32.9909H113.283V32.5909V32.1909H109.81V32.5909ZM113.283 32.5909H112.883V43.5H113.283H113.683V32.5909H113.283ZM113.283 43.5V43.1H109.81V43.5V43.9H113.283V43.5ZM111.55 31.3196V30.9196C111.16 30.9196 110.838 30.7944 110.564 30.5421L110.293 30.8366L110.023 31.1312C110.449 31.5228 110.965 31.7196 111.55 31.7196V31.3196ZM110.293 30.8366L110.566 30.5441C110.293 30.2894 110.168 30.0007 110.168 29.6577H109.768H109.368C109.368 30.2332 109.593 30.7305 110.02 31.1292L110.293 30.8366ZM109.768 29.6577H110.168C110.168 29.3209 110.292 29.0377 110.564 28.7874L110.293 28.4929L110.023 28.1984C109.594 28.5921 109.368 29.0854 109.368 29.6577H109.768ZM110.293 28.4929L110.566 28.7855C110.841 28.5292 111.162 28.4028 111.55 28.4028V28.0028V27.6028C110.963 27.6028 110.446 27.8032 110.02 28.2003L110.293 28.4929ZM111.55 28.0028V28.4028C111.944 28.4028 112.264 28.5298 112.533 28.7836L112.807 28.4929L113.082 28.2022C112.659 27.8026 112.141 27.6028 111.55 27.6028V28.0028ZM112.807 28.4929L112.537 28.7874C112.809 29.0377 112.933 29.3209 112.933 29.6577H113.333H113.733C113.733 29.0854 113.506 28.5921 113.078 28.1984L112.807 28.4929ZM113.333 29.6577H112.933C112.933 30.0007 112.808 30.2894 112.535 30.5441L112.807 30.8366L113.08 31.1292C113.508 30.7305 113.733 30.2332 113.733 29.6577H113.333ZM112.807 30.8366L112.535 30.544C112.267 30.7938 111.946 30.9196 111.55 30.9196V31.3196V31.7196C112.139 31.7196 112.657 31.5234 113.08 31.1293L112.807 30.8366ZM118.967 37.2784L118.567 37.2739V37.2784H118.967ZM118.967 43.5V43.9H119.367V43.5H118.967ZM115.494 43.5H115.094V43.9H115.494V43.5ZM115.494 32.5909V32.1909H115.094V32.5909H115.494ZM118.796 32.5909H119.196V32.1909H118.796V32.5909ZM118.796 34.5938H118.396V34.9938H118.796V34.5938ZM118.917 34.5938V34.9938H119.198L119.293 34.7298L118.917 34.5938ZM120.153 33.0241L120.371 33.3595L120.373 33.3582L120.153 33.0241ZM124.23 32.9673L124.02 33.3083L124.024 33.3103L124.23 32.9673ZM125.551 34.402L125.194 34.5831L125.196 34.5864L125.551 34.402ZM126.019 36.5469L125.619 36.5446V36.5469H126.019ZM126.019 43.5V43.9H126.419V43.5H126.019ZM122.546 43.5H122.146V43.9H122.546V43.5ZM122.546 37.2287L122.146 37.2256V37.2287H122.546ZM122.085 35.8082L121.788 36.0763L121.79 36.0785L122.085 35.8082ZM119.833 35.5384L120.031 35.886L120.033 35.8849L119.833 35.5384ZM119.194 36.2131L118.839 36.0296L118.836 36.0342L119.194 36.2131ZM118.967 37.2784H118.567V43.5H118.967H119.367V37.2784H118.967ZM118.967 43.5V43.1H115.494V43.5V43.9H118.967V43.5ZM115.494 43.5H115.894V32.5909H115.494H115.094V43.5H115.494ZM115.494 32.5909V32.9909H118.796V32.5909V32.1909H115.494V32.5909ZM118.796 32.5909H118.396V34.5938H118.796H119.196V32.5909H118.796ZM118.796 34.5938V34.9938H118.917V34.5938V34.1937H118.796V34.5938ZM118.917 34.5938L119.293 34.7298C119.506 34.1421 119.863 33.6897 120.371 33.3595L120.153 33.0241L119.935 32.6888C119.278 33.1162 118.811 33.7102 118.541 34.4577L118.917 34.5938ZM120.153 33.0241L120.373 33.3582C120.88 33.024 121.495 32.8489 122.234 32.8489V32.4489V32.0489C121.363 32.0489 120.59 32.2572 119.933 32.6901L120.153 33.0241ZM122.234 32.4489V32.8489C122.939 32.8489 123.529 33.0071 124.02 33.3083L124.23 32.9673L124.439 32.6264C123.803 32.2363 123.063 32.0489 122.234 32.0489V32.4489ZM124.23 32.9673L124.024 33.3103C124.525 33.6109 124.914 34.0317 125.194 34.5831L125.551 34.402L125.907 34.2209C125.562 33.5412 125.071 33.0056 124.435 32.6243L124.23 32.9673ZM125.551 34.402L125.196 34.5864C125.478 35.1295 125.624 35.7781 125.619 36.5446L126.019 36.5469L126.419 36.5492C126.424 35.6774 126.258 34.8961 125.906 34.2176L125.551 34.402ZM126.019 36.5469H125.619V43.5H126.019H126.419V36.5469H126.019ZM126.019 43.5V43.1H122.546V43.5V43.9H126.019V43.5ZM122.546 43.5H122.946V37.2287H122.546H122.146V43.5H122.546ZM122.546 37.2287L122.946 37.2318C122.952 36.5569 122.78 35.9742 122.38 35.5379L122.085 35.8082L121.79 36.0785C122.015 36.3241 122.151 36.6884 122.146 37.2256L122.546 37.2287ZM122.085 35.8082L122.382 35.5402C121.983 35.0989 121.437 34.8969 120.799 34.8969V35.2969V35.6969C121.259 35.6969 121.571 35.8358 121.788 36.0763L122.085 35.8082ZM120.799 35.2969V34.8969C120.374 34.8969 119.981 34.9914 119.634 35.1918L119.833 35.5384L120.033 35.8849C120.244 35.7633 120.495 35.6969 120.799 35.6969V35.2969ZM119.833 35.5384L119.635 35.1907C119.29 35.387 119.024 35.6705 118.839 36.0296L119.194 36.2131L119.55 36.3965C119.667 36.1685 119.827 36.0022 120.031 35.886L119.833 35.5384ZM119.194 36.2131L118.836 36.0342C118.656 36.3945 118.572 36.8125 118.567 37.2739L118.967 37.2784L119.367 37.283C119.371 36.911 119.438 36.6188 119.552 36.392L119.194 36.2131ZM129.391 43.3366L129.229 43.7025L129.233 43.7041L129.391 43.3366ZM128.12 42.2713L127.783 42.4878L127.786 42.4916L128.12 42.2713ZM127.978 38.9403L127.622 38.7582L127.622 38.7582L127.978 38.9403ZM128.858 37.9247L129.087 38.253L129.087 38.253L128.858 37.9247ZM130.151 37.3352L130.256 37.7212L130.26 37.7203L130.151 37.3352ZM131.714 37.0582L131.748 37.4568L131.75 37.4566L131.714 37.0582ZM133.212 36.8807L133.276 37.2755L133.281 37.2747L133.212 36.8807ZM134.036 36.6037L134.264 36.9322L134.266 36.931L134.036 36.6037ZM133.922 35.2045L134.171 34.891L134.171 34.891L133.922 35.2045ZM131.799 35.2045L131.567 34.8787L131.567 34.8787L131.799 35.2045ZM131.266 36.0284L131.252 36.4282L131.586 36.44L131.657 36.1129L131.266 36.0284ZM128.063 35.9148L127.667 35.8582L127.604 36.2987L128.049 36.3145L128.063 35.9148ZM128.795 34.1392L128.476 33.8978L128.475 33.8983L128.795 34.1392ZM130.428 32.9034L130.587 33.2707L130.588 33.2702L130.428 32.9034ZM134.86 32.6974L134.751 33.0824L134.754 33.0832L134.86 32.6974ZM136.394 33.4077L136.161 33.7327L136.163 33.7344L136.394 33.4077ZM137.403 34.544L137.049 34.7303L137.05 34.7332L137.403 34.544ZM137.765 43.5V43.9H138.165V43.5H137.765ZM134.498 43.5H134.098V43.9H134.498V43.5ZM134.498 41.9801H134.898V41.5801H134.498V41.9801ZM134.412 41.9801V41.5801H134.171L134.058 41.794L134.412 41.9801ZM133.667 42.9176L133.409 42.6119L133.406 42.6139L133.667 42.9176ZM132.608 43.4929L132.489 43.1113L132.487 43.1117L132.608 43.4929ZM133.326 41.1847L133.147 40.8269L133.145 40.828L133.326 41.1847ZM134.05 40.5597L134.381 40.7843L134.383 40.7815L134.05 40.5597ZM134.32 38.5852H134.72V37.9241L134.135 38.2309L134.32 38.5852ZM133.958 38.7273L133.843 38.3441L133.839 38.3452L133.958 38.7273ZM132.992 38.9474L133.056 39.3423L133.056 39.3423L132.992 38.9474ZM132.488 39.0256L132.43 38.6298L132.425 38.6306L132.488 39.0256ZM131.65 39.267L131.48 38.9049L131.477 38.9063L131.65 39.267ZM131.124 39.6932L130.797 39.4632L130.796 39.465L131.124 39.6932ZM131.33 41.1278L131.092 41.4493L131.095 41.4513L131.33 41.1278ZM131.245 43.6847V43.2847C130.593 43.2847 130.031 43.1761 129.549 42.9692L129.391 43.3366L129.233 43.7041C129.831 43.9612 130.504 44.0847 131.245 44.0847V43.6847ZM129.391 43.3366L129.553 42.9709C129.086 42.7641 128.723 42.4584 128.454 42.051L128.12 42.2713L127.786 42.4916C128.142 43.0312 128.627 43.4357 129.229 43.7024L129.391 43.3366ZM128.12 42.2713L128.456 42.0548C128.2 41.6563 128.058 41.1376 128.058 40.4744H127.658H127.258C127.258 41.2506 127.424 41.9298 127.783 42.4878L128.12 42.2713ZM127.658 40.4744H128.058C128.058 39.9136 128.157 39.4686 128.334 39.1225L127.978 38.9403L127.622 38.7582C127.373 39.2454 127.258 39.8231 127.258 40.4744H127.658ZM127.978 38.9403L128.334 39.1225C128.518 38.7626 128.768 38.4749 129.087 38.253L128.858 37.9247L128.63 37.5964C128.201 37.8954 127.864 38.2847 127.622 38.7582L127.978 38.9403ZM128.858 37.9247L129.087 38.253C129.42 38.0214 129.808 37.8431 130.256 37.7212L130.151 37.3352L130.046 36.9492C129.519 37.0925 129.045 37.3072 128.63 37.5964L128.858 37.9247ZM130.151 37.3352L130.26 37.7203C130.721 37.5904 131.216 37.5022 131.748 37.4568L131.714 37.0582L131.68 36.6597C131.103 36.709 130.557 36.8054 130.043 36.9502L130.151 37.3352ZM131.714 37.0582L131.75 37.4566C132.375 37.3994 132.885 37.3392 133.276 37.2755L133.212 36.8807L133.148 36.4859C132.782 36.5453 132.293 36.6035 131.677 36.6599L131.714 37.0582ZM133.212 36.8807L133.281 37.2747C133.676 37.2055 134.021 37.1011 134.264 36.9322L134.036 36.6037L133.808 36.2751C133.71 36.343 133.505 36.4233 133.143 36.4867L133.212 36.8807ZM134.036 36.6037L134.266 36.931C134.553 36.7295 134.699 36.432 134.699 36.0852H134.299H133.899C133.899 36.1836 133.87 36.2316 133.806 36.2764L134.036 36.6037ZM134.299 36.0852H134.699V36.0497H134.299H133.899V36.0852H134.299ZM134.299 36.0497H134.699C134.699 35.5821 134.532 35.1769 134.171 34.891L133.922 35.2045L133.674 35.518C133.815 35.6299 133.899 35.7881 133.899 36.0497H134.299ZM133.922 35.2045L134.171 34.891C133.829 34.6201 133.393 34.5062 132.907 34.5062V34.9062V35.3063C133.273 35.3063 133.514 35.3913 133.674 35.518L133.922 35.2045ZM132.907 34.9062V34.5062C132.392 34.5062 131.934 34.6176 131.567 34.8787L131.799 35.2045L132.031 35.5304C132.223 35.3937 132.503 35.3063 132.907 35.3063V34.9062ZM131.799 35.2045L131.567 34.8787C131.202 35.1382 130.971 35.5009 130.875 35.9439L131.266 36.0284L131.657 36.1129C131.713 35.8552 131.837 35.6686 132.031 35.5304L131.799 35.2045ZM131.266 36.0284L131.28 35.6287L128.077 35.515L128.063 35.9148L128.049 36.3145L131.252 36.4282L131.266 36.0284ZM128.063 35.9148L128.459 35.9713C128.544 35.3736 128.763 34.8455 129.114 34.3801L128.795 34.1392L128.475 33.8983C128.04 34.4746 127.771 35.1302 127.667 35.8582L128.063 35.9148ZM128.795 34.1392L129.114 34.3806C129.464 33.9176 129.95 33.5455 130.587 33.2707L130.428 32.9034L130.27 32.5361C129.524 32.8579 128.921 33.3097 128.476 33.8978L128.795 34.1392ZM130.428 32.9034L130.588 33.2702C131.221 32.9944 132 32.8489 132.935 32.8489V32.4489V32.0489C131.92 32.0489 131.027 32.2064 130.268 32.5367L130.428 32.9034ZM132.935 32.4489V32.8489C133.6 32.8489 134.204 32.928 134.751 33.0824L134.86 32.6974L134.969 32.3125C134.342 32.1355 133.663 32.0489 132.935 32.0489V32.4489ZM134.86 32.6974L134.754 33.0832C135.302 33.2333 135.769 33.4513 136.161 33.7327L136.394 33.4077L136.627 33.0827C136.148 32.739 135.592 32.4835 134.966 32.3117L134.86 32.6974ZM136.394 33.4077L136.163 33.7344C136.55 34.0075 136.843 34.3391 137.049 34.7303L137.403 34.544L137.757 34.3577C137.489 33.8493 137.109 33.4233 136.625 33.081L136.394 33.4077ZM137.403 34.544L137.05 34.7332C137.256 35.1176 137.365 35.5648 137.365 36.0852H137.765H138.165C138.165 35.4503 138.032 34.8701 137.755 34.3548L137.403 34.544ZM137.765 36.0852H137.365V43.5H137.765H138.165V36.0852H137.765ZM137.765 43.5V43.1H134.498V43.5V43.9H137.765V43.5ZM134.498 43.5H134.898V41.9801H134.498H134.098V43.5H134.498ZM134.498 41.9801V41.5801H134.412V41.9801V42.3801H134.498V41.9801ZM134.412 41.9801L134.058 41.794C133.887 42.1201 133.67 42.3912 133.409 42.6119L133.667 42.9176L133.925 43.2233C134.269 42.9326 134.55 42.5788 134.767 42.1662L134.412 41.9801ZM133.667 42.9176L133.406 42.6139C133.153 42.8314 132.849 42.9982 132.489 43.1113L132.608 43.4929L132.728 43.8745C133.183 43.7319 133.584 43.5152 133.927 43.2213L133.667 42.9176ZM132.608 43.4929L132.487 43.1117C132.131 43.2249 131.718 43.2847 131.245 43.2847V43.6847V44.0847C131.785 44.0847 132.281 44.0166 132.73 43.8741L132.608 43.4929ZM132.317 41.4119V41.8119C132.747 41.8119 133.146 41.7245 133.507 41.5413L133.326 41.1847L133.145 40.828C132.909 40.9478 132.636 41.0119 132.317 41.0119V41.4119ZM133.326 41.1847L133.505 41.5424C133.865 41.3621 134.161 41.1094 134.381 40.7843L134.05 40.5597L133.719 40.3351C133.58 40.5403 133.392 40.7042 133.147 40.8269L133.326 41.1847ZM134.05 40.5597L134.383 40.7815C134.611 40.4397 134.72 40.0484 134.72 39.6222H134.32H133.92C133.92 39.9061 133.849 40.1398 133.717 40.3378L134.05 40.5597ZM134.32 39.6222H134.72V38.5852H134.32H133.92V39.6222H134.32ZM134.32 38.5852L134.135 38.2309C134.064 38.2681 133.968 38.3067 133.843 38.3441L133.958 38.7273L134.073 39.1104C134.232 39.0626 134.378 39.0065 134.506 38.9396L134.32 38.5852ZM133.958 38.7273L133.839 38.3452C133.713 38.3844 133.572 38.4221 133.414 38.4581L133.503 38.848L133.593 39.238C133.766 39.1982 133.928 39.1554 134.076 39.1093L133.958 38.7273ZM133.503 38.848L133.414 38.4581C133.257 38.494 133.095 38.5255 132.928 38.5526L132.992 38.9474L133.056 39.3423C133.239 39.3126 133.418 39.2778 133.593 39.238L133.503 38.848ZM132.992 38.9474L132.928 38.5526C132.755 38.5807 132.588 38.6065 132.43 38.6298L132.488 39.0256L132.546 39.4213C132.709 39.3973 132.879 39.371 133.056 39.3423L132.992 38.9474ZM132.488 39.0256L132.425 38.6306C132.071 38.6869 131.754 38.7763 131.48 38.905L131.65 39.267L131.82 39.6291C132.01 39.54 132.251 39.4684 132.551 39.4206L132.488 39.0256ZM131.65 39.267L131.477 38.9063C131.199 39.0396 130.966 39.2227 130.797 39.4632L131.124 39.6932L131.451 39.9232C131.529 39.8133 131.646 39.7123 131.823 39.6278L131.65 39.267ZM131.124 39.6932L130.796 39.465C130.624 39.7116 130.547 39.9976 130.547 40.304H130.947H131.347C131.347 40.1369 131.387 40.0157 131.453 39.9213L131.124 39.6932ZM130.947 40.304H130.547C130.547 40.7715 130.72 41.1738 131.092 41.4493L131.33 41.1278L131.568 40.8064C131.429 40.7031 131.347 40.5561 131.347 40.304H130.947ZM131.33 41.1278L131.095 41.4513C131.438 41.7011 131.855 41.8119 132.317 41.8119V41.4119V41.0119C131.984 41.0119 131.743 40.9333 131.565 40.8043L131.33 41.1278ZM142.31 47.3849L142.165 47.7575L142.165 47.7575L142.31 47.3849ZM140.57 46.1989L140.264 46.4561L140.264 46.4561L140.57 46.1989ZM139.81 44.4943L139.788 44.0949L139.356 44.1192L139.414 44.5476L139.81 44.4943ZM143.099 44.3097L143.484 44.203L143.398 43.8922L143.076 43.9103L143.099 44.3097ZM143.439 44.892L143.157 45.1749L143.161 45.1788L143.439 44.892ZM144.1 45.2756L143.973 45.655L143.975 45.6557L144.1 45.2756ZM146.508 44.9844L146.272 44.661L146.268 44.6644L146.508 44.9844ZM147.083 41.5966H147.483V41.1966H147.083V41.5966ZM146.962 41.5966V41.1966H146.693L146.592 41.4453L146.962 41.5966ZM146.337 42.4986L146.613 42.7887L146.613 42.7887L146.337 42.4986ZM145.293 43.1236L145.156 42.7477L145.155 42.7482L145.293 43.1236ZM141.685 42.7969L141.488 43.1446L141.491 43.1463L141.685 42.7969ZM140.101 41.0639L139.744 41.2428L139.745 41.2454L140.101 41.0639ZM140.123 34.8849L140.481 35.0622L140.482 35.0614L140.123 34.8849ZM141.721 33.0455L141.515 32.7025L141.514 32.7031L141.721 33.0455ZM145.329 32.7472L145.153 33.1066L145.158 33.109L145.329 32.7472ZM146.344 33.5L146.041 33.7611L146.041 33.7611L146.344 33.5ZM146.948 34.4588L146.578 34.6119L146.681 34.8588H146.948V34.4588ZM147.047 34.4588V34.8588H147.447V34.4588H147.047ZM147.047 32.5909V32.1909H146.647V32.5909H147.047ZM150.506 32.5909H150.906V32.1909H150.506V32.5909ZM147.864 47.321L147.718 46.9486L147.716 46.9493L147.864 47.321ZM146.849 39.5298L147.222 39.674L147.222 39.674L146.849 39.5298ZM146.849 36.5043L146.472 36.6406L146.474 36.6456L146.849 36.5043ZM146.16 35.5099L145.914 35.8257L145.916 35.8275L146.16 35.5099ZM143.986 35.517L144.235 35.8304L143.986 35.517ZM143.305 36.5185L142.928 36.3821L142.928 36.3845L143.305 36.5185ZM143.986 40.4886L143.745 40.8074L143.747 40.8092L143.986 40.4886ZM144.974 47.8182V47.4182C143.972 47.4182 143.136 47.2785 142.456 47.0124L142.31 47.3849L142.165 47.7575C142.961 48.0691 143.901 48.2182 144.974 48.2182V47.8182ZM142.31 47.3849L142.456 47.0124C141.767 46.7429 141.247 46.3825 140.876 45.9417L140.57 46.1989L140.264 46.4561C140.736 47.019 141.377 47.4494 142.165 47.7575L142.31 47.3849ZM140.57 46.1989L140.876 45.9417C140.503 45.4964 140.282 44.9985 140.207 44.4411L139.81 44.4943L139.414 44.5476C139.509 45.2591 139.795 45.8976 140.264 46.4561L140.57 46.1989ZM139.81 44.4943L139.833 44.8937L143.121 44.709L143.099 44.3097L143.076 43.9103L139.788 44.0949L139.81 44.4943ZM143.099 44.3097L142.713 44.4163C142.793 44.7065 142.943 44.9611 143.157 45.1749L143.439 44.892L143.722 44.6092C143.605 44.4916 143.527 44.3579 143.484 44.203L143.099 44.3097ZM143.439 44.892L143.161 45.1788C143.382 45.394 143.658 45.5497 143.973 45.655L144.1 45.2756L144.226 44.8961C144.003 44.8215 143.838 44.7216 143.718 44.6052L143.439 44.892ZM144.1 45.2756L143.975 45.6557C144.3 45.7619 144.665 45.8105 145.066 45.8105V45.4105V45.0105C144.728 45.0105 144.45 44.9692 144.224 44.8954L144.1 45.2756ZM145.066 45.4105V45.8105C145.715 45.8105 146.285 45.6514 146.748 45.3044L146.508 44.9844L146.268 44.6644C145.973 44.8855 145.582 45.0105 145.066 45.0105V45.4105ZM146.508 44.9844L146.743 45.3077C147.273 44.922 147.483 44.2789 147.483 43.5142H147.083H146.683C146.683 44.151 146.51 44.488 146.272 44.6611L146.508 44.9844ZM147.083 43.5142H147.483V41.5966H147.083H146.683V43.5142H147.083ZM147.083 41.5966V41.1966H146.962V41.5966V41.9966H147.083V41.5966ZM146.962 41.5966L146.592 41.4453C146.477 41.7259 146.303 41.9799 146.062 42.2085L146.337 42.4986L146.613 42.7887C146.931 42.4869 147.172 42.1397 147.332 41.7478L146.962 41.5966ZM146.337 42.4986L146.062 42.2085C145.828 42.4305 145.529 42.6121 145.156 42.7477L145.293 43.1236L145.43 43.4995C145.89 43.332 146.288 43.097 146.613 42.7887L146.337 42.4986ZM145.293 43.1236L145.155 42.7482C144.796 42.8803 144.371 42.9509 143.873 42.9509V43.3509V43.7509C144.445 43.7509 144.967 43.6699 145.431 43.499L145.293 43.1236ZM143.873 43.3509V42.9509C143.142 42.9509 142.48 42.782 141.88 42.4474L141.685 42.7969L141.491 43.1463C142.216 43.5504 143.013 43.7509 143.873 43.7509V43.3509ZM141.685 42.7969L141.883 42.4491C141.303 42.1196 140.826 41.6052 140.458 40.8824L140.101 41.0639L139.745 41.2454C140.172 42.0851 140.751 42.7261 141.488 43.1446L141.685 42.7969ZM140.101 41.0639L140.459 40.885C140.103 40.1725 139.912 39.2286 139.912 38.0312H139.512H139.112C139.112 39.3055 139.314 40.3834 139.744 41.2428L140.101 41.0639ZM139.512 38.0312H139.912C139.912 36.7967 140.11 35.8139 140.481 35.0622L140.123 34.8849L139.764 34.7077C139.321 35.6037 139.112 36.7185 139.112 38.0312H139.512ZM140.123 34.8849L140.482 35.0614C140.862 34.2876 141.347 33.7386 141.928 33.3878L141.721 33.0455L141.514 32.7031C140.778 33.1478 140.198 33.8251 139.764 34.7085L140.123 34.8849ZM141.721 33.0455L141.927 33.3885C142.528 33.0275 143.17 32.8489 143.858 32.8489V32.4489V32.0489C143.023 32.0489 142.239 32.268 141.515 32.7025L141.721 33.0455ZM143.858 32.4489V32.8489C144.386 32.8489 144.813 32.9405 145.153 33.1066L145.329 32.7472L145.504 32.3877C145.03 32.1561 144.477 32.0489 143.858 32.0489V32.4489ZM145.329 32.7472L145.158 33.109C145.525 33.2821 145.817 33.5007 146.041 33.7611L146.344 33.5L146.647 33.2389C146.341 32.8838 145.956 32.6005 145.499 32.3853L145.329 32.7472ZM146.344 33.5L146.041 33.7611C146.282 34.0408 146.459 34.3246 146.578 34.6119L146.948 34.4588L147.318 34.3057C147.162 33.9301 146.937 33.5747 146.647 33.2389L146.344 33.5ZM146.948 34.4588V34.8588H147.047V34.4588V34.0588H146.948V34.4588ZM147.047 34.4588H147.447V32.5909H147.047H146.647V34.4588H147.047ZM147.047 32.5909V32.9909H150.506V32.5909V32.1909H147.047V32.5909ZM150.506 32.5909H150.106V43.5426H150.506H150.906V32.5909H150.506ZM150.506 43.5426H150.106C150.106 44.3963 149.893 45.0886 149.487 45.6431L149.81 45.8793L150.133 46.1154C150.656 45.401 150.906 44.5355 150.906 43.5426H150.506ZM149.81 45.8793L149.487 45.6431C149.074 46.2081 148.491 46.6457 147.718 46.9486L147.864 47.321L148.01 47.6934C148.904 47.343 149.618 46.8193 150.133 46.1154L149.81 45.8793ZM147.864 47.321L147.716 46.9493C146.939 47.2585 146.027 47.4182 144.974 47.4182V47.8182V48.2182C146.107 48.2182 147.123 48.0465 148.012 47.6927L147.864 47.321ZM145.08 40.8224V41.2224C145.576 41.2224 146.022 41.09 146.399 40.8092L146.16 40.4886L145.92 40.168C145.7 40.3323 145.427 40.4224 145.08 40.4224V40.8224ZM146.16 40.4886L146.399 40.8092C146.769 40.5334 147.039 40.1467 147.222 39.674L146.849 39.5298L146.475 39.3857C146.336 39.7463 146.147 39.9988 145.92 40.168L146.16 40.4886ZM146.849 39.5298L147.222 39.674C147.405 39.1997 147.49 38.6487 147.49 38.0312H147.09H146.69C146.69 38.5786 146.614 39.0266 146.475 39.3857L146.849 39.5298ZM147.09 38.0312H147.49C147.49 37.4048 147.405 36.8455 147.223 36.3629L146.849 36.5043L146.474 36.6456C146.614 37.0153 146.69 37.474 146.69 38.0312H147.09ZM146.849 36.5043L147.225 36.3679C147.048 35.8797 146.778 35.4794 146.403 35.1923L146.16 35.5099L145.916 35.8275C146.148 36.0045 146.337 36.267 146.473 36.6406L146.849 36.5043ZM146.16 35.5099L146.405 35.1942C146.029 34.9013 145.58 34.7619 145.08 34.7619V35.1619V35.5619C145.423 35.5619 145.694 35.6546 145.914 35.8257L146.16 35.5099ZM145.08 35.1619V34.7619C144.571 34.7619 144.116 34.9035 143.738 35.2037L143.986 35.517L144.235 35.8304C144.453 35.6571 144.727 35.5619 145.08 35.5619V35.1619ZM143.986 35.517L143.738 35.2037C143.371 35.4951 143.105 35.8958 142.928 36.3821L143.305 36.5185L143.681 36.6548C143.817 36.2793 144.006 36.0125 144.235 35.8304L143.986 35.517ZM143.305 36.5185L142.928 36.3845C142.757 36.864 142.677 37.4157 142.677 38.0312H143.077H143.477C143.477 37.482 143.549 37.0252 143.681 36.6525L143.305 36.5185ZM143.077 38.0312H142.677C142.677 38.6476 142.76 39.1972 142.937 39.6703L143.312 39.5298L143.686 39.3894C143.551 39.0291 143.477 38.5797 143.477 38.0312H143.077ZM143.312 39.5298L142.937 39.6703C143.114 40.1429 143.379 40.5305 143.745 40.8074L143.986 40.4886L144.228 40.1699C144.006 40.0017 143.821 39.7501 143.686 39.3894L143.312 39.5298ZM143.986 40.4886L143.747 40.8092C144.125 41.0912 144.577 41.2224 145.08 41.2224V40.8224V40.4224C144.721 40.4224 144.444 40.3312 144.226 40.168L143.986 40.4886ZM154.865 43.0312L154.672 43.3815L154.674 43.3828L154.865 43.0312ZM152.962 41.0923L152.607 41.2776L152.609 41.2799L152.962 41.0923ZM152.969 35.1335L153.323 35.3203L153.323 35.3195L152.969 35.1335ZM154.851 33.1591L155.051 33.5053L155.053 33.5044L154.851 33.1591ZM159.844 32.8111L159.984 32.4365L159.984 32.4365L159.844 32.8111ZM162.607 35.6378L162.232 35.778L162.232 35.7788L162.607 35.6378ZM162.997 38.8835V39.2835H163.397V38.8835H162.997ZM153.516 38.8835H153.116V39.2835H153.516V38.8835ZM153.516 36.8665V36.4665H153.116V36.8665H153.516ZM159.766 36.8665V37.2665H160.171L160.166 36.8613L159.766 36.8665ZM158.8 35.2045L158.603 35.5529L158.61 35.5566L158.8 35.2045ZM156.74 35.2188L156.934 35.5687L156.938 35.5664L156.74 35.2188ZM156.009 35.9219L156.35 36.1309L156.351 36.1285L156.009 35.9219ZM155.725 36.9233L155.325 36.9132V36.9233H155.725ZM155.987 40.1477L155.633 40.3326L155.634 40.3347L155.987 40.1477ZM156.733 40.9219L156.534 41.2689L156.534 41.2689L156.733 40.9219ZM158.722 41.071L158.85 41.4498L158.85 41.4498L158.722 41.071ZM159.368 40.6946L159.639 40.9888L159.639 40.9888L159.368 40.6946ZM159.773 40.0838L159.784 39.684L159.498 39.6757L159.398 39.9442L159.773 40.0838ZM162.962 40.1761L163.355 40.2491L163.44 39.7898L162.973 39.7763L162.962 40.1761ZM162.088 42.044L161.783 41.7853L161.783 41.7855L162.088 42.044ZM160.334 43.2727L160.482 43.6443L160.484 43.6434L160.334 43.2727ZM157.82 43.706V43.306C156.731 43.306 155.815 43.0917 155.056 42.6797L154.865 43.0312L154.674 43.3828C155.573 43.8704 156.626 44.106 157.82 44.106V43.706ZM154.865 43.0312L155.058 42.681C154.303 42.2643 153.724 41.6748 153.315 40.9047L152.962 41.0923L152.609 41.2799C153.09 42.186 153.78 42.8891 154.672 43.3815L154.865 43.0312ZM152.962 41.0923L153.316 40.9071C152.912 40.1327 152.701 39.1976 152.701 38.0881H152.301H151.901C151.901 39.2986 152.131 40.3663 152.607 41.2776L152.962 41.0923ZM152.301 38.0881H152.701C152.701 37.0144 152.913 36.0959 153.323 35.3203L152.969 35.1335L152.615 34.9467C152.135 35.8567 151.901 36.9079 151.901 38.0881H152.301ZM152.969 35.1335L153.323 35.3195C153.734 34.5372 154.309 33.9353 155.051 33.5053L154.851 33.1591L154.651 32.8129C153.774 33.3204 153.094 34.0348 152.615 34.9476L152.969 35.1335ZM154.851 33.1591L155.053 33.5044C155.792 33.0724 156.673 32.8489 157.713 32.8489V32.4489V32.0489C156.556 32.0489 155.53 32.2988 154.649 32.8138L154.851 33.1591ZM157.713 32.4489V32.8489C158.448 32.8489 159.11 32.963 159.703 33.1856L159.844 32.8111L159.984 32.4365C159.29 32.1762 158.532 32.0489 157.713 32.0489V32.4489ZM159.844 32.8111L159.703 33.1856C160.295 33.4075 160.802 33.7339 161.229 34.1649L161.513 33.8835L161.797 33.6021C161.287 33.0862 160.681 32.6976 159.984 32.4365L159.844 32.8111ZM161.513 33.8835L161.229 34.1649C161.653 34.5938 161.989 35.1287 162.232 35.778L162.607 35.6378L162.981 35.4976C162.703 34.7548 162.31 34.1202 161.797 33.6021L161.513 33.8835ZM162.607 35.6378L162.232 35.7788C162.473 36.4166 162.597 37.1604 162.597 38.017H162.997H163.397C163.397 37.0839 163.262 36.2415 162.981 35.4968L162.607 35.6378ZM162.997 38.017H162.597V38.8835H162.997H163.397V38.017H162.997ZM162.997 38.8835V38.4835H153.516V38.8835V39.2835H162.997V38.8835ZM153.516 38.8835H153.916V36.8665H153.516H153.116V38.8835H153.516ZM153.516 36.8665V37.2665H159.766V36.8665V36.4665H153.516V36.8665ZM159.766 36.8665L160.166 36.8613C160.16 36.4295 160.057 36.0308 159.848 35.676L159.503 35.8793L159.159 36.0826C159.29 36.3053 159.362 36.5648 159.366 36.8716L159.766 36.8665ZM159.503 35.8793L159.848 35.676C159.64 35.3237 159.352 35.0477 158.99 34.8525L158.8 35.2045L158.61 35.5566C158.845 35.6833 159.026 35.8571 159.159 36.0826L159.503 35.8793ZM158.8 35.2045L158.997 34.8562C158.635 34.6522 158.227 34.556 157.784 34.556V34.956V35.356C158.109 35.356 158.378 35.4255 158.603 35.5529L158.8 35.2045ZM157.784 34.956V34.556C157.334 34.556 156.916 34.6584 156.542 34.8711L156.74 35.2188L156.938 35.5664C157.18 35.4288 157.459 35.356 157.784 35.356V34.956ZM156.74 35.2188L156.546 34.8688C156.178 35.0729 155.883 35.3564 155.666 35.7153L156.009 35.9219L156.351 36.1285C156.495 35.8908 156.687 35.7055 156.934 35.5687L156.74 35.2188ZM156.009 35.9219L155.668 35.7129C155.448 36.0715 155.336 36.4751 155.325 36.9132L155.725 36.9233L156.124 36.9334C156.132 36.6234 156.21 36.3593 156.35 36.1309L156.009 35.9219ZM155.725 36.9233H155.325V38.9759H155.725H156.125V36.9233H155.725ZM155.725 38.9759H155.325C155.325 39.4741 155.423 39.9302 155.633 40.3326L155.987 40.1477L156.342 39.9629C156.201 39.6929 156.125 39.3678 156.125 38.9759H155.725ZM155.987 40.1477L155.634 40.3347C155.844 40.7323 156.146 41.0461 156.534 41.2689L156.733 40.9219L156.932 40.5749C156.677 40.4283 156.481 40.226 156.341 39.9608L155.987 40.1477ZM156.733 40.9219L156.534 41.2689C156.928 41.4946 157.383 41.5989 157.884 41.5989V41.1989V40.7989C157.495 40.7989 157.183 40.7185 156.932 40.5749L156.733 40.9219ZM157.884 41.1989V41.5989C158.228 41.5989 158.552 41.5511 158.85 41.4498L158.722 41.071L158.593 40.6923C158.39 40.7614 158.155 40.7989 157.884 40.7989V41.1989ZM158.722 41.071L158.85 41.4498C159.15 41.3481 159.415 41.1954 159.639 40.9888L159.368 40.6946L159.097 40.4004C158.962 40.5252 158.796 40.6235 158.593 40.6923L158.722 41.071ZM159.368 40.6946L159.639 40.9888C159.868 40.7782 160.037 40.5207 160.148 40.2235L159.773 40.0838L159.398 39.9442C159.329 40.1299 159.228 40.2796 159.097 40.4004L159.368 40.6946ZM159.773 40.0838L159.761 40.4836L162.95 40.576L162.962 40.1761L162.973 39.7763L159.784 39.684L159.773 40.0838ZM162.962 40.1761L162.569 40.1032C162.448 40.7529 162.186 41.3106 161.783 41.7853L162.088 42.044L162.393 42.3028C162.89 41.7168 163.21 41.0293 163.355 40.2491L162.962 40.1761ZM162.088 42.044L161.783 41.7855C161.385 42.2554 160.856 42.6294 160.184 42.902L160.334 43.2727L160.484 43.6434C161.26 43.3289 161.901 42.8838 162.394 42.3025L162.088 42.044ZM160.334 43.2727L160.186 42.9012C159.518 43.1676 158.732 43.306 157.82 43.306V43.706V44.106C158.811 44.106 159.701 43.9555 160.482 43.6443L160.334 43.2727ZM164.771 43.5H164.371V43.9H164.771V43.5ZM164.771 32.5909V32.1909H164.371V32.5909H164.771ZM168.074 32.5909H168.474V32.1909H168.074V32.5909ZM168.074 34.5938H167.674V34.9938H168.074V34.5938ZM168.194 34.5938V34.9938H168.48L168.573 34.7235L168.194 34.5938ZM169.345 33.0241L169.577 33.3502L169.577 33.3502L169.345 33.0241ZM173.223 33.0312L172.989 33.356L172.989 33.356L173.223 33.0312ZM174.253 34.5938L173.862 34.6814L173.933 34.9938H174.253V34.5938ZM174.366 34.5938V34.9938H174.66L174.748 34.7135L174.366 34.5938ZM175.559 33.0384L175.779 33.3728L175.781 33.3716L175.559 33.0384ZM180.169 33.4432L179.882 33.7219L179.883 33.7229L180.169 33.4432ZM181.135 43.5V43.9H181.535V43.5H181.135ZM177.662 43.5H177.262V43.9H177.662V43.5ZM177.243 35.7088L176.955 35.9869L176.958 35.9893L177.243 35.7088ZM175.027 35.7443L174.726 35.4803L174.726 35.4806L175.027 35.7443ZM174.622 43.5V43.9H175.022V43.5H174.622ZM171.284 43.5H170.884V43.9H171.284V43.5ZM170.872 35.7159L171.164 35.4426L171.164 35.4426L170.872 35.7159ZM168.983 35.4957L169.192 35.8369L169.197 35.8338L168.983 35.4957ZM168.436 36.1065L168.078 35.9276L168.076 35.9328L168.436 36.1065ZM168.244 43.5V43.9H168.644V43.5H168.244ZM164.771 43.5H165.171V32.5909H164.771H164.371V43.5H164.771ZM164.771 32.5909V32.9909H168.074V32.5909V32.1909H164.771V32.5909ZM168.074 32.5909H167.674V34.5938H168.074H168.474V32.5909H168.074ZM168.074 34.5938V34.9938H168.194V34.5938V34.1937H168.074V34.5938ZM168.194 34.5938L168.573 34.7235C168.775 34.1349 169.109 33.6823 169.577 33.3502L169.345 33.0241L169.113 32.6981C168.501 33.133 168.069 33.7269 167.816 34.464L168.194 34.5938ZM169.345 33.0241L169.577 33.3502C170.04 33.0209 170.601 32.8489 171.277 32.8489V32.4489V32.0489C170.457 32.0489 169.729 32.2603 169.113 32.6981L169.345 33.0241ZM171.277 32.4489V32.8489C171.963 32.8489 172.527 33.0233 172.989 33.356L173.223 33.0312L173.456 32.7065C172.839 32.2627 172.106 32.0489 171.277 32.0489V32.4489ZM173.223 33.0312L172.989 33.356C173.449 33.6866 173.737 34.1228 173.862 34.6814L174.253 34.5938L174.643 34.5061C174.475 33.7579 174.076 33.1524 173.456 32.7065L173.223 33.0312ZM174.253 34.5938V34.9938H174.366V34.5938V34.1937H174.253V34.5938ZM174.366 34.5938L174.748 34.7135C174.923 34.1569 175.261 33.7127 175.779 33.3728L175.559 33.0384L175.34 32.7039C174.674 33.1406 174.217 33.7333 173.985 34.474L174.366 34.5938ZM175.559 33.0384L175.781 33.3716C176.299 33.0277 176.918 32.8489 177.655 32.8489V32.4489V32.0489C176.782 32.0489 176.004 32.263 175.338 32.7051L175.559 33.0384ZM177.655 32.4489V32.8489C178.593 32.8489 179.322 33.146 179.882 33.7219L180.169 33.4432L180.456 33.1645C179.727 32.4146 178.781 32.0489 177.655 32.0489V32.4489ZM180.169 33.4432L179.883 33.7229C180.437 34.2887 180.735 35.0828 180.735 36.1562H181.135H181.535C181.535 34.9286 181.189 33.9139 180.455 33.1634L180.169 33.4432ZM181.135 36.1562H180.735V43.5H181.135H181.535V36.1562H181.135ZM181.135 43.5V43.1H177.662V43.5V43.9H181.135V43.5ZM177.662 43.5H178.062V36.9517H177.662H177.262V43.5H177.662ZM177.662 36.9517H178.062C178.062 36.3416 177.904 35.8112 177.528 35.4284L177.243 35.7088L176.958 35.9893C177.14 36.1746 177.262 36.4728 177.262 36.9517H177.662ZM177.243 35.7088L177.53 35.4307C177.167 35.0552 176.697 34.8756 176.156 34.8756V35.2756V35.6756C176.506 35.6756 176.76 35.7848 176.955 35.9869L177.243 35.7088ZM176.156 35.2756V34.8756C175.582 34.8756 175.089 35.068 174.726 35.4803L175.027 35.7443L175.327 36.0084C175.514 35.7956 175.774 35.6756 176.156 35.6756V35.2756ZM175.027 35.7443L174.726 35.4806C174.376 35.8795 174.222 36.3966 174.222 36.9872H174.622H175.022C175.022 36.5362 175.138 36.2247 175.328 36.008L175.027 35.7443ZM174.622 36.9872H174.222V43.5H174.622H175.022V36.9872H174.622ZM174.622 43.5V43.1H171.284V43.5V43.9H174.622V43.5ZM171.284 43.5H171.684V36.9162H171.284H170.884V43.5H171.284ZM171.284 36.9162H171.684C171.684 36.3356 171.525 35.8282 171.164 35.4426L170.872 35.7159L170.58 35.9892C170.768 36.1907 170.884 36.4835 170.884 36.9162H171.284ZM170.872 35.7159L171.164 35.4426C170.804 35.0582 170.331 34.8756 169.785 34.8756V35.2756V35.6756C170.139 35.6756 170.39 35.7865 170.58 35.9892L170.872 35.7159ZM169.785 35.2756V34.8756C169.415 34.8756 169.071 34.9663 168.769 35.1577L168.983 35.4957L169.197 35.8338C169.358 35.7316 169.55 35.6756 169.785 35.6756V35.2756ZM168.983 35.4957L168.774 35.1546C168.472 35.3392 168.241 35.6018 168.078 35.9276L168.436 36.1065L168.794 36.2854C168.896 36.081 169.029 35.9364 169.192 35.8369L168.983 35.4957ZM168.436 36.1065L168.076 35.9328C167.916 36.2629 167.844 36.6372 167.844 37.044H168.244H168.644C168.644 36.7312 168.7 36.4805 168.796 36.2803L168.436 36.1065ZM168.244 37.044H167.844V43.5H168.244H168.644V37.044H168.244ZM168.244 43.5V43.1H164.771V43.5V43.9H168.244V43.5Z" fill="black" mask="url(#path-8-outside-2_5_61)"/>
</g>
</g>
<defs>
<clipPath id="clip0_5_61">
<rect width="182.764" height="48" fill="white" transform="translate(0 0.5)"/>
</clipPath>
<clipPath id="clip1_5_61">
<rect width="118" height="48" fill="white" transform="translate(64.764 0.5)"/>
</clipPath>
</defs>
</svg>
