<svg width="183" height="48" viewBox="0 0 183 48" fill="none" xmlns="http://www.w3.org/2000/svg">
<g clip-path="url(#clip0_37_46)">
<path d="M0.2323 12.1366L26.1162 19.686L52.0001 12.1366" stroke="white" stroke-width="1.0785"/>
<path d="M52 12.1366L26.1161 4.58708L0.232236 12.1366" stroke="white" stroke-width="1.0785"/>
<path d="M0 20.2253L25.8839 27.7747L51.7678 20.2253" stroke="#40934D" stroke-width="1.0785"/>
<path d="M0.2323 28.314L26.1162 35.8634L52.0001 28.314" stroke="#40934D" stroke-width="1.0785"/>
<path d="M0.2323 35.8635L26.1162 43.4129L52.0001 35.8635" stroke="#40934D" stroke-width="1.0785"/>
<g clip-path="url(#clip1_37_46)">
<mask id="path-6-outside-1_37_46" maskUnits="userSpaceOnUse" x="63.764" y="4" width="72" height="16" fill="black">
<rect fill="white" x="63.764" y="4" width="72" height="16"/>
<path d="M66.7172 19H65.3251L70.6163 4.45455H72.0368L77.328 19H75.9359L71.3763 6.1804H71.2768L66.7172 19ZM67.7186 13.4247H74.9345V14.6179H67.7186V13.4247ZM79.8209 19V4.45455H81.149V17.8068H88.0808V19H79.8209ZM91.0709 19V4.45455H92.399V17.8068H99.3308V19H91.0709ZM107.946 19V4.45455H116.362V5.64773H109.274V11.1236H115.702V12.3168H109.274V19H107.946ZM120.993 4.45455V19H119.665V4.45455H120.993ZM125.087 4.45455L129.114 10.7685H129.207L133.233 4.45455H134.803L130.123 11.7273L134.803 19H133.233L129.207 12.7571H129.114L125.087 19H123.518L128.269 11.7273L123.518 4.45455H125.087Z"/>
</mask>
<path d="M66.7172 19H65.3251L70.6163 4.45455H72.0368L77.328 19H75.9359L71.3763 6.1804H71.2768L66.7172 19ZM67.7186 13.4247H74.9345V14.6179H67.7186V13.4247ZM79.8209 19V4.45455H81.149V17.8068H88.0808V19H79.8209ZM91.0709 19V4.45455H92.399V17.8068H99.3308V19H91.0709ZM107.946 19V4.45455H116.362V5.64773H109.274V11.1236H115.702V12.3168H109.274V19H107.946ZM120.993 4.45455V19H119.665V4.45455H120.993ZM125.087 4.45455L129.114 10.7685H129.207L133.233 4.45455H134.803L130.123 11.7273L134.803 19H133.233L129.207 12.7571H129.114L125.087 19H123.518L128.269 11.7273L123.518 4.45455H125.087Z" fill="white"/>
<path d="M66.7172 19V19.4H66.9994L67.094 19.134L66.7172 19ZM65.3251 19L64.9492 18.8633L64.754 19.4H65.3251V19ZM70.6163 4.45455V4.05455H70.3362L70.2404 4.3178L70.6163 4.45455ZM72.0368 4.45455L72.4127 4.3178L72.3169 4.05455H72.0368V4.45455ZM77.328 19V19.4H77.8991L77.7039 18.8633L77.328 19ZM75.9359 19L75.559 19.134L75.6536 19.4H75.9359V19ZM71.3763 6.1804L71.7531 6.04635L71.6585 5.7804H71.3763V6.1804ZM71.2768 6.1804V5.7804H70.9945L70.9 6.04635L71.2768 6.1804ZM67.7186 13.4247V13.0247H67.3186V13.4247H67.7186ZM74.9345 13.4247H75.3345V13.0247H74.9345V13.4247ZM74.9345 14.6179V15.0179H75.3345V14.6179H74.9345ZM67.7186 14.6179H67.3186V15.0179H67.7186V14.6179ZM66.7172 19V18.6H65.3251V19V19.4H66.7172V19ZM65.3251 19L65.701 19.1367L70.9922 4.59129L70.6163 4.45455L70.2404 4.3178L64.9492 18.8633L65.3251 19ZM70.6163 4.45455V4.85455H72.0368V4.45455V4.05455H70.6163V4.45455ZM72.0368 4.45455L71.6609 4.59129L76.9521 19.1367L77.328 19L77.7039 18.8633L72.4127 4.3178L72.0368 4.45455ZM77.328 19V18.6H75.9359V19V19.4H77.328V19ZM75.9359 19L76.3128 18.866L71.7531 6.04635L71.3763 6.1804L70.9994 6.31444L75.559 19.134L75.9359 19ZM71.3763 6.1804V5.7804H71.2768V6.1804V6.5804H71.3763V6.1804ZM71.2768 6.1804L70.9 6.04635L66.3403 18.866L66.7172 19L67.094 19.134L71.6537 6.31444L71.2768 6.1804ZM67.7186 13.4247V13.8247H74.9345V13.4247V13.0247H67.7186V13.4247ZM74.9345 13.4247H74.5345V14.6179H74.9345H75.3345V13.4247H74.9345ZM74.9345 14.6179V14.2179H67.7186V14.6179V15.0179H74.9345V14.6179ZM67.7186 14.6179H68.1186V13.4247H67.7186H67.3186V14.6179H67.7186ZM79.8209 19H79.4209V19.4H79.8209V19ZM79.8209 4.45455V4.05455H79.4209V4.45455H79.8209ZM81.149 4.45455H81.549V4.05455H81.149V4.45455ZM81.149 17.8068H80.749V18.2068H81.149V17.8068ZM88.0808 17.8068H88.4808V17.4068H88.0808V17.8068ZM88.0808 19V19.4H88.4808V19H88.0808ZM79.8209 19H80.2209V4.45455H79.8209H79.4209V19H79.8209ZM79.8209 4.45455V4.85455H81.149V4.45455V4.05455H79.8209V4.45455ZM81.149 4.45455H80.749V17.8068H81.149H81.549V4.45455H81.149ZM81.149 17.8068V18.2068H88.0808V17.8068V17.4068H81.149V17.8068ZM88.0808 17.8068H87.6808V19H88.0808H88.4808V17.8068H88.0808ZM88.0808 19V18.6H79.8209V19V19.4H88.0808V19ZM91.0709 19H90.6709V19.4H91.0709V19ZM91.0709 4.45455V4.05455H90.6709V4.45455H91.0709ZM92.399 4.45455H92.799V4.05455H92.399V4.45455ZM92.399 17.8068H91.999V18.2068H92.399V17.8068ZM99.3308 17.8068H99.7308V17.4068H99.3308V17.8068ZM99.3308 19V19.4H99.7308V19H99.3308ZM91.0709 19H91.4709V4.45455H91.0709H90.6709V19H91.0709ZM91.0709 4.45455V4.85455H92.399V4.45455V4.05455H91.0709V4.45455ZM92.399 4.45455H91.999V17.8068H92.399H92.799V4.45455H92.399ZM92.399 17.8068V18.2068H99.3308V17.8068V17.4068H92.399V17.8068ZM99.3308 17.8068H98.9308V19H99.3308H99.7308V17.8068H99.3308ZM99.3308 19V18.6H91.0709V19V19.4H99.3308V19ZM107.946 19H107.546V19.4H107.946V19ZM107.946 4.45455V4.05455H107.546V4.45455H107.946ZM116.362 4.45455H116.762V4.05455H116.362V4.45455ZM116.362 5.64773V6.04773H116.762V5.64773H116.362ZM109.274 5.64773V5.24773H108.874V5.64773H109.274ZM109.274 11.1236H108.874V11.5236H109.274V11.1236ZM115.702 11.1236H116.102V10.7236H115.702V11.1236ZM115.702 12.3168V12.7168H116.102V12.3168H115.702ZM109.274 12.3168V11.9168H108.874V12.3168H109.274ZM109.274 19V19.4H109.674V19H109.274ZM107.946 19H108.346V4.45455H107.946H107.546V19H107.946ZM107.946 4.45455V4.85455H116.362V4.45455V4.05455H107.946V4.45455ZM116.362 4.45455H115.962V5.64773H116.362H116.762V4.45455H116.362ZM116.362 5.64773V5.24773H109.274V5.64773V6.04773H116.362V5.64773ZM109.274 5.64773H108.874V11.1236H109.274H109.674V5.64773H109.274ZM109.274 11.1236V11.5236H115.702V11.1236V10.7236H109.274V11.1236ZM115.702 11.1236H115.302V12.3168H115.702H116.102V11.1236H115.702ZM115.702 12.3168V11.9168H109.274V12.3168V12.7168H115.702V12.3168ZM109.274 12.3168H108.874V19H109.274H109.674V12.3168H109.274ZM109.274 19V18.6H107.946V19V19.4H109.274V19ZM120.993 4.45455H121.393V4.05455H120.993V4.45455ZM120.993 19V19.4H121.393V19H120.993ZM119.665 19H119.265V19.4H119.665V19ZM119.665 4.45455V4.05455H119.265V4.45455H119.665ZM120.993 4.45455H120.593V19H120.993H121.393V4.45455H120.993ZM120.993 19V18.6H119.665V19V19.4H120.993V19ZM119.665 19H120.065V4.45455H119.665H119.265V19H119.665ZM119.665 4.45455V4.85455H120.993V4.45455V4.05455H119.665V4.45455ZM125.087 4.45455L125.424 4.23945L125.307 4.05455H125.087V4.45455ZM129.114 10.7685L128.777 10.9836L128.895 11.1685H129.114V10.7685ZM129.207 10.7685V11.1685H129.426L129.544 10.9836L129.207 10.7685ZM133.233 4.45455V4.05455H133.014L132.896 4.23945L133.233 4.45455ZM134.803 4.45455L135.139 4.67101L135.536 4.05455H134.803V4.45455ZM130.123 11.7273L129.786 11.5108L129.647 11.7273L129.786 11.9437L130.123 11.7273ZM134.803 19V19.4H135.536L135.139 18.7835L134.803 19ZM133.233 19L132.897 19.2168L133.016 19.4H133.233V19ZM129.207 12.7571L129.543 12.5403L129.424 12.3571H129.207V12.7571ZM129.114 12.7571V12.3571H128.896L128.778 12.5403L129.114 12.7571ZM125.087 19V19.4H125.305L125.423 19.2168L125.087 19ZM123.518 19L123.183 18.7812L122.778 19.4H123.518V19ZM128.269 11.7273L128.604 11.946L128.747 11.7273L128.604 11.5085L128.269 11.7273ZM123.518 4.45455V4.05455H122.778L123.183 4.67332L123.518 4.45455ZM125.087 4.45455L124.75 4.66964L128.777 10.9836L129.114 10.7685L129.451 10.5534L125.424 4.23945L125.087 4.45455ZM129.114 10.7685V11.1685H129.207V10.7685V10.3685H129.114V10.7685ZM129.207 10.7685L129.544 10.9836L133.571 4.66964L133.233 4.45455L132.896 4.23945L128.869 10.5534L129.207 10.7685ZM133.233 4.45455V4.85455H134.803V4.45455V4.05455H133.233V4.45455ZM134.803 4.45455L134.467 4.23808L129.786 11.5108L130.123 11.7273L130.459 11.9437L135.139 4.67101L134.803 4.45455ZM130.123 11.7273L129.786 11.9437L134.467 19.2165L134.803 19L135.139 18.7835L130.459 11.5108L130.123 11.7273ZM134.803 19V18.6H133.233V19V19.4H134.803V19ZM133.233 19L133.57 18.7832L129.543 12.5403L129.207 12.7571L128.87 12.9739L132.897 19.2168L133.233 19ZM129.207 12.7571V12.3571H129.114V12.7571V13.1571H129.207V12.7571ZM129.114 12.7571L128.778 12.5403L124.751 18.7832L125.087 19L125.423 19.2168L129.45 12.9739L129.114 12.7571ZM125.087 19V18.6H123.518V19V19.4H125.087V19ZM123.518 19L123.852 19.2188L128.604 11.946L128.269 11.7273L127.934 11.5085L123.183 18.7812L123.518 19ZM128.269 11.7273L128.604 11.5085L123.852 4.23577L123.518 4.45455L123.183 4.67332L127.934 11.946L128.269 11.7273ZM123.518 4.45455V4.85455H125.087V4.45455V4.05455H123.518V4.45455Z" fill="black" mask="url(#path-6-outside-1_37_46)"/>
<mask id="path-8-outside-2_37_46" maskUnits="userSpaceOnUse" x="63.764" y="27" width="118" height="21" fill="black">
<rect fill="white" x="63.764" y="27" width="118" height="21"/>
<path d="M71.774 28.4545H75.2399V38.5114C75.2352 39.4536 75.0103 40.2775 74.5652 40.983C74.1201 41.6837 73.5046 42.2282 72.7186 42.6165C71.9373 43.0047 71.033 43.1989 70.0055 43.1989C69.0964 43.1989 68.2702 43.0402 67.5268 42.723C66.7882 42.4058 66.1987 41.9134 65.7584 41.2457C65.3228 40.5781 65.1073 39.7235 65.112 38.6818H68.6135C68.6277 39.0559 68.6987 39.3755 68.8265 39.6406C68.9591 39.901 69.1414 40.0975 69.3734 40.2301C69.6054 40.3627 69.8824 40.429 70.2044 40.429C70.5406 40.429 70.8246 40.358 71.0567 40.2159C71.2887 40.0691 71.4638 39.8537 71.5822 39.5696C71.7053 39.2855 71.7692 38.9328 71.774 38.5114V28.4545ZM80.5222 43.1847C79.8262 43.1847 79.2083 43.0687 78.6685 42.8366C78.1335 42.5999 77.7097 42.2448 77.3972 41.7713C77.0894 41.2931 76.9356 40.6941 76.9356 39.9744C76.9356 39.3684 77.0421 38.857 77.2552 38.4403C77.4682 38.0237 77.7618 37.6851 78.1358 37.4247C78.5099 37.1643 78.9408 36.9678 79.4285 36.8352C79.9161 36.6979 80.437 36.6056 80.991 36.5582C81.6112 36.5014 82.1107 36.4422 82.4895 36.3807C82.8683 36.3144 83.1429 36.2221 83.3134 36.1037C83.4886 35.9806 83.5762 35.8078 83.5762 35.5852V35.5497C83.5762 35.1851 83.4507 34.9034 83.1998 34.7045C82.9488 34.5057 82.6103 34.4062 82.1841 34.4062C81.7249 34.4062 81.3555 34.5057 81.0762 34.7045C80.7968 34.9034 80.6193 35.178 80.5435 35.5284L77.3404 35.4148C77.4351 34.7519 77.6789 34.16 78.0719 33.6392C78.4696 33.1136 79.0142 32.7017 79.7054 32.4034C80.4015 32.1004 81.2372 31.9489 82.2125 31.9489C82.9086 31.9489 83.5501 32.0317 84.1373 32.1974C84.7244 32.3584 85.2357 32.5952 85.6714 32.9077C86.107 33.2154 86.4431 33.5942 86.6799 34.044C86.9214 34.4938 87.0421 35.0076 87.0421 35.5852V43H83.775V41.4801H83.6898C83.4957 41.8494 83.2471 42.1619 82.9441 42.4176C82.6458 42.6733 82.293 42.8651 81.8858 42.9929C81.4834 43.1207 81.0288 43.1847 80.5222 43.1847ZM81.5946 40.9119C81.9687 40.9119 82.3049 40.8362 82.6032 40.6847C82.9062 40.5331 83.1477 40.3248 83.3276 40.0597C83.5075 39.7898 83.5975 39.4773 83.5975 39.1222V38.0852C83.4981 38.1373 83.3773 38.1847 83.2353 38.2273C83.098 38.2699 82.9464 38.3101 82.7807 38.348C82.615 38.3859 82.4446 38.419 82.2694 38.4474C82.0942 38.4759 81.9261 38.5019 81.7651 38.5256C81.4384 38.5777 81.159 38.6581 80.927 38.767C80.6998 38.8759 80.5246 39.018 80.4015 39.1932C80.2831 39.3636 80.2239 39.5672 80.2239 39.804C80.2239 40.1638 80.3518 40.4384 80.6074 40.6278C80.8678 40.8172 81.1969 40.9119 81.5946 40.9119ZM89.1657 43V32.0909H92.5393V34.0795H92.6529C92.8518 33.3598 93.1761 32.8248 93.6259 32.4744C94.0757 32.1193 94.5989 31.9418 95.1955 31.9418C95.3565 31.9418 95.5222 31.9536 95.6927 31.9773C95.8631 31.9962 96.0217 32.027 96.1685 32.0696V35.0881C96.0028 35.0312 95.785 34.9863 95.5151 34.9531C95.25 34.92 95.0132 34.9034 94.8049 34.9034C94.3929 34.9034 94.0213 34.9957 93.6898 35.1804C93.3631 35.3603 93.1051 35.6136 92.9157 35.9403C92.731 36.2623 92.6387 36.6411 92.6387 37.0767V43H89.1657ZM101.002 43.1562C100.197 43.1562 99.4652 42.9479 98.807 42.5312C98.1489 42.1146 97.6233 41.4896 97.2303 40.6562C96.8373 39.8229 96.6408 38.7884 96.6408 37.5526C96.6408 36.2694 96.8444 35.2135 97.2516 34.3849C97.6588 33.5563 98.1915 32.9432 98.8496 32.5455C99.5125 32.1477 100.225 31.9489 100.987 31.9489C101.56 31.9489 102.05 32.0483 102.458 32.2472C102.865 32.4413 103.201 32.6922 103.466 33C103.731 33.3078 103.932 33.6274 104.07 33.9588H104.141V28.4545H107.614V43H104.176V41.2315H104.07C103.923 41.5677 103.715 41.8826 103.445 42.1761C103.175 42.4697 102.836 42.7064 102.429 42.8864C102.027 43.0663 101.551 43.1562 101.002 43.1562ZM102.209 40.4503C102.63 40.4503 102.99 40.3319 103.289 40.0952C103.587 39.8537 103.816 39.5152 103.977 39.0795C104.138 38.6439 104.219 38.1326 104.219 37.5455C104.219 36.9489 104.138 36.4351 103.977 36.0043C103.821 35.5734 103.592 35.242 103.289 35.0099C102.99 34.7779 102.63 34.6619 102.209 34.6619C101.778 34.6619 101.414 34.7803 101.115 35.017C100.817 35.2538 100.59 35.5876 100.433 36.0185C100.282 36.4493 100.206 36.9583 100.206 37.5455C100.206 38.1326 100.284 38.6439 100.441 39.0795C100.597 39.5152 100.822 39.8537 101.115 40.0952C101.414 40.3319 101.778 40.4503 102.209 40.4503ZM109.81 43V32.0909H113.283V43H109.81ZM111.55 30.8196C111.063 30.8196 110.644 30.6586 110.293 30.3366C109.943 30.0099 109.768 29.617 109.768 29.1577C109.768 28.7031 109.943 28.3149 110.293 27.9929C110.644 27.6662 111.063 27.5028 111.55 27.5028C112.043 27.5028 112.462 27.6662 112.807 27.9929C113.158 28.3149 113.333 28.7031 113.333 29.1577C113.333 29.617 113.158 30.0099 112.807 30.3366C112.462 30.6586 112.043 30.8196 111.55 30.8196ZM118.967 36.7784V43H115.494V32.0909H118.796V34.0938H118.917C119.159 33.4261 119.571 32.9029 120.153 32.5241C120.735 32.1406 121.429 31.9489 122.234 31.9489C123.001 31.9489 123.666 32.1217 124.23 32.4673C124.798 32.8082 125.238 33.2865 125.551 33.902C125.868 34.5128 126.024 35.2277 126.019 36.0469V43H122.546V36.7287C122.551 36.1226 122.397 35.6491 122.085 35.3082C121.777 34.9673 121.348 34.7969 120.799 34.7969C120.435 34.7969 120.113 34.8774 119.833 35.0384C119.559 35.1946 119.346 35.4195 119.194 35.7131C119.047 36.0066 118.972 36.3617 118.967 36.7784ZM131.245 43.1847C130.549 43.1847 129.931 43.0687 129.391 42.8366C128.856 42.5999 128.432 42.2448 128.12 41.7713C127.812 41.2931 127.658 40.6941 127.658 39.9744C127.658 39.3684 127.765 38.857 127.978 38.4403C128.191 38.0237 128.484 37.6851 128.858 37.4247C129.233 37.1643 129.663 36.9678 130.151 36.8352C130.639 36.6979 131.16 36.6056 131.714 36.5582C132.334 36.5014 132.833 36.4422 133.212 36.3807C133.591 36.3144 133.866 36.2221 134.036 36.1037C134.211 35.9806 134.299 35.8078 134.299 35.5852V35.5497C134.299 35.1851 134.173 34.9034 133.922 34.7045C133.671 34.5057 133.333 34.4062 132.907 34.4062C132.448 34.4062 132.078 34.5057 131.799 34.7045C131.519 34.9034 131.342 35.178 131.266 35.5284L128.063 35.4148C128.158 34.7519 128.402 34.16 128.795 33.6392C129.192 33.1136 129.737 32.7017 130.428 32.4034C131.124 32.1004 131.96 31.9489 132.935 31.9489C133.631 31.9489 134.273 32.0317 134.86 32.1974C135.447 32.3584 135.958 32.5952 136.394 32.9077C136.83 33.2154 137.166 33.5942 137.403 34.044C137.644 34.4938 137.765 35.0076 137.765 35.5852V43H134.498V41.4801H134.412C134.218 41.8494 133.97 42.1619 133.667 42.4176C133.368 42.6733 133.016 42.8651 132.608 42.9929C132.206 43.1207 131.751 43.1847 131.245 43.1847ZM132.317 40.9119C132.691 40.9119 133.028 40.8362 133.326 40.6847C133.629 40.5331 133.87 40.3248 134.05 40.0597C134.23 39.7898 134.32 39.4773 134.32 39.1222V38.0852C134.221 38.1373 134.1 38.1847 133.958 38.2273C133.821 38.2699 133.669 38.3101 133.503 38.348C133.338 38.3859 133.167 38.419 132.992 38.4474C132.817 38.4759 132.649 38.5019 132.488 38.5256C132.161 38.5777 131.882 38.6581 131.65 38.767C131.422 38.8759 131.247 39.018 131.124 39.1932C131.006 39.3636 130.947 39.5672 130.947 39.804C130.947 40.1638 131.074 40.4384 131.33 40.6278C131.591 40.8172 131.92 40.9119 132.317 40.9119ZM144.974 47.3182C143.937 47.3182 143.049 47.1738 142.31 46.8849C141.572 46.5961 140.992 46.2008 140.57 45.6989C140.149 45.197 139.895 44.6288 139.81 43.9943L143.099 43.8097C143.16 44.0322 143.274 44.2263 143.439 44.392C143.61 44.5578 143.83 44.6856 144.1 44.7756C144.375 44.8655 144.697 44.9105 145.066 44.9105C145.648 44.9105 146.129 44.7685 146.508 44.4844C146.891 44.205 147.083 43.715 147.083 43.0142V41.0966H146.962C146.825 41.4328 146.617 41.7334 146.337 41.9986C146.058 42.2637 145.71 42.4721 145.293 42.6236C144.881 42.7751 144.408 42.8509 143.873 42.8509C143.077 42.8509 142.348 42.6662 141.685 42.2969C141.027 41.9228 140.499 41.3452 140.101 40.5639C139.708 39.7779 139.512 38.767 139.512 37.5312C139.512 36.2576 139.716 35.2088 140.123 34.3849C140.53 33.5563 141.063 32.9432 141.721 32.5455C142.384 32.1477 143.096 31.9489 143.858 31.9489C144.431 31.9489 144.921 32.0483 145.329 32.2472C145.741 32.4413 146.079 32.6922 146.344 33C146.609 33.3078 146.811 33.6274 146.948 33.9588H147.047V32.0909H150.506V43.0426C150.506 43.9659 150.274 44.7448 149.81 45.3793C149.346 46.0137 148.698 46.4943 147.864 46.821C147.031 47.1525 146.067 47.3182 144.974 47.3182ZM145.08 40.3224C145.501 40.3224 145.861 40.2112 146.16 39.9886C146.458 39.7661 146.688 39.4465 146.849 39.0298C147.01 38.6132 147.09 38.1136 147.09 37.5312C147.09 36.9394 147.01 36.4304 146.849 36.0043C146.692 35.5734 146.463 35.242 146.16 35.0099C145.861 34.7779 145.501 34.6619 145.08 34.6619C144.649 34.6619 144.285 34.7803 143.986 35.017C143.688 35.2538 143.461 35.5876 143.305 36.0185C143.153 36.4446 143.077 36.9489 143.077 37.5312C143.077 38.1136 143.155 38.6132 143.312 39.0298C143.468 39.4465 143.693 39.7661 143.986 39.9886C144.285 40.2112 144.649 40.3224 145.08 40.3224ZM157.82 43.206C156.679 43.206 155.694 42.9811 154.865 42.5312C154.041 42.0767 153.407 41.4304 152.962 40.5923C152.521 39.7495 152.301 38.7481 152.301 37.5881C152.301 36.4612 152.524 35.4763 152.969 34.6335C153.414 33.786 154.041 33.1278 154.851 32.6591C155.661 32.1856 156.615 31.9489 157.713 31.9489C158.49 31.9489 159.2 32.0696 159.844 32.3111C160.488 32.5526 161.044 32.91 161.513 33.3835C161.982 33.857 162.346 34.4418 162.607 35.1378C162.867 35.8291 162.997 36.6222 162.997 37.517V38.3835H153.516V36.3665H159.766C159.761 35.9972 159.673 35.6681 159.503 35.3793C159.333 35.0904 159.098 34.8655 158.8 34.7045C158.506 34.5388 158.168 34.456 157.784 34.456C157.396 34.456 157.048 34.5436 156.74 34.7188C156.432 34.8892 156.189 35.1236 156.009 35.4219C155.829 35.7154 155.734 36.0492 155.725 36.4233V38.4759C155.725 38.9209 155.812 39.3116 155.987 39.6477C156.163 39.9792 156.411 40.2372 156.733 40.4219C157.055 40.6065 157.439 40.6989 157.884 40.6989C158.191 40.6989 158.471 40.6562 158.722 40.571C158.973 40.4858 159.188 40.3603 159.368 40.1946C159.548 40.0289 159.683 39.8253 159.773 39.5838L162.962 39.6761C162.829 40.3911 162.538 41.0137 162.088 41.544C161.643 42.0696 161.058 42.4792 160.334 42.7727C159.61 43.0616 158.771 43.206 157.82 43.206ZM164.771 43V32.0909H168.074V34.0938H168.194C168.422 33.4309 168.805 32.9077 169.345 32.5241C169.885 32.1406 170.529 31.9489 171.277 31.9489C172.034 31.9489 172.683 32.143 173.223 32.5312C173.763 32.9195 174.106 33.4403 174.253 34.0938H174.366C174.57 33.4451 174.968 32.9266 175.559 32.5384C176.151 32.1454 176.85 31.9489 177.655 31.9489C178.687 31.9489 179.525 32.2803 180.169 32.9432C180.813 33.6013 181.135 34.5057 181.135 35.6562V43H177.662V36.4517C177.662 35.9072 177.522 35.4929 177.243 35.2088C176.963 34.92 176.601 34.7756 176.156 34.7756C175.678 34.7756 175.301 34.9318 175.027 35.2443C174.757 35.5521 174.622 35.9664 174.622 36.4872V43H171.284V36.4162C171.284 35.9096 171.147 35.5095 170.872 35.2159C170.597 34.9223 170.235 34.7756 169.785 34.7756C169.482 34.7756 169.215 34.849 168.983 34.9957C168.751 35.1378 168.568 35.3414 168.436 35.6065C168.308 35.8717 168.244 36.1842 168.244 36.544V43H164.771Z"/>
</mask>
<path d="M71.774 28.4545H75.2399V38.5114C75.2352 39.4536 75.0103 40.2775 74.5652 40.983C74.1201 41.6837 73.5046 42.2282 72.7186 42.6165C71.9373 43.0047 71.033 43.1989 70.0055 43.1989C69.0964 43.1989 68.2702 43.0402 67.5268 42.723C66.7882 42.4058 66.1987 41.9134 65.7584 41.2457C65.3228 40.5781 65.1073 39.7235 65.112 38.6818H68.6135C68.6277 39.0559 68.6987 39.3755 68.8265 39.6406C68.9591 39.901 69.1414 40.0975 69.3734 40.2301C69.6054 40.3627 69.8824 40.429 70.2044 40.429C70.5406 40.429 70.8246 40.358 71.0567 40.2159C71.2887 40.0691 71.4638 39.8537 71.5822 39.5696C71.7053 39.2855 71.7692 38.9328 71.774 38.5114V28.4545ZM80.5222 43.1847C79.8262 43.1847 79.2083 43.0687 78.6685 42.8366C78.1335 42.5999 77.7097 42.2448 77.3972 41.7713C77.0894 41.2931 76.9356 40.6941 76.9356 39.9744C76.9356 39.3684 77.0421 38.857 77.2552 38.4403C77.4682 38.0237 77.7618 37.6851 78.1358 37.4247C78.5099 37.1643 78.9408 36.9678 79.4285 36.8352C79.9161 36.6979 80.437 36.6056 80.991 36.5582C81.6112 36.5014 82.1107 36.4422 82.4895 36.3807C82.8683 36.3144 83.1429 36.2221 83.3134 36.1037C83.4886 35.9806 83.5762 35.8078 83.5762 35.5852V35.5497C83.5762 35.1851 83.4507 34.9034 83.1998 34.7045C82.9488 34.5057 82.6103 34.4062 82.1841 34.4062C81.7249 34.4062 81.3555 34.5057 81.0762 34.7045C80.7968 34.9034 80.6193 35.178 80.5435 35.5284L77.3404 35.4148C77.4351 34.7519 77.6789 34.16 78.0719 33.6392C78.4696 33.1136 79.0142 32.7017 79.7054 32.4034C80.4015 32.1004 81.2372 31.9489 82.2125 31.9489C82.9086 31.9489 83.5501 32.0317 84.1373 32.1974C84.7244 32.3584 85.2357 32.5952 85.6714 32.9077C86.107 33.2154 86.4431 33.5942 86.6799 34.044C86.9214 34.4938 87.0421 35.0076 87.0421 35.5852V43H83.775V41.4801H83.6898C83.4957 41.8494 83.2471 42.1619 82.9441 42.4176C82.6458 42.6733 82.293 42.8651 81.8858 42.9929C81.4834 43.1207 81.0288 43.1847 80.5222 43.1847ZM81.5946 40.9119C81.9687 40.9119 82.3049 40.8362 82.6032 40.6847C82.9062 40.5331 83.1477 40.3248 83.3276 40.0597C83.5075 39.7898 83.5975 39.4773 83.5975 39.1222V38.0852C83.4981 38.1373 83.3773 38.1847 83.2353 38.2273C83.098 38.2699 82.9464 38.3101 82.7807 38.348C82.615 38.3859 82.4446 38.419 82.2694 38.4474C82.0942 38.4759 81.9261 38.5019 81.7651 38.5256C81.4384 38.5777 81.159 38.6581 80.927 38.767C80.6998 38.8759 80.5246 39.018 80.4015 39.1932C80.2831 39.3636 80.2239 39.5672 80.2239 39.804C80.2239 40.1638 80.3518 40.4384 80.6074 40.6278C80.8678 40.8172 81.1969 40.9119 81.5946 40.9119ZM89.1657 43V32.0909H92.5393V34.0795H92.6529C92.8518 33.3598 93.1761 32.8248 93.6259 32.4744C94.0757 32.1193 94.5989 31.9418 95.1955 31.9418C95.3565 31.9418 95.5222 31.9536 95.6927 31.9773C95.8631 31.9962 96.0217 32.027 96.1685 32.0696V35.0881C96.0028 35.0312 95.785 34.9863 95.5151 34.9531C95.25 34.92 95.0132 34.9034 94.8049 34.9034C94.3929 34.9034 94.0213 34.9957 93.6898 35.1804C93.3631 35.3603 93.1051 35.6136 92.9157 35.9403C92.731 36.2623 92.6387 36.6411 92.6387 37.0767V43H89.1657ZM101.002 43.1562C100.197 43.1562 99.4652 42.9479 98.807 42.5312C98.1489 42.1146 97.6233 41.4896 97.2303 40.6562C96.8373 39.8229 96.6408 38.7884 96.6408 37.5526C96.6408 36.2694 96.8444 35.2135 97.2516 34.3849C97.6588 33.5563 98.1915 32.9432 98.8496 32.5455C99.5125 32.1477 100.225 31.9489 100.987 31.9489C101.56 31.9489 102.05 32.0483 102.458 32.2472C102.865 32.4413 103.201 32.6922 103.466 33C103.731 33.3078 103.932 33.6274 104.07 33.9588H104.141V28.4545H107.614V43H104.176V41.2315H104.07C103.923 41.5677 103.715 41.8826 103.445 42.1761C103.175 42.4697 102.836 42.7064 102.429 42.8864C102.027 43.0663 101.551 43.1562 101.002 43.1562ZM102.209 40.4503C102.63 40.4503 102.99 40.3319 103.289 40.0952C103.587 39.8537 103.816 39.5152 103.977 39.0795C104.138 38.6439 104.219 38.1326 104.219 37.5455C104.219 36.9489 104.138 36.4351 103.977 36.0043C103.821 35.5734 103.592 35.242 103.289 35.0099C102.99 34.7779 102.63 34.6619 102.209 34.6619C101.778 34.6619 101.414 34.7803 101.115 35.017C100.817 35.2538 100.59 35.5876 100.433 36.0185C100.282 36.4493 100.206 36.9583 100.206 37.5455C100.206 38.1326 100.284 38.6439 100.441 39.0795C100.597 39.5152 100.822 39.8537 101.115 40.0952C101.414 40.3319 101.778 40.4503 102.209 40.4503ZM109.81 43V32.0909H113.283V43H109.81ZM111.55 30.8196C111.063 30.8196 110.644 30.6586 110.293 30.3366C109.943 30.0099 109.768 29.617 109.768 29.1577C109.768 28.7031 109.943 28.3149 110.293 27.9929C110.644 27.6662 111.063 27.5028 111.55 27.5028C112.043 27.5028 112.462 27.6662 112.807 27.9929C113.158 28.3149 113.333 28.7031 113.333 29.1577C113.333 29.617 113.158 30.0099 112.807 30.3366C112.462 30.6586 112.043 30.8196 111.55 30.8196ZM118.967 36.7784V43H115.494V32.0909H118.796V34.0938H118.917C119.159 33.4261 119.571 32.9029 120.153 32.5241C120.735 32.1406 121.429 31.9489 122.234 31.9489C123.001 31.9489 123.666 32.1217 124.23 32.4673C124.798 32.8082 125.238 33.2865 125.551 33.902C125.868 34.5128 126.024 35.2277 126.019 36.0469V43H122.546V36.7287C122.551 36.1226 122.397 35.6491 122.085 35.3082C121.777 34.9673 121.348 34.7969 120.799 34.7969C120.435 34.7969 120.113 34.8774 119.833 35.0384C119.559 35.1946 119.346 35.4195 119.194 35.7131C119.047 36.0066 118.972 36.3617 118.967 36.7784ZM131.245 43.1847C130.549 43.1847 129.931 43.0687 129.391 42.8366C128.856 42.5999 128.432 42.2448 128.12 41.7713C127.812 41.2931 127.658 40.6941 127.658 39.9744C127.658 39.3684 127.765 38.857 127.978 38.4403C128.191 38.0237 128.484 37.6851 128.858 37.4247C129.233 37.1643 129.663 36.9678 130.151 36.8352C130.639 36.6979 131.16 36.6056 131.714 36.5582C132.334 36.5014 132.833 36.4422 133.212 36.3807C133.591 36.3144 133.866 36.2221 134.036 36.1037C134.211 35.9806 134.299 35.8078 134.299 35.5852V35.5497C134.299 35.1851 134.173 34.9034 133.922 34.7045C133.671 34.5057 133.333 34.4062 132.907 34.4062C132.448 34.4062 132.078 34.5057 131.799 34.7045C131.519 34.9034 131.342 35.178 131.266 35.5284L128.063 35.4148C128.158 34.7519 128.402 34.16 128.795 33.6392C129.192 33.1136 129.737 32.7017 130.428 32.4034C131.124 32.1004 131.96 31.9489 132.935 31.9489C133.631 31.9489 134.273 32.0317 134.86 32.1974C135.447 32.3584 135.958 32.5952 136.394 32.9077C136.83 33.2154 137.166 33.5942 137.403 34.044C137.644 34.4938 137.765 35.0076 137.765 35.5852V43H134.498V41.4801H134.412C134.218 41.8494 133.97 42.1619 133.667 42.4176C133.368 42.6733 133.016 42.8651 132.608 42.9929C132.206 43.1207 131.751 43.1847 131.245 43.1847ZM132.317 40.9119C132.691 40.9119 133.028 40.8362 133.326 40.6847C133.629 40.5331 133.87 40.3248 134.05 40.0597C134.23 39.7898 134.32 39.4773 134.32 39.1222V38.0852C134.221 38.1373 134.1 38.1847 133.958 38.2273C133.821 38.2699 133.669 38.3101 133.503 38.348C133.338 38.3859 133.167 38.419 132.992 38.4474C132.817 38.4759 132.649 38.5019 132.488 38.5256C132.161 38.5777 131.882 38.6581 131.65 38.767C131.422 38.8759 131.247 39.018 131.124 39.1932C131.006 39.3636 130.947 39.5672 130.947 39.804C130.947 40.1638 131.074 40.4384 131.33 40.6278C131.591 40.8172 131.92 40.9119 132.317 40.9119ZM144.974 47.3182C143.937 47.3182 143.049 47.1738 142.31 46.8849C141.572 46.5961 140.992 46.2008 140.57 45.6989C140.149 45.197 139.895 44.6288 139.81 43.9943L143.099 43.8097C143.16 44.0322 143.274 44.2263 143.439 44.392C143.61 44.5578 143.83 44.6856 144.1 44.7756C144.375 44.8655 144.697 44.9105 145.066 44.9105C145.648 44.9105 146.129 44.7685 146.508 44.4844C146.891 44.205 147.083 43.715 147.083 43.0142V41.0966H146.962C146.825 41.4328 146.617 41.7334 146.337 41.9986C146.058 42.2637 145.71 42.4721 145.293 42.6236C144.881 42.7751 144.408 42.8509 143.873 42.8509C143.077 42.8509 142.348 42.6662 141.685 42.2969C141.027 41.9228 140.499 41.3452 140.101 40.5639C139.708 39.7779 139.512 38.767 139.512 37.5312C139.512 36.2576 139.716 35.2088 140.123 34.3849C140.53 33.5563 141.063 32.9432 141.721 32.5455C142.384 32.1477 143.096 31.9489 143.858 31.9489C144.431 31.9489 144.921 32.0483 145.329 32.2472C145.741 32.4413 146.079 32.6922 146.344 33C146.609 33.3078 146.811 33.6274 146.948 33.9588H147.047V32.0909H150.506V43.0426C150.506 43.9659 150.274 44.7448 149.81 45.3793C149.346 46.0137 148.698 46.4943 147.864 46.821C147.031 47.1525 146.067 47.3182 144.974 47.3182ZM145.08 40.3224C145.501 40.3224 145.861 40.2112 146.16 39.9886C146.458 39.7661 146.688 39.4465 146.849 39.0298C147.01 38.6132 147.09 38.1136 147.09 37.5312C147.09 36.9394 147.01 36.4304 146.849 36.0043C146.692 35.5734 146.463 35.242 146.16 35.0099C145.861 34.7779 145.501 34.6619 145.08 34.6619C144.649 34.6619 144.285 34.7803 143.986 35.017C143.688 35.2538 143.461 35.5876 143.305 36.0185C143.153 36.4446 143.077 36.9489 143.077 37.5312C143.077 38.1136 143.155 38.6132 143.312 39.0298C143.468 39.4465 143.693 39.7661 143.986 39.9886C144.285 40.2112 144.649 40.3224 145.08 40.3224ZM157.82 43.206C156.679 43.206 155.694 42.9811 154.865 42.5312C154.041 42.0767 153.407 41.4304 152.962 40.5923C152.521 39.7495 152.301 38.7481 152.301 37.5881C152.301 36.4612 152.524 35.4763 152.969 34.6335C153.414 33.786 154.041 33.1278 154.851 32.6591C155.661 32.1856 156.615 31.9489 157.713 31.9489C158.49 31.9489 159.2 32.0696 159.844 32.3111C160.488 32.5526 161.044 32.91 161.513 33.3835C161.982 33.857 162.346 34.4418 162.607 35.1378C162.867 35.8291 162.997 36.6222 162.997 37.517V38.3835H153.516V36.3665H159.766C159.761 35.9972 159.673 35.6681 159.503 35.3793C159.333 35.0904 159.098 34.8655 158.8 34.7045C158.506 34.5388 158.168 34.456 157.784 34.456C157.396 34.456 157.048 34.5436 156.74 34.7188C156.432 34.8892 156.189 35.1236 156.009 35.4219C155.829 35.7154 155.734 36.0492 155.725 36.4233V38.4759C155.725 38.9209 155.812 39.3116 155.987 39.6477C156.163 39.9792 156.411 40.2372 156.733 40.4219C157.055 40.6065 157.439 40.6989 157.884 40.6989C158.191 40.6989 158.471 40.6562 158.722 40.571C158.973 40.4858 159.188 40.3603 159.368 40.1946C159.548 40.0289 159.683 39.8253 159.773 39.5838L162.962 39.6761C162.829 40.3911 162.538 41.0137 162.088 41.544C161.643 42.0696 161.058 42.4792 160.334 42.7727C159.61 43.0616 158.771 43.206 157.82 43.206ZM164.771 43V32.0909H168.074V34.0938H168.194C168.422 33.4309 168.805 32.9077 169.345 32.5241C169.885 32.1406 170.529 31.9489 171.277 31.9489C172.034 31.9489 172.683 32.143 173.223 32.5312C173.763 32.9195 174.106 33.4403 174.253 34.0938H174.366C174.57 33.4451 174.968 32.9266 175.559 32.5384C176.151 32.1454 176.85 31.9489 177.655 31.9489C178.687 31.9489 179.525 32.2803 180.169 32.9432C180.813 33.6013 181.135 34.5057 181.135 35.6562V43H177.662V36.4517C177.662 35.9072 177.522 35.4929 177.243 35.2088C176.963 34.92 176.601 34.7756 176.156 34.7756C175.678 34.7756 175.301 34.9318 175.027 35.2443C174.757 35.5521 174.622 35.9664 174.622 36.4872V43H171.284V36.4162C171.284 35.9096 171.147 35.5095 170.872 35.2159C170.597 34.9223 170.235 34.7756 169.785 34.7756C169.482 34.7756 169.215 34.849 168.983 34.9957C168.751 35.1378 168.568 35.3414 168.436 35.6065C168.308 35.8717 168.244 36.1842 168.244 36.544V43H164.771Z" fill="white"/>
<path d="M71.774 28.4545V28.0545H71.374V28.4545H71.774ZM75.2399 28.4545H75.6399V28.0545H75.2399V28.4545ZM75.2399 38.5114L75.6399 38.5134V38.5114H75.2399ZM74.5652 40.983L74.9028 41.1974L74.9035 41.1964L74.5652 40.983ZM72.7186 42.6165L72.5414 42.2578L72.5406 42.2583L72.7186 42.6165ZM67.5268 42.723L67.369 43.0905L67.3698 43.0909L67.5268 42.723ZM65.7584 41.2457L65.4234 41.4643L65.4244 41.466L65.7584 41.2457ZM65.112 38.6818V38.2818H64.7139L64.7121 38.68L65.112 38.6818ZM68.6135 38.6818L69.0132 38.6666L68.9986 38.2818H68.6135V38.6818ZM68.8265 39.6406L68.4661 39.8144L68.4701 39.8221L68.8265 39.6406ZM69.3734 40.2301L69.5719 39.8828L69.5719 39.8828L69.3734 40.2301ZM71.0567 40.2159L71.2655 40.5571L71.2705 40.5539L71.0567 40.2159ZM71.5822 39.5696L71.2152 39.4105L71.213 39.4158L71.5822 39.5696ZM71.774 38.5114L72.174 38.5159V38.5114H71.774ZM71.774 28.4545V28.8545H75.2399V28.4545V28.0545H71.774V28.4545ZM75.2399 28.4545H74.8399V38.5114H75.2399H75.6399V28.4545H75.2399ZM75.2399 38.5114L74.8399 38.5094C74.8355 39.3867 74.627 40.1353 74.2269 40.7695L74.5652 40.983L74.9035 41.1964C75.3935 40.4197 75.6348 39.5205 75.6399 38.5134L75.2399 38.5114ZM74.5652 40.983L74.2275 40.7685C73.824 41.4039 73.2656 41.9001 72.5414 42.2578L72.7186 42.6165L72.8957 42.9751C73.7436 42.5563 74.4162 41.9635 74.9028 41.1974L74.5652 40.983ZM72.7186 42.6165L72.5406 42.2583C71.8236 42.6146 70.9821 42.7989 70.0055 42.7989V43.1989V43.5989C71.0838 43.5989 72.051 43.3949 72.8966 42.9747L72.7186 42.6165ZM70.0055 43.1989V42.7989C69.1437 42.7989 68.3717 42.6487 67.6838 42.3551L67.5268 42.723L67.3698 43.0909C68.1687 43.4318 69.0492 43.5989 70.0055 43.5989V43.1989ZM67.5268 42.723L67.6847 42.3555C67.0175 42.0689 66.4893 41.6275 66.0923 41.0255L65.7584 41.2457L65.4244 41.466C65.9081 42.1992 66.5589 42.7426 67.369 43.0905L67.5268 42.723ZM65.7584 41.2457L66.0934 41.0272C65.7118 40.4424 65.5076 39.6707 65.512 38.6836L65.112 38.6818L64.7121 38.68C64.7071 39.7763 64.9337 40.7138 65.4234 41.4643L65.7584 41.2457ZM65.112 38.6818V39.0818H68.6135V38.6818V38.2818H65.112V38.6818ZM68.6135 38.6818L68.2138 38.697C68.2295 39.1117 68.3089 39.4881 68.4662 39.8143L68.8265 39.6406L69.1868 39.4669C69.0885 39.2628 69.0258 39.0001 69.0132 38.6666L68.6135 38.6818ZM68.8265 39.6406L68.4701 39.8221C68.6346 40.1452 68.8689 40.4025 69.175 40.5774L69.3734 40.2301L69.5719 39.8828C69.4139 39.7925 69.2836 39.6568 69.183 39.4592L68.8265 39.6406ZM69.3734 40.2301L69.175 40.5774C69.4787 40.751 69.827 40.829 70.2044 40.829V40.429V40.029C69.9378 40.029 69.7322 39.9744 69.5719 39.8828L69.3734 40.2301ZM70.2044 40.429V40.829C70.5969 40.829 70.9573 40.7457 71.2655 40.557L71.0567 40.2159L70.8478 39.8748C70.6919 39.9702 70.4842 40.029 70.2044 40.029V40.429ZM71.0567 40.2159L71.2705 40.5539C71.5803 40.358 71.8054 40.0739 71.9515 39.7234L71.5822 39.5696L71.213 39.4158C71.1223 39.6335 70.997 39.7803 70.8428 39.8779L71.0567 40.2159ZM71.5822 39.5696L71.9492 39.7286C72.0997 39.3815 72.1688 38.9724 72.174 38.5159L71.774 38.5114L71.374 38.5069C71.3697 38.8931 71.311 39.1895 71.2152 39.4106L71.5822 39.5696ZM71.774 38.5114H72.174V28.4545H71.774H71.374V38.5114H71.774ZM78.6685 42.8366L78.5066 43.2025L78.5106 43.2041L78.6685 42.8366ZM77.3972 41.7713L77.0608 41.9878L77.0634 41.9916L77.3972 41.7713ZM77.2552 38.4403L76.899 38.2582L76.899 38.2582L77.2552 38.4403ZM78.1358 37.4247L78.3644 37.753L78.3644 37.753L78.1358 37.4247ZM79.4285 36.8352L79.5334 37.2212L79.5369 37.2203L79.4285 36.8352ZM80.991 36.5582L81.025 36.9568L81.0274 36.9566L80.991 36.5582ZM82.4895 36.3807L82.5537 36.7755L82.5585 36.7747L82.4895 36.3807ZM83.3134 36.1037L83.5416 36.4322L83.5434 36.431L83.3134 36.1037ZM83.1998 34.7045L83.4482 34.391L83.4482 34.391L83.1998 34.7045ZM81.0762 34.7045L80.8442 34.3787L80.8442 34.3787L81.0762 34.7045ZM80.5435 35.5284L80.5293 35.9282L80.8638 35.94L80.9345 35.6129L80.5435 35.5284ZM77.3404 35.4148L76.9444 35.3582L76.8815 35.7987L77.3262 35.8145L77.3404 35.4148ZM78.0719 33.6392L77.753 33.3978L77.7526 33.3983L78.0719 33.6392ZM79.7054 32.4034L79.8639 32.7707L79.8651 32.7702L79.7054 32.4034ZM84.1373 32.1974L84.0286 32.5824L84.0315 32.5832L84.1373 32.1974ZM85.6714 32.9077L85.4382 33.2327L85.4405 33.2344L85.6714 32.9077ZM86.6799 34.044L86.3259 34.2303L86.3275 34.2332L86.6799 34.044ZM87.0421 43V43.4H87.4421V43H87.0421ZM83.775 43H83.375V43.4H83.775V43ZM83.775 41.4801H84.175V41.0801H83.775V41.4801ZM83.6898 41.4801V41.0801H83.4482L83.3358 41.294L83.6898 41.4801ZM82.9441 42.4176L82.6861 42.1119L82.6838 42.1139L82.9441 42.4176ZM81.8858 42.9929L81.766 42.6113L81.7647 42.6117L81.8858 42.9929ZM82.6032 40.6847L82.4243 40.3269L82.422 40.328L82.6032 40.6847ZM83.3276 40.0597L83.6586 40.2843L83.6604 40.2815L83.3276 40.0597ZM83.5975 38.0852H83.9975V37.4241L83.4119 37.7309L83.5975 38.0852ZM83.2353 38.2273L83.1203 37.8441L83.1167 37.8452L83.2353 38.2273ZM82.2694 38.4474L82.3334 38.8423L82.3334 38.8423L82.2694 38.4474ZM81.7651 38.5256L81.7069 38.1298L81.7021 38.1306L81.7651 38.5256ZM80.927 38.767L80.7571 38.4049L80.7542 38.4063L80.927 38.767ZM80.4015 39.1932L80.0742 38.9632L80.0729 38.965L80.4015 39.1932ZM80.6074 40.6278L80.3693 40.9493L80.3722 40.9513L80.6074 40.6278ZM80.5222 43.1847V42.7847C79.8706 42.7847 79.308 42.6761 78.8265 42.4692L78.6685 42.8366L78.5106 43.2041C79.1086 43.4612 79.7817 43.5847 80.5222 43.5847V43.1847ZM78.6685 42.8366L78.8304 42.4709C78.3631 42.2641 78 41.9584 77.731 41.551L77.3972 41.7713L77.0634 41.9916C77.4194 42.5312 77.9039 42.9357 78.5067 43.2024L78.6685 42.8366ZM77.3972 41.7713L77.7336 41.5548C77.4771 41.1563 77.3356 40.6376 77.3356 39.9744H76.9356H76.5356C76.5356 40.7506 76.7018 41.4298 77.0608 41.9878L77.3972 41.7713ZM76.9356 39.9744H77.3356C77.3356 39.4136 77.4343 38.9686 77.6113 38.6225L77.2552 38.4403L76.899 38.2582C76.6499 38.7454 76.5356 39.3231 76.5356 39.9744H76.9356ZM77.2552 38.4403L77.6113 38.6225C77.7953 38.2626 78.0457 37.9749 78.3644 37.753L78.1358 37.4247L77.9073 37.0964C77.4779 37.3954 77.1411 37.7847 76.899 38.2582L77.2552 38.4403ZM78.1358 37.4247L78.3644 37.753C78.697 37.5214 79.0851 37.3431 79.5334 37.2212L79.4285 36.8352L79.3235 36.4492C78.7964 36.5925 78.3228 36.8072 77.9073 37.0964L78.1358 37.4247ZM79.4285 36.8352L79.5369 37.2203C79.998 37.0904 80.4938 37.0022 81.025 36.9568L80.991 36.5582L80.9569 36.1597C80.3802 36.209 79.8343 36.3054 79.32 36.4502L79.4285 36.8352ZM80.991 36.5582L81.0274 36.9566C81.652 36.8994 82.1619 36.8392 82.5537 36.7755L82.4895 36.3807L82.4254 35.9859C82.0596 36.0453 81.5704 36.1035 80.9545 36.1599L80.991 36.5582ZM82.4895 36.3807L82.5585 36.7747C82.9538 36.7055 83.2983 36.6011 83.5416 36.4322L83.3134 36.1037L83.0852 35.7751C82.9876 35.843 82.7828 35.9233 82.4206 35.9867L82.4895 36.3807ZM83.3134 36.1037L83.5434 36.431C83.83 36.2295 83.9762 35.932 83.9762 35.5852H83.5762H83.1762C83.1762 35.6836 83.1471 35.7316 83.0834 35.7764L83.3134 36.1037ZM83.5762 35.5852H83.9762V35.5497H83.5762H83.1762V35.5852H83.5762ZM83.5762 35.5497H83.9762C83.9762 35.0821 83.809 34.6769 83.4482 34.391L83.1998 34.7045L82.9513 35.018C83.0925 35.1299 83.1762 35.2881 83.1762 35.5497H83.5762ZM83.1998 34.7045L83.4482 34.391C83.1063 34.1201 82.6706 34.0062 82.1841 34.0062V34.4062V34.8063C82.5499 34.8063 82.7914 34.8913 82.9513 35.018L83.1998 34.7045ZM82.1841 34.4062V34.0062C81.6695 34.0062 81.2109 34.1176 80.8442 34.3787L81.0762 34.7045L81.3082 35.0304C81.5002 34.8937 81.7802 34.8063 82.1841 34.8063V34.4062ZM81.0762 34.7045L80.8442 34.3787C80.4797 34.6382 80.2483 35.0009 80.1525 35.4439L80.5435 35.5284L80.9345 35.6129C80.9902 35.3552 81.114 35.1686 81.3082 35.0304L81.0762 34.7045ZM80.5435 35.5284L80.5577 35.1287L77.3546 35.015L77.3404 35.4148L77.3262 35.8145L80.5293 35.9282L80.5435 35.5284ZM77.3404 35.4148L77.7364 35.4713C77.8218 34.8736 78.0401 34.3455 78.3912 33.8801L78.0719 33.6392L77.7526 33.3983C77.3178 33.9746 77.0484 34.6302 76.9444 35.3582L77.3404 35.4148ZM78.0719 33.6392L78.3909 33.8806C78.7413 33.4176 79.2269 33.0455 79.8639 32.7707L79.7054 32.4034L79.547 32.0361C78.8014 32.3579 78.198 32.8097 77.753 33.3978L78.0719 33.6392ZM79.7054 32.4034L79.8651 32.7702C80.4986 32.4944 81.2771 32.3489 82.2125 32.3489V31.9489V31.5489C81.1972 31.5489 80.3043 31.7064 79.5458 32.0367L79.7054 32.4034ZM82.2125 31.9489V32.3489C82.8769 32.3489 83.4814 32.428 84.0286 32.5824L84.1373 32.1974L84.2459 31.8125C83.6189 31.6355 82.9402 31.5489 82.2125 31.5489V31.9489ZM84.1373 32.1974L84.0315 32.5832C84.579 32.7333 85.046 32.9513 85.4382 33.2327L85.6714 32.9077L85.9045 32.5827C85.4255 32.239 84.8698 31.9835 84.243 31.8117L84.1373 32.1974ZM85.6714 32.9077L85.4405 33.2344C85.8272 33.5075 86.12 33.8391 86.3259 34.2303L86.6799 34.044L87.0338 33.8577C86.7662 33.3493 86.3867 32.9233 85.9022 32.581L85.6714 32.9077ZM86.6799 34.044L86.3275 34.2332C86.5338 34.6176 86.6421 35.0648 86.6421 35.5852H87.0421H87.4421C87.4421 34.9503 87.3089 34.3701 87.0323 33.8548L86.6799 34.044ZM87.0421 35.5852H86.6421V43H87.0421H87.4421V35.5852H87.0421ZM87.0421 43V42.6H83.775V43V43.4H87.0421V43ZM83.775 43H84.175V41.4801H83.775H83.375V43H83.775ZM83.775 41.4801V41.0801H83.6898V41.4801V41.8801H83.775V41.4801ZM83.6898 41.4801L83.3358 41.294C83.1644 41.6201 82.9477 41.8912 82.6861 42.1119L82.9441 42.4176L83.202 42.7233C83.5466 42.4326 83.827 42.0788 84.0439 41.6662L83.6898 41.4801ZM82.9441 42.4176L82.6838 42.1139C82.43 42.3314 82.1261 42.4982 81.766 42.6113L81.8858 42.9929L82.0057 43.3745C82.46 43.2319 82.8616 43.0152 83.2044 42.7213L82.9441 42.4176ZM81.8858 42.9929L81.7647 42.6117C81.4084 42.7249 80.9957 42.7847 80.5222 42.7847V43.1847V43.5847C81.062 43.5847 81.5584 43.5166 82.0069 43.3741L81.8858 42.9929ZM81.5946 40.9119V41.3119C82.0241 41.3119 82.4236 41.2245 82.7843 41.0413L82.6032 40.6847L82.422 40.328C82.1862 40.4478 81.9133 40.5119 81.5946 40.5119V40.9119ZM82.6032 40.6847L82.7821 41.0424C83.1427 40.8621 83.438 40.6094 83.6586 40.2843L83.3276 40.0597L82.9966 39.8351C82.8574 40.0403 82.6697 40.2042 82.4243 40.3269L82.6032 40.6847ZM83.3276 40.0597L83.6604 40.2815C83.8883 39.9397 83.9975 39.5484 83.9975 39.1222H83.5975H83.1975C83.1975 39.4061 83.1268 39.6398 82.9948 39.8378L83.3276 40.0597ZM83.5975 39.1222H83.9975V38.0852H83.5975H83.1975V39.1222H83.5975ZM83.5975 38.0852L83.4119 37.7309C83.3409 37.7681 83.2452 37.8067 83.1203 37.8441L83.2353 38.2273L83.3502 38.6104C83.5094 38.5626 83.6552 38.5065 83.7831 38.4396L83.5975 38.0852ZM83.2353 38.2273L83.1167 37.8452C82.9907 37.8844 82.8491 37.9221 82.6916 37.9581L82.7807 38.348L82.8699 38.738C83.0438 38.6982 83.2053 38.6554 83.3538 38.6093L83.2353 38.2273ZM82.7807 38.348L82.6916 37.9581C82.5345 37.994 82.3725 38.0255 82.2053 38.0526L82.2694 38.4474L82.3334 38.8423C82.5166 38.8126 82.6955 38.7778 82.8699 38.738L82.7807 38.348ZM82.2694 38.4474L82.2053 38.0526C82.0319 38.0807 81.8658 38.1065 81.7069 38.1298L81.7651 38.5256L81.8233 38.9213C81.9864 38.8973 82.1564 38.871 82.3334 38.8423L82.2694 38.4474ZM81.7651 38.5256L81.7021 38.1306C81.3485 38.1869 81.0312 38.2763 80.7571 38.405L80.927 38.767L81.097 39.1291C81.2869 39.04 81.5283 38.9684 81.8281 38.9206L81.7651 38.5256ZM80.927 38.767L80.7542 38.4063C80.4761 38.5396 80.2432 38.7227 80.0742 38.9632L80.4015 39.1932L80.7287 39.4232C80.806 39.3133 80.9234 39.2123 81.0999 39.1278L80.927 38.767ZM80.4015 39.1932L80.0729 38.965C79.9017 39.2116 79.8239 39.4976 79.8239 39.804H80.2239H80.6239C80.6239 39.6369 80.6645 39.5157 80.73 39.4213L80.4015 39.1932ZM80.2239 39.804H79.8239C79.8239 40.2715 79.9974 40.6738 80.3693 40.9493L80.6074 40.6278L80.8455 40.3064C80.7061 40.2031 80.6239 40.0561 80.6239 39.804H80.2239ZM80.6074 40.6278L80.3722 40.9513C80.7156 41.2011 81.1326 41.3119 81.5946 41.3119V40.9119V40.5119C81.2613 40.5119 81.0201 40.4333 80.8427 40.3043L80.6074 40.6278ZM89.1657 43H88.7657V43.4H89.1657V43ZM89.1657 32.0909V31.6909H88.7657V32.0909H89.1657ZM92.5393 32.0909H92.9393V31.6909H92.5393V32.0909ZM92.5393 34.0795H92.1393V34.4795H92.5393V34.0795ZM92.6529 34.0795V34.4795H92.9574L93.0384 34.1861L92.6529 34.0795ZM93.6259 32.4744L93.8717 32.79L93.8738 32.7884L93.6259 32.4744ZM95.6927 31.9773L95.6376 32.3736L95.6485 32.3748L95.6927 31.9773ZM96.1685 32.0696H96.5685V31.7692L96.28 31.6855L96.1685 32.0696ZM96.1685 35.0881L96.0388 35.4664L96.5685 35.6481V35.0881H96.1685ZM95.5151 34.9531L95.4655 35.35L95.4663 35.3501L95.5151 34.9531ZM93.6898 35.1804L93.8828 35.5308L93.8845 35.5298L93.6898 35.1804ZM92.9157 35.9403L92.5696 35.7397L92.5687 35.7413L92.9157 35.9403ZM92.6387 43V43.4H93.0387V43H92.6387ZM89.1657 43H89.5657V32.0909H89.1657H88.7657V43H89.1657ZM89.1657 32.0909V32.4909H92.5393V32.0909V31.6909H89.1657V32.0909ZM92.5393 32.0909H92.1393V34.0795H92.5393H92.9393V32.0909H92.5393ZM92.5393 34.0795V34.4795H92.6529V34.0795V33.6795H92.5393V34.0795ZM92.6529 34.0795L93.0384 34.1861C93.2215 33.5237 93.5081 33.0732 93.8717 32.79L93.6259 32.4744L93.3801 32.1589C92.8441 32.5764 92.482 33.196 92.2673 33.973L92.6529 34.0795ZM93.6259 32.4744L93.8738 32.7884C94.2499 32.4914 94.6849 32.3418 95.1955 32.3418V31.9418V31.5418C94.5129 31.5418 93.9015 31.7472 93.378 32.1605L93.6259 32.4744ZM95.1955 31.9418V32.3418C95.3369 32.3418 95.4842 32.3522 95.6376 32.3735L95.6927 31.9773L95.7477 31.5811C95.5602 31.555 95.3761 31.5418 95.1955 31.5418V31.9418ZM95.6927 31.9773L95.6485 32.3748C95.7989 32.3915 95.9347 32.4182 96.057 32.4537L96.1685 32.0696L96.28 31.6855C96.1088 31.6357 95.9274 31.6009 95.7368 31.5797L95.6927 31.9773ZM96.1685 32.0696H95.7685V35.0881H96.1685H96.5685V32.0696H96.1685ZM96.1685 35.0881L96.2982 34.7097C96.096 34.6404 95.848 34.591 95.5639 34.5561L95.5151 34.9531L95.4663 35.3501C95.722 35.3815 95.9096 35.4221 96.0388 35.4664L96.1685 35.0881ZM95.5151 34.9531L95.5647 34.5562C95.2874 34.5216 95.0337 34.5034 94.8049 34.5034V34.9034V35.3034C94.9928 35.3034 95.2125 35.3184 95.4655 35.35L95.5151 34.9531ZM94.8049 34.9034V34.5034C94.3308 34.5034 93.8911 34.6103 93.4951 34.831L93.6898 35.1804L93.8845 35.5298C94.1514 35.3811 94.4551 35.3034 94.8049 35.3034V34.9034ZM93.6898 35.1804L93.4969 34.83C93.1056 35.0455 92.795 35.3509 92.5696 35.7397L92.9157 35.9403L93.2617 36.141C93.4151 35.8763 93.6206 35.6752 93.8828 35.5308L93.6898 35.1804ZM92.9157 35.9403L92.5687 35.7413C92.3437 36.1337 92.2387 36.5835 92.2387 37.0767H92.6387H93.0387C93.0387 36.6987 93.1183 36.391 93.2627 36.1393L92.9157 35.9403ZM92.6387 37.0767H92.2387V43H92.6387H93.0387V37.0767H92.6387ZM92.6387 43V42.6H89.1657V43V43.4H92.6387V43ZM98.807 42.5312L98.593 42.8692L98.593 42.8692L98.807 42.5312ZM97.2303 40.6562L96.8685 40.8269L96.8685 40.8269L97.2303 40.6562ZM97.2516 34.3849L97.6106 34.5614L97.6106 34.5614L97.2516 34.3849ZM98.8496 32.5455L98.6438 32.2025L98.6427 32.2031L98.8496 32.5455ZM102.458 32.2472L102.282 32.6066L102.285 32.6082L102.458 32.2472ZM103.466 33L103.769 32.7389L103.769 32.7389L103.466 33ZM104.07 33.9588L103.7 34.1119L103.803 34.3588H104.07V33.9588ZM104.141 33.9588V34.3588H104.541V33.9588H104.141ZM104.141 28.4545V28.0545H103.741V28.4545H104.141ZM107.614 28.4545H108.014V28.0545H107.614V28.4545ZM107.614 43V43.4H108.014V43H107.614ZM104.176 43H103.776V43.4H104.176V43ZM104.176 41.2315H104.576V40.8315H104.176V41.2315ZM104.07 41.2315V40.8315H103.808L103.703 41.0715L104.07 41.2315ZM103.445 42.1761L103.15 41.9054L103.15 41.9054L103.445 42.1761ZM102.429 42.8864L102.267 42.5205L102.266 42.5212L102.429 42.8864ZM103.289 40.0952L103.537 40.4085L103.54 40.4061L103.289 40.0952ZM103.977 39.0795L104.353 39.2182L104.353 39.2182L103.977 39.0795ZM103.977 36.0043L103.601 36.1406L103.603 36.1443L103.977 36.0043ZM103.289 35.0099L103.043 35.3257L103.045 35.3275L103.289 35.0099ZM101.115 35.017L101.364 35.3304L101.115 35.017ZM100.433 36.0185L100.057 35.8821L100.056 35.8858L100.433 36.0185ZM101.115 40.0952L100.861 40.4041L100.867 40.4085L101.115 40.0952ZM101.002 43.1562V42.7562C100.27 42.7562 99.6129 42.568 99.021 42.1933L98.807 42.5312L98.593 42.8692C99.3174 43.3278 100.124 43.5563 101.002 43.5563V43.1562ZM98.807 42.5312L99.021 42.1933C98.4379 41.8242 97.9587 41.263 97.5921 40.4856L97.2303 40.6562L96.8685 40.8269C97.2879 41.7161 97.8598 42.405 98.593 42.8692L98.807 42.5312ZM97.2303 40.6562L97.5921 40.4856C97.2313 39.7206 97.0408 38.7485 97.0408 37.5526H96.6408H96.2408C96.2408 38.8282 96.4433 39.9252 96.8685 40.8269L97.2303 40.6562ZM96.6408 37.5526H97.0408C97.0408 36.3081 97.2388 35.318 97.6106 34.5614L97.2516 34.3849L96.8926 34.2085C96.45 35.1091 96.2408 36.2307 96.2408 37.5526H96.6408ZM97.2516 34.3849L97.6106 34.5614C97.9909 33.7876 98.476 33.2386 99.0565 32.8878L98.8496 32.5455L98.6427 32.2031C97.9069 32.6478 97.3267 33.3251 96.8926 34.2085L97.2516 34.3849ZM98.8496 32.5455L99.0554 32.8885C99.6571 32.5275 100.299 32.3489 100.987 32.3489V31.9489V31.5489C100.152 31.5489 99.3679 31.768 98.6438 32.2025L98.8496 32.5455ZM100.987 31.9489V32.3489C101.515 32.3489 101.942 32.4405 102.282 32.6066L102.458 32.2472L102.633 31.8877C102.159 31.6561 101.606 31.5489 100.987 31.5489V31.9489ZM102.458 32.2472L102.285 32.6082C102.648 32.7811 102.938 32.9998 103.163 33.2611L103.466 33L103.769 32.7389C103.464 32.3847 103.081 32.1015 102.63 31.8861L102.458 32.2472ZM103.466 33L103.163 33.2611C103.404 33.5408 103.581 33.8246 103.7 34.1119L104.07 33.9588L104.439 33.8057C104.284 33.4301 104.058 33.0747 103.769 32.7389L103.466 33ZM104.07 33.9588V34.3588H104.141V33.9588V33.5588H104.07V33.9588ZM104.141 33.9588H104.541V28.4545H104.141H103.741V33.9588H104.141ZM104.141 28.4545V28.8545H107.614V28.4545V28.0545H104.141V28.4545ZM107.614 28.4545H107.214V43H107.614H108.014V28.4545H107.614ZM107.614 43V42.6H104.176V43V43.4H107.614V43ZM104.176 43H104.576V41.2315H104.176H103.776V43H104.176ZM104.176 41.2315V40.8315H104.07V41.2315V41.6315H104.176V41.2315ZM104.07 41.2315L103.703 41.0715C103.576 41.3636 103.393 41.6417 103.15 41.9054L103.445 42.1761L103.739 42.4469C104.037 42.1235 104.27 41.7718 104.436 41.3916L104.07 41.2315ZM103.445 42.1761L103.15 41.9054C102.922 42.154 102.63 42.3602 102.268 42.5205L102.429 42.8864L102.591 43.2522C103.042 43.0527 103.428 42.7854 103.739 42.4469L103.445 42.1761ZM102.429 42.8864L102.266 42.5212C101.926 42.6732 101.508 42.7562 101.002 42.7562V43.1562V43.5563C101.594 43.5563 102.128 43.4593 102.592 43.2515L102.429 42.8864ZM102.209 40.4503V40.8503C102.71 40.8503 103.161 40.7074 103.537 40.4085L103.289 40.0952L103.04 39.7819C102.82 39.9564 102.55 40.0503 102.209 40.0503V40.4503ZM103.289 40.0952L103.54 40.4061C103.905 40.1107 104.172 39.7071 104.353 39.2182L103.977 39.0795L103.602 38.9409C103.461 39.3232 103.269 39.5967 103.037 39.7843L103.289 40.0952ZM103.977 39.0795L104.353 39.2182C104.534 38.7282 104.619 38.1679 104.619 37.5455H104.219H103.819C103.819 38.0972 103.743 38.5597 103.602 38.9409L103.977 39.0795ZM104.219 37.5455H104.619C104.619 36.9145 104.534 36.351 104.352 35.8643L103.977 36.0043L103.603 36.1443C103.743 36.5193 103.819 36.9832 103.819 37.5455H104.219ZM103.977 36.0043L104.353 35.8679C104.176 35.3797 103.907 34.9794 103.532 34.6923L103.289 35.0099L103.045 35.3275C103.276 35.5045 103.466 35.767 103.601 36.1406L103.977 36.0043ZM103.289 35.0099L103.534 34.6942C103.158 34.4013 102.709 34.2619 102.209 34.2619V34.6619V35.0619C102.552 35.0619 102.823 35.1546 103.043 35.3257L103.289 35.0099ZM102.209 34.6619V34.2619C101.7 34.2619 101.245 34.4035 100.867 34.7037L101.115 35.017L101.364 35.3304C101.582 35.1571 101.856 35.0619 102.209 35.0619V34.6619ZM101.115 35.017L100.867 34.7037C100.499 34.9951 100.234 35.3958 100.057 35.8821L100.433 36.0185L100.809 36.1548C100.946 35.7793 101.134 35.5125 101.364 35.3304L101.115 35.017ZM100.433 36.0185L100.056 35.8858C99.886 36.3695 99.8062 36.9254 99.8062 37.5455H100.206H100.606C100.606 36.9913 100.678 36.5292 100.811 36.1512L100.433 36.0185ZM100.206 37.5455H99.8062C99.8062 38.1668 99.8887 38.7258 100.064 39.2146L100.441 39.0795L100.817 38.9445C100.68 38.5621 100.606 38.0983 100.606 37.5455H100.206ZM100.441 39.0795L100.064 39.2146C100.239 39.7034 100.501 40.1077 100.861 40.4041L101.115 40.0952L101.369 39.7863C101.143 39.5997 100.954 39.3269 100.817 38.9445L100.441 39.0795ZM101.115 40.0952L100.867 40.4085C101.245 40.7087 101.7 40.8503 102.209 40.8503V40.4503V40.0503C101.856 40.0503 101.582 39.9552 101.364 39.7819L101.115 40.0952ZM109.81 43H109.41V43.4H109.81V43ZM109.81 32.0909V31.6909H109.41V32.0909H109.81ZM113.283 32.0909H113.683V31.6909H113.283V32.0909ZM113.283 43V43.4H113.683V43H113.283ZM110.293 30.3366L110.02 30.6292L110.023 30.6312L110.293 30.3366ZM110.293 27.9929L110.564 28.2874L110.566 28.2855L110.293 27.9929ZM112.807 27.9929L112.533 28.2836L112.537 28.2874L112.807 27.9929ZM112.807 30.3366L113.08 30.6293L113.08 30.6292L112.807 30.3366ZM109.81 43H110.21V32.0909H109.81H109.41V43H109.81ZM109.81 32.0909V32.4909H113.283V32.0909V31.6909H109.81V32.0909ZM113.283 32.0909H112.883V43H113.283H113.683V32.0909H113.283ZM113.283 43V42.6H109.81V43V43.4H113.283V43ZM111.55 30.8196V30.4196C111.16 30.4196 110.838 30.2944 110.564 30.0421L110.293 30.3366L110.023 30.6312C110.449 31.0228 110.965 31.2196 111.55 31.2196V30.8196ZM110.293 30.3366L110.566 30.0441C110.293 29.7894 110.168 29.5007 110.168 29.1577H109.768H109.368C109.368 29.7332 109.593 30.2305 110.02 30.6292L110.293 30.3366ZM109.768 29.1577H110.168C110.168 28.8209 110.292 28.5377 110.564 28.2874L110.293 27.9929L110.023 27.6984C109.594 28.0921 109.368 28.5854 109.368 29.1577H109.768ZM110.293 27.9929L110.566 28.2855C110.841 28.0292 111.162 27.9028 111.55 27.9028V27.5028V27.1028C110.963 27.1028 110.446 27.3032 110.02 27.7003L110.293 27.9929ZM111.55 27.5028V27.9028C111.944 27.9028 112.264 28.0298 112.533 28.2836L112.807 27.9929L113.082 27.7022C112.659 27.3026 112.141 27.1028 111.55 27.1028V27.5028ZM112.807 27.9929L112.537 28.2874C112.809 28.5377 112.933 28.8209 112.933 29.1577H113.333H113.733C113.733 28.5854 113.506 28.0921 113.078 27.6984L112.807 27.9929ZM113.333 29.1577H112.933C112.933 29.5007 112.808 29.7894 112.535 30.0441L112.807 30.3366L113.08 30.6292C113.508 30.2305 113.733 29.7332 113.733 29.1577H113.333ZM112.807 30.3366L112.535 30.044C112.267 30.2938 111.946 30.4196 111.55 30.4196V30.8196V31.2196C112.139 31.2196 112.657 31.0234 113.08 30.6293L112.807 30.3366ZM118.967 36.7784L118.567 36.7739V36.7784H118.967ZM118.967 43V43.4H119.367V43H118.967ZM115.494 43H115.094V43.4H115.494V43ZM115.494 32.0909V31.6909H115.094V32.0909H115.494ZM118.796 32.0909H119.196V31.6909H118.796V32.0909ZM118.796 34.0938H118.396V34.4938H118.796V34.0938ZM118.917 34.0938V34.4938H119.198L119.293 34.2298L118.917 34.0938ZM120.153 32.5241L120.371 32.8595L120.373 32.8582L120.153 32.5241ZM124.23 32.4673L124.02 32.8083L124.024 32.8103L124.23 32.4673ZM125.551 33.902L125.194 34.0831L125.196 34.0864L125.551 33.902ZM126.019 36.0469L125.619 36.0446V36.0469H126.019ZM126.019 43V43.4H126.419V43H126.019ZM122.546 43H122.146V43.4H122.546V43ZM122.546 36.7287L122.146 36.7256V36.7287H122.546ZM122.085 35.3082L121.788 35.5763L121.79 35.5785L122.085 35.3082ZM119.833 35.0384L120.031 35.386L120.033 35.3849L119.833 35.0384ZM119.194 35.7131L118.839 35.5296L118.836 35.5342L119.194 35.7131ZM118.967 36.7784H118.567V43H118.967H119.367V36.7784H118.967ZM118.967 43V42.6H115.494V43V43.4H118.967V43ZM115.494 43H115.894V32.0909H115.494H115.094V43H115.494ZM115.494 32.0909V32.4909H118.796V32.0909V31.6909H115.494V32.0909ZM118.796 32.0909H118.396V34.0938H118.796H119.196V32.0909H118.796ZM118.796 34.0938V34.4938H118.917V34.0938V33.6937H118.796V34.0938ZM118.917 34.0938L119.293 34.2298C119.506 33.6421 119.863 33.1897 120.371 32.8595L120.153 32.5241L119.935 32.1888C119.278 32.6162 118.811 33.2102 118.541 33.9577L118.917 34.0938ZM120.153 32.5241L120.373 32.8582C120.88 32.524 121.495 32.3489 122.234 32.3489V31.9489V31.5489C121.363 31.5489 120.59 31.7572 119.933 32.1901L120.153 32.5241ZM122.234 31.9489V32.3489C122.939 32.3489 123.529 32.5071 124.02 32.8083L124.23 32.4673L124.439 32.1264C123.803 31.7363 123.063 31.5489 122.234 31.5489V31.9489ZM124.23 32.4673L124.024 32.8103C124.525 33.1109 124.914 33.5317 125.194 34.0831L125.551 33.902L125.907 33.7209C125.562 33.0412 125.071 32.5056 124.435 32.1243L124.23 32.4673ZM125.551 33.902L125.196 34.0864C125.478 34.6295 125.624 35.2781 125.619 36.0446L126.019 36.0469L126.419 36.0492C126.424 35.1774 126.258 34.3961 125.906 33.7176L125.551 33.902ZM126.019 36.0469H125.619V43H126.019H126.419V36.0469H126.019ZM126.019 43V42.6H122.546V43V43.4H126.019V43ZM122.546 43H122.946V36.7287H122.546H122.146V43H122.546ZM122.546 36.7287L122.946 36.7318C122.952 36.0569 122.78 35.4742 122.38 35.0379L122.085 35.3082L121.79 35.5785C122.015 35.8241 122.151 36.1884 122.146 36.7256L122.546 36.7287ZM122.085 35.3082L122.382 35.0402C121.983 34.5989 121.437 34.3969 120.799 34.3969V34.7969V35.1969C121.259 35.1969 121.571 35.3358 121.788 35.5763L122.085 35.3082ZM120.799 34.7969V34.3969C120.374 34.3969 119.981 34.4914 119.634 34.6918L119.833 35.0384L120.033 35.3849C120.244 35.2633 120.495 35.1969 120.799 35.1969V34.7969ZM119.833 35.0384L119.635 34.6907C119.29 34.887 119.024 35.1705 118.839 35.5296L119.194 35.7131L119.55 35.8965C119.667 35.6685 119.827 35.5022 120.031 35.386L119.833 35.0384ZM119.194 35.7131L118.836 35.5342C118.656 35.8945 118.572 36.3125 118.567 36.7739L118.967 36.7784L119.367 36.783C119.371 36.411 119.438 36.1188 119.552 35.892L119.194 35.7131ZM129.391 42.8366L129.229 43.2025L129.233 43.2041L129.391 42.8366ZM128.12 41.7713L127.783 41.9878L127.786 41.9916L128.12 41.7713ZM127.978 38.4403L127.622 38.2582L127.622 38.2582L127.978 38.4403ZM128.858 37.4247L129.087 37.753L129.087 37.753L128.858 37.4247ZM130.151 36.8352L130.256 37.2212L130.26 37.2203L130.151 36.8352ZM131.714 36.5582L131.748 36.9568L131.75 36.9566L131.714 36.5582ZM133.212 36.3807L133.276 36.7755L133.281 36.7747L133.212 36.3807ZM134.036 36.1037L134.264 36.4322L134.266 36.431L134.036 36.1037ZM133.922 34.7045L134.171 34.391L134.171 34.391L133.922 34.7045ZM131.799 34.7045L131.567 34.3787L131.567 34.3787L131.799 34.7045ZM131.266 35.5284L131.252 35.9282L131.586 35.94L131.657 35.6129L131.266 35.5284ZM128.063 35.4148L127.667 35.3582L127.604 35.7987L128.049 35.8145L128.063 35.4148ZM128.795 33.6392L128.476 33.3978L128.475 33.3983L128.795 33.6392ZM130.428 32.4034L130.587 32.7707L130.588 32.7702L130.428 32.4034ZM134.86 32.1974L134.751 32.5824L134.754 32.5832L134.86 32.1974ZM136.394 32.9077L136.161 33.2327L136.163 33.2344L136.394 32.9077ZM137.403 34.044L137.049 34.2303L137.05 34.2332L137.403 34.044ZM137.765 43V43.4H138.165V43H137.765ZM134.498 43H134.098V43.4H134.498V43ZM134.498 41.4801H134.898V41.0801H134.498V41.4801ZM134.412 41.4801V41.0801H134.171L134.058 41.294L134.412 41.4801ZM133.667 42.4176L133.409 42.1119L133.406 42.1139L133.667 42.4176ZM132.608 42.9929L132.489 42.6113L132.487 42.6117L132.608 42.9929ZM133.326 40.6847L133.147 40.3269L133.145 40.328L133.326 40.6847ZM134.05 40.0597L134.381 40.2843L134.383 40.2815L134.05 40.0597ZM134.32 38.0852H134.72V37.4241L134.135 37.7309L134.32 38.0852ZM133.958 38.2273L133.843 37.8441L133.839 37.8452L133.958 38.2273ZM132.992 38.4474L133.056 38.8423L133.056 38.8423L132.992 38.4474ZM132.488 38.5256L132.43 38.1298L132.425 38.1306L132.488 38.5256ZM131.65 38.767L131.48 38.4049L131.477 38.4063L131.65 38.767ZM131.124 39.1932L130.797 38.9632L130.796 38.965L131.124 39.1932ZM131.33 40.6278L131.092 40.9493L131.095 40.9513L131.33 40.6278ZM131.245 43.1847V42.7847C130.593 42.7847 130.031 42.6761 129.549 42.4692L129.391 42.8366L129.233 43.2041C129.831 43.4612 130.504 43.5847 131.245 43.5847V43.1847ZM129.391 42.8366L129.553 42.4709C129.086 42.2641 128.723 41.9584 128.454 41.551L128.12 41.7713L127.786 41.9916C128.142 42.5312 128.627 42.9357 129.229 43.2024L129.391 42.8366ZM128.12 41.7713L128.456 41.5548C128.2 41.1563 128.058 40.6376 128.058 39.9744H127.658H127.258C127.258 40.7506 127.424 41.4298 127.783 41.9878L128.12 41.7713ZM127.658 39.9744H128.058C128.058 39.4136 128.157 38.9686 128.334 38.6225L127.978 38.4403L127.622 38.2582C127.373 38.7454 127.258 39.3231 127.258 39.9744H127.658ZM127.978 38.4403L128.334 38.6225C128.518 38.2626 128.768 37.9749 129.087 37.753L128.858 37.4247L128.63 37.0964C128.201 37.3954 127.864 37.7847 127.622 38.2582L127.978 38.4403ZM128.858 37.4247L129.087 37.753C129.42 37.5214 129.808 37.3431 130.256 37.2212L130.151 36.8352L130.046 36.4492C129.519 36.5925 129.045 36.8072 128.63 37.0964L128.858 37.4247ZM130.151 36.8352L130.26 37.2203C130.721 37.0904 131.216 37.0022 131.748 36.9568L131.714 36.5582L131.68 36.1597C131.103 36.209 130.557 36.3054 130.043 36.4502L130.151 36.8352ZM131.714 36.5582L131.75 36.9566C132.375 36.8994 132.885 36.8392 133.276 36.7755L133.212 36.3807L133.148 35.9859C132.782 36.0453 132.293 36.1035 131.677 36.1599L131.714 36.5582ZM133.212 36.3807L133.281 36.7747C133.676 36.7055 134.021 36.6011 134.264 36.4322L134.036 36.1037L133.808 35.7751C133.71 35.843 133.505 35.9233 133.143 35.9867L133.212 36.3807ZM134.036 36.1037L134.266 36.431C134.553 36.2295 134.699 35.932 134.699 35.5852H134.299H133.899C133.899 35.6836 133.87 35.7316 133.806 35.7764L134.036 36.1037ZM134.299 35.5852H134.699V35.5497H134.299H133.899V35.5852H134.299ZM134.299 35.5497H134.699C134.699 35.0821 134.532 34.6769 134.171 34.391L133.922 34.7045L133.674 35.018C133.815 35.1299 133.899 35.2881 133.899 35.5497H134.299ZM133.922 34.7045L134.171 34.391C133.829 34.1201 133.393 34.0062 132.907 34.0062V34.4062V34.8063C133.273 34.8063 133.514 34.8913 133.674 35.018L133.922 34.7045ZM132.907 34.4062V34.0062C132.392 34.0062 131.934 34.1176 131.567 34.3787L131.799 34.7045L132.031 35.0304C132.223 34.8937 132.503 34.8063 132.907 34.8063V34.4062ZM131.799 34.7045L131.567 34.3787C131.202 34.6382 130.971 35.0009 130.875 35.4439L131.266 35.5284L131.657 35.6129C131.713 35.3552 131.837 35.1686 132.031 35.0304L131.799 34.7045ZM131.266 35.5284L131.28 35.1287L128.077 35.015L128.063 35.4148L128.049 35.8145L131.252 35.9282L131.266 35.5284ZM128.063 35.4148L128.459 35.4713C128.544 34.8736 128.763 34.3455 129.114 33.8801L128.795 33.6392L128.475 33.3983C128.04 33.9746 127.771 34.6302 127.667 35.3582L128.063 35.4148ZM128.795 33.6392L129.114 33.8806C129.464 33.4176 129.95 33.0455 130.587 32.7707L130.428 32.4034L130.27 32.0361C129.524 32.3579 128.921 32.8097 128.476 33.3978L128.795 33.6392ZM130.428 32.4034L130.588 32.7702C131.221 32.4944 132 32.3489 132.935 32.3489V31.9489V31.5489C131.92 31.5489 131.027 31.7064 130.268 32.0367L130.428 32.4034ZM132.935 31.9489V32.3489C133.6 32.3489 134.204 32.428 134.751 32.5824L134.86 32.1974L134.969 31.8125C134.342 31.6355 133.663 31.5489 132.935 31.5489V31.9489ZM134.86 32.1974L134.754 32.5832C135.302 32.7333 135.769 32.9513 136.161 33.2327L136.394 32.9077L136.627 32.5827C136.148 32.239 135.592 31.9835 134.966 31.8117L134.86 32.1974ZM136.394 32.9077L136.163 33.2344C136.55 33.5075 136.843 33.8391 137.049 34.2303L137.403 34.044L137.757 33.8577C137.489 33.3493 137.109 32.9233 136.625 32.581L136.394 32.9077ZM137.403 34.044L137.05 34.2332C137.256 34.6176 137.365 35.0648 137.365 35.5852H137.765H138.165C138.165 34.9503 138.032 34.3701 137.755 33.8548L137.403 34.044ZM137.765 35.5852H137.365V43H137.765H138.165V35.5852H137.765ZM137.765 43V42.6H134.498V43V43.4H137.765V43ZM134.498 43H134.898V41.4801H134.498H134.098V43H134.498ZM134.498 41.4801V41.0801H134.412V41.4801V41.8801H134.498V41.4801ZM134.412 41.4801L134.058 41.294C133.887 41.6201 133.67 41.8912 133.409 42.1119L133.667 42.4176L133.925 42.7233C134.269 42.4326 134.55 42.0788 134.767 41.6662L134.412 41.4801ZM133.667 42.4176L133.406 42.1139C133.153 42.3314 132.849 42.4982 132.489 42.6113L132.608 42.9929L132.728 43.3745C133.183 43.2319 133.584 43.0152 133.927 42.7213L133.667 42.4176ZM132.608 42.9929L132.487 42.6117C132.131 42.7249 131.718 42.7847 131.245 42.7847V43.1847V43.5847C131.785 43.5847 132.281 43.5166 132.73 43.3741L132.608 42.9929ZM132.317 40.9119V41.3119C132.747 41.3119 133.146 41.2245 133.507 41.0413L133.326 40.6847L133.145 40.328C132.909 40.4478 132.636 40.5119 132.317 40.5119V40.9119ZM133.326 40.6847L133.505 41.0424C133.865 40.8621 134.161 40.6094 134.381 40.2843L134.05 40.0597L133.719 39.8351C133.58 40.0403 133.392 40.2042 133.147 40.3269L133.326 40.6847ZM134.05 40.0597L134.383 40.2815C134.611 39.9397 134.72 39.5484 134.72 39.1222H134.32H133.92C133.92 39.4061 133.849 39.6398 133.717 39.8378L134.05 40.0597ZM134.32 39.1222H134.72V38.0852H134.32H133.92V39.1222H134.32ZM134.32 38.0852L134.135 37.7309C134.064 37.7681 133.968 37.8067 133.843 37.8441L133.958 38.2273L134.073 38.6104C134.232 38.5626 134.378 38.5065 134.506 38.4396L134.32 38.0852ZM133.958 38.2273L133.839 37.8452C133.713 37.8844 133.572 37.9221 133.414 37.9581L133.503 38.348L133.593 38.738C133.766 38.6982 133.928 38.6554 134.076 38.6093L133.958 38.2273ZM133.503 38.348L133.414 37.9581C133.257 37.994 133.095 38.0255 132.928 38.0526L132.992 38.4474L133.056 38.8423C133.239 38.8126 133.418 38.7778 133.593 38.738L133.503 38.348ZM132.992 38.4474L132.928 38.0526C132.755 38.0807 132.588 38.1065 132.43 38.1298L132.488 38.5256L132.546 38.9213C132.709 38.8973 132.879 38.871 133.056 38.8423L132.992 38.4474ZM132.488 38.5256L132.425 38.1306C132.071 38.1869 131.754 38.2763 131.48 38.405L131.65 38.767L131.82 39.1291C132.01 39.04 132.251 38.9684 132.551 38.9206L132.488 38.5256ZM131.65 38.767L131.477 38.4063C131.199 38.5396 130.966 38.7227 130.797 38.9632L131.124 39.1932L131.451 39.4232C131.529 39.3133 131.646 39.2123 131.823 39.1278L131.65 38.767ZM131.124 39.1932L130.796 38.965C130.624 39.2116 130.547 39.4976 130.547 39.804H130.947H131.347C131.347 39.6369 131.387 39.5157 131.453 39.4213L131.124 39.1932ZM130.947 39.804H130.547C130.547 40.2715 130.72 40.6738 131.092 40.9493L131.33 40.6278L131.568 40.3064C131.429 40.2031 131.347 40.0561 131.347 39.804H130.947ZM131.33 40.6278L131.095 40.9513C131.438 41.2011 131.855 41.3119 132.317 41.3119V40.9119V40.5119C131.984 40.5119 131.743 40.4333 131.565 40.3043L131.33 40.6278ZM142.31 46.8849L142.165 47.2575L142.165 47.2575L142.31 46.8849ZM140.57 45.6989L140.264 45.9561L140.264 45.9561L140.57 45.6989ZM139.81 43.9943L139.788 43.5949L139.356 43.6192L139.414 44.0476L139.81 43.9943ZM143.099 43.8097L143.484 43.703L143.398 43.3922L143.076 43.4103L143.099 43.8097ZM143.439 44.392L143.157 44.6749L143.161 44.6788L143.439 44.392ZM144.1 44.7756L143.973 45.155L143.975 45.1557L144.1 44.7756ZM146.508 44.4844L146.272 44.161L146.268 44.1644L146.508 44.4844ZM147.083 41.0966H147.483V40.6966H147.083V41.0966ZM146.962 41.0966V40.6966H146.693L146.592 40.9453L146.962 41.0966ZM146.337 41.9986L146.613 42.2887L146.613 42.2887L146.337 41.9986ZM145.293 42.6236L145.156 42.2477L145.155 42.2482L145.293 42.6236ZM141.685 42.2969L141.488 42.6446L141.491 42.6463L141.685 42.2969ZM140.101 40.5639L139.744 40.7428L139.745 40.7454L140.101 40.5639ZM140.123 34.3849L140.481 34.5622L140.482 34.5614L140.123 34.3849ZM141.721 32.5455L141.515 32.2025L141.514 32.2031L141.721 32.5455ZM145.329 32.2472L145.153 32.6066L145.158 32.609L145.329 32.2472ZM146.344 33L146.041 33.2611L146.041 33.2611L146.344 33ZM146.948 33.9588L146.578 34.1119L146.681 34.3588H146.948V33.9588ZM147.047 33.9588V34.3588H147.447V33.9588H147.047ZM147.047 32.0909V31.6909H146.647V32.0909H147.047ZM150.506 32.0909H150.906V31.6909H150.506V32.0909ZM147.864 46.821L147.718 46.4486L147.716 46.4493L147.864 46.821ZM146.849 39.0298L147.222 39.174L147.222 39.174L146.849 39.0298ZM146.849 36.0043L146.472 36.1406L146.474 36.1456L146.849 36.0043ZM146.16 35.0099L145.914 35.3257L145.916 35.3275L146.16 35.0099ZM143.986 35.017L144.235 35.3304L143.986 35.017ZM143.305 36.0185L142.928 35.8821L142.928 35.8845L143.305 36.0185ZM143.986 39.9886L143.745 40.3074L143.747 40.3092L143.986 39.9886ZM144.974 47.3182V46.9182C143.972 46.9182 143.136 46.7785 142.456 46.5124L142.31 46.8849L142.165 47.2575C142.961 47.5691 143.901 47.7182 144.974 47.7182V47.3182ZM142.31 46.8849L142.456 46.5124C141.767 46.2429 141.247 45.8825 140.876 45.4417L140.57 45.6989L140.264 45.9561C140.736 46.519 141.377 46.9494 142.165 47.2575L142.31 46.8849ZM140.57 45.6989L140.876 45.4417C140.503 44.9964 140.282 44.4985 140.207 43.9411L139.81 43.9943L139.414 44.0476C139.509 44.7591 139.795 45.3976 140.264 45.9561L140.57 45.6989ZM139.81 43.9943L139.833 44.3937L143.121 44.209L143.099 43.8097L143.076 43.4103L139.788 43.5949L139.81 43.9943ZM143.099 43.8097L142.713 43.9163C142.793 44.2065 142.943 44.4611 143.157 44.6749L143.439 44.392L143.722 44.1092C143.605 43.9916 143.527 43.8579 143.484 43.703L143.099 43.8097ZM143.439 44.392L143.161 44.6788C143.382 44.894 143.658 45.0497 143.973 45.155L144.1 44.7756L144.226 44.3961C144.003 44.3215 143.838 44.2216 143.718 44.1052L143.439 44.392ZM144.1 44.7756L143.975 45.1557C144.3 45.2619 144.665 45.3105 145.066 45.3105V44.9105V44.5105C144.728 44.5105 144.45 44.4692 144.224 44.3954L144.1 44.7756ZM145.066 44.9105V45.3105C145.715 45.3105 146.285 45.1514 146.748 44.8044L146.508 44.4844L146.268 44.1644C145.973 44.3855 145.582 44.5105 145.066 44.5105V44.9105ZM146.508 44.4844L146.743 44.8077C147.273 44.422 147.483 43.7789 147.483 43.0142H147.083H146.683C146.683 43.651 146.51 43.988 146.272 44.1611L146.508 44.4844ZM147.083 43.0142H147.483V41.0966H147.083H146.683V43.0142H147.083ZM147.083 41.0966V40.6966H146.962V41.0966V41.4966H147.083V41.0966ZM146.962 41.0966L146.592 40.9453C146.477 41.2259 146.303 41.4799 146.062 41.7085L146.337 41.9986L146.613 42.2887C146.931 41.9869 147.172 41.6397 147.332 41.2478L146.962 41.0966ZM146.337 41.9986L146.062 41.7085C145.828 41.9305 145.529 42.1121 145.156 42.2477L145.293 42.6236L145.43 42.9995C145.89 42.832 146.288 42.597 146.613 42.2887L146.337 41.9986ZM145.293 42.6236L145.155 42.2482C144.796 42.3803 144.371 42.4509 143.873 42.4509V42.8509V43.2509C144.445 43.2509 144.967 43.1699 145.431 42.999L145.293 42.6236ZM143.873 42.8509V42.4509C143.142 42.4509 142.48 42.282 141.88 41.9474L141.685 42.2969L141.491 42.6463C142.216 43.0504 143.013 43.2509 143.873 43.2509V42.8509ZM141.685 42.2969L141.883 41.9491C141.303 41.6196 140.826 41.1052 140.458 40.3824L140.101 40.5639L139.745 40.7454C140.172 41.5851 140.751 42.2261 141.488 42.6446L141.685 42.2969ZM140.101 40.5639L140.459 40.385C140.103 39.6725 139.912 38.7286 139.912 37.5312H139.512H139.112C139.112 38.8055 139.314 39.8834 139.744 40.7428L140.101 40.5639ZM139.512 37.5312H139.912C139.912 36.2967 140.11 35.3139 140.481 34.5622L140.123 34.3849L139.764 34.2077C139.321 35.1037 139.112 36.2185 139.112 37.5312H139.512ZM140.123 34.3849L140.482 34.5614C140.862 33.7876 141.347 33.2386 141.928 32.8878L141.721 32.5455L141.514 32.2031C140.778 32.6478 140.198 33.3251 139.764 34.2085L140.123 34.3849ZM141.721 32.5455L141.927 32.8885C142.528 32.5275 143.17 32.3489 143.858 32.3489V31.9489V31.5489C143.023 31.5489 142.239 31.768 141.515 32.2025L141.721 32.5455ZM143.858 31.9489V32.3489C144.386 32.3489 144.813 32.4405 145.153 32.6066L145.329 32.2472L145.504 31.8877C145.03 31.6561 144.477 31.5489 143.858 31.5489V31.9489ZM145.329 32.2472L145.158 32.609C145.525 32.7821 145.817 33.0007 146.041 33.2611L146.344 33L146.647 32.7389C146.341 32.3838 145.956 32.1005 145.499 31.8853L145.329 32.2472ZM146.344 33L146.041 33.2611C146.282 33.5408 146.459 33.8246 146.578 34.1119L146.948 33.9588L147.318 33.8057C147.162 33.4301 146.937 33.0747 146.647 32.7389L146.344 33ZM146.948 33.9588V34.3588H147.047V33.9588V33.5588H146.948V33.9588ZM147.047 33.9588H147.447V32.0909H147.047H146.647V33.9588H147.047ZM147.047 32.0909V32.4909H150.506V32.0909V31.6909H147.047V32.0909ZM150.506 32.0909H150.106V43.0426H150.506H150.906V32.0909H150.506ZM150.506 43.0426H150.106C150.106 43.8963 149.893 44.5886 149.487 45.1431L149.81 45.3793L150.133 45.6154C150.656 44.901 150.906 44.0355 150.906 43.0426H150.506ZM149.81 45.3793L149.487 45.1431C149.074 45.7081 148.491 46.1457 147.718 46.4486L147.864 46.821L148.01 47.1934C148.904 46.843 149.618 46.3193 150.133 45.6154L149.81 45.3793ZM147.864 46.821L147.716 46.4493C146.939 46.7585 146.027 46.9182 144.974 46.9182V47.3182V47.7182C146.107 47.7182 147.123 47.5465 148.012 47.1927L147.864 46.821ZM145.08 40.3224V40.7224C145.576 40.7224 146.022 40.59 146.399 40.3092L146.16 39.9886L145.92 39.668C145.7 39.8323 145.427 39.9224 145.08 39.9224V40.3224ZM146.16 39.9886L146.399 40.3092C146.769 40.0334 147.039 39.6467 147.222 39.174L146.849 39.0298L146.475 38.8857C146.336 39.2463 146.147 39.4988 145.92 39.668L146.16 39.9886ZM146.849 39.0298L147.222 39.174C147.405 38.6997 147.49 38.1487 147.49 37.5312H147.09H146.69C146.69 38.0786 146.614 38.5266 146.475 38.8857L146.849 39.0298ZM147.09 37.5312H147.49C147.49 36.9048 147.405 36.3455 147.223 35.8629L146.849 36.0043L146.474 36.1456C146.614 36.5153 146.69 36.974 146.69 37.5312H147.09ZM146.849 36.0043L147.225 35.8679C147.048 35.3797 146.778 34.9794 146.403 34.6923L146.16 35.0099L145.916 35.3275C146.148 35.5045 146.337 35.767 146.473 36.1406L146.849 36.0043ZM146.16 35.0099L146.405 34.6942C146.029 34.4013 145.58 34.2619 145.08 34.2619V34.6619V35.0619C145.423 35.0619 145.694 35.1546 145.914 35.3257L146.16 35.0099ZM145.08 34.6619V34.2619C144.571 34.2619 144.116 34.4035 143.738 34.7037L143.986 35.017L144.235 35.3304C144.453 35.1571 144.727 35.0619 145.08 35.0619V34.6619ZM143.986 35.017L143.738 34.7037C143.371 34.9951 143.105 35.3958 142.928 35.8821L143.305 36.0185L143.681 36.1548C143.817 35.7793 144.006 35.5125 144.235 35.3304L143.986 35.017ZM143.305 36.0185L142.928 35.8845C142.757 36.364 142.677 36.9157 142.677 37.5312H143.077H143.477C143.477 36.982 143.549 36.5252 143.681 36.1525L143.305 36.0185ZM143.077 37.5312H142.677C142.677 38.1476 142.76 38.6972 142.937 39.1703L143.312 39.0298L143.686 38.8894C143.551 38.5291 143.477 38.0797 143.477 37.5312H143.077ZM143.312 39.0298L142.937 39.1703C143.114 39.6429 143.379 40.0305 143.745 40.3074L143.986 39.9886L144.228 39.6699C144.006 39.5017 143.821 39.2501 143.686 38.8894L143.312 39.0298ZM143.986 39.9886L143.747 40.3092C144.125 40.5912 144.577 40.7224 145.08 40.7224V40.3224V39.9224C144.721 39.9224 144.444 39.8312 144.226 39.668L143.986 39.9886ZM154.865 42.5312L154.672 42.8815L154.674 42.8828L154.865 42.5312ZM152.962 40.5923L152.607 40.7776L152.609 40.7799L152.962 40.5923ZM152.969 34.6335L153.323 34.8203L153.323 34.8195L152.969 34.6335ZM154.851 32.6591L155.051 33.0053L155.053 33.0044L154.851 32.6591ZM159.844 32.3111L159.984 31.9365L159.984 31.9365L159.844 32.3111ZM162.607 35.1378L162.232 35.278L162.232 35.2788L162.607 35.1378ZM162.997 38.3835V38.7835H163.397V38.3835H162.997ZM153.516 38.3835H153.116V38.7835H153.516V38.3835ZM153.516 36.3665V35.9665H153.116V36.3665H153.516ZM159.766 36.3665V36.7665H160.171L160.166 36.3613L159.766 36.3665ZM158.8 34.7045L158.603 35.0529L158.61 35.0566L158.8 34.7045ZM156.74 34.7188L156.934 35.0687L156.938 35.0664L156.74 34.7188ZM156.009 35.4219L156.35 35.6309L156.351 35.6285L156.009 35.4219ZM155.725 36.4233L155.325 36.4132V36.4233H155.725ZM155.987 39.6477L155.633 39.8326L155.634 39.8347L155.987 39.6477ZM156.733 40.4219L156.534 40.7689L156.534 40.7689L156.733 40.4219ZM158.722 40.571L158.85 40.9498L158.85 40.9498L158.722 40.571ZM159.368 40.1946L159.639 40.4888L159.639 40.4888L159.368 40.1946ZM159.773 39.5838L159.784 39.184L159.498 39.1757L159.398 39.4442L159.773 39.5838ZM162.962 39.6761L163.355 39.7491L163.44 39.2898L162.973 39.2763L162.962 39.6761ZM162.088 41.544L161.783 41.2853L161.783 41.2855L162.088 41.544ZM160.334 42.7727L160.482 43.1443L160.484 43.1434L160.334 42.7727ZM157.82 43.206V42.806C156.731 42.806 155.815 42.5917 155.056 42.1797L154.865 42.5312L154.674 42.8828C155.573 43.3704 156.626 43.606 157.82 43.606V43.206ZM154.865 42.5312L155.058 42.181C154.303 41.7643 153.724 41.1748 153.315 40.4047L152.962 40.5923L152.609 40.7799C153.09 41.686 153.78 42.3891 154.672 42.8815L154.865 42.5312ZM152.962 40.5923L153.316 40.4071C152.912 39.6327 152.701 38.6976 152.701 37.5881H152.301H151.901C151.901 38.7986 152.131 39.8663 152.607 40.7776L152.962 40.5923ZM152.301 37.5881H152.701C152.701 36.5144 152.913 35.5959 153.323 34.8203L152.969 34.6335L152.615 34.4467C152.135 35.3567 151.901 36.4079 151.901 37.5881H152.301ZM152.969 34.6335L153.323 34.8195C153.734 34.0372 154.309 33.4353 155.051 33.0053L154.851 32.6591L154.651 32.3129C153.774 32.8204 153.094 33.5348 152.615 34.4476L152.969 34.6335ZM154.851 32.6591L155.053 33.0044C155.792 32.5724 156.673 32.3489 157.713 32.3489V31.9489V31.5489C156.556 31.5489 155.53 31.7988 154.649 32.3138L154.851 32.6591ZM157.713 31.9489V32.3489C158.448 32.3489 159.11 32.463 159.703 32.6856L159.844 32.3111L159.984 31.9365C159.29 31.6762 158.532 31.5489 157.713 31.5489V31.9489ZM159.844 32.3111L159.703 32.6856C160.295 32.9075 160.802 33.2339 161.229 33.6649L161.513 33.3835L161.797 33.1021C161.287 32.5862 160.681 32.1976 159.984 31.9365L159.844 32.3111ZM161.513 33.3835L161.229 33.6649C161.653 34.0938 161.989 34.6287 162.232 35.278L162.607 35.1378L162.981 34.9976C162.703 34.2548 162.31 33.6202 161.797 33.1021L161.513 33.3835ZM162.607 35.1378L162.232 35.2788C162.473 35.9166 162.597 36.6604 162.597 37.517H162.997H163.397C163.397 36.5839 163.262 35.7415 162.981 34.9968L162.607 35.1378ZM162.997 37.517H162.597V38.3835H162.997H163.397V37.517H162.997ZM162.997 38.3835V37.9835H153.516V38.3835V38.7835H162.997V38.3835ZM153.516 38.3835H153.916V36.3665H153.516H153.116V38.3835H153.516ZM153.516 36.3665V36.7665H159.766V36.3665V35.9665H153.516V36.3665ZM159.766 36.3665L160.166 36.3613C160.16 35.9295 160.057 35.5308 159.848 35.176L159.503 35.3793L159.159 35.5826C159.29 35.8053 159.362 36.0648 159.366 36.3716L159.766 36.3665ZM159.503 35.3793L159.848 35.176C159.64 34.8237 159.352 34.5477 158.99 34.3525L158.8 34.7045L158.61 35.0566C158.845 35.1833 159.026 35.3571 159.159 35.5826L159.503 35.3793ZM158.8 34.7045L158.997 34.3562C158.635 34.1522 158.227 34.056 157.784 34.056V34.456V34.856C158.109 34.856 158.378 34.9255 158.603 35.0529L158.8 34.7045ZM157.784 34.456V34.056C157.334 34.056 156.916 34.1584 156.542 34.3711L156.74 34.7188L156.938 35.0664C157.18 34.9288 157.459 34.856 157.784 34.856V34.456ZM156.74 34.7188L156.546 34.3688C156.178 34.5729 155.883 34.8564 155.666 35.2153L156.009 35.4219L156.351 35.6285C156.495 35.3908 156.687 35.2055 156.934 35.0687L156.74 34.7188ZM156.009 35.4219L155.668 35.2129C155.448 35.5715 155.336 35.9751 155.325 36.4132L155.725 36.4233L156.124 36.4334C156.132 36.1234 156.21 35.8593 156.35 35.6309L156.009 35.4219ZM155.725 36.4233H155.325V38.4759H155.725H156.125V36.4233H155.725ZM155.725 38.4759H155.325C155.325 38.9741 155.423 39.4302 155.633 39.8326L155.987 39.6477L156.342 39.4629C156.201 39.1929 156.125 38.8678 156.125 38.4759H155.725ZM155.987 39.6477L155.634 39.8347C155.844 40.2323 156.146 40.5461 156.534 40.7689L156.733 40.4219L156.932 40.0749C156.677 39.9283 156.481 39.726 156.341 39.4608L155.987 39.6477ZM156.733 40.4219L156.534 40.7689C156.928 40.9946 157.383 41.0989 157.884 41.0989V40.6989V40.2989C157.495 40.2989 157.183 40.2185 156.932 40.0749L156.733 40.4219ZM157.884 40.6989V41.0989C158.228 41.0989 158.552 41.0511 158.85 40.9498L158.722 40.571L158.593 40.1923C158.39 40.2614 158.155 40.2989 157.884 40.2989V40.6989ZM158.722 40.571L158.85 40.9498C159.15 40.8481 159.415 40.6954 159.639 40.4888L159.368 40.1946L159.097 39.9004C158.962 40.0252 158.796 40.1235 158.593 40.1923L158.722 40.571ZM159.368 40.1946L159.639 40.4888C159.868 40.2782 160.037 40.0207 160.148 39.7235L159.773 39.5838L159.398 39.4442C159.329 39.6299 159.228 39.7796 159.097 39.9004L159.368 40.1946ZM159.773 39.5838L159.761 39.9836L162.95 40.076L162.962 39.6761L162.973 39.2763L159.784 39.184L159.773 39.5838ZM162.962 39.6761L162.569 39.6032C162.448 40.2529 162.186 40.8106 161.783 41.2853L162.088 41.544L162.393 41.8028C162.89 41.2168 163.21 40.5293 163.355 39.7491L162.962 39.6761ZM162.088 41.544L161.783 41.2855C161.385 41.7554 160.856 42.1294 160.184 42.402L160.334 42.7727L160.484 43.1434C161.26 42.8289 161.901 42.3838 162.394 41.8025L162.088 41.544ZM160.334 42.7727L160.186 42.4012C159.518 42.6676 158.732 42.806 157.82 42.806V43.206V43.606C158.811 43.606 159.701 43.4555 160.482 43.1443L160.334 42.7727ZM164.771 43H164.371V43.4H164.771V43ZM164.771 32.0909V31.6909H164.371V32.0909H164.771ZM168.074 32.0909H168.474V31.6909H168.074V32.0909ZM168.074 34.0938H167.674V34.4938H168.074V34.0938ZM168.194 34.0938V34.4938H168.48L168.573 34.2235L168.194 34.0938ZM169.345 32.5241L169.577 32.8502L169.577 32.8502L169.345 32.5241ZM173.223 32.5312L172.989 32.856L172.989 32.856L173.223 32.5312ZM174.253 34.0938L173.862 34.1814L173.933 34.4938H174.253V34.0938ZM174.366 34.0938V34.4938H174.66L174.748 34.2135L174.366 34.0938ZM175.559 32.5384L175.779 32.8728L175.781 32.8716L175.559 32.5384ZM180.169 32.9432L179.882 33.2219L179.883 33.2229L180.169 32.9432ZM181.135 43V43.4H181.535V43H181.135ZM177.662 43H177.262V43.4H177.662V43ZM177.243 35.2088L176.955 35.4869L176.958 35.4893L177.243 35.2088ZM175.027 35.2443L174.726 34.9803L174.726 34.9806L175.027 35.2443ZM174.622 43V43.4H175.022V43H174.622ZM171.284 43H170.884V43.4H171.284V43ZM170.872 35.2159L171.164 34.9426L171.164 34.9426L170.872 35.2159ZM168.983 34.9957L169.192 35.3369L169.197 35.3338L168.983 34.9957ZM168.436 35.6065L168.078 35.4276L168.076 35.4328L168.436 35.6065ZM168.244 43V43.4H168.644V43H168.244ZM164.771 43H165.171V32.0909H164.771H164.371V43H164.771ZM164.771 32.0909V32.4909H168.074V32.0909V31.6909H164.771V32.0909ZM168.074 32.0909H167.674V34.0938H168.074H168.474V32.0909H168.074ZM168.074 34.0938V34.4938H168.194V34.0938V33.6937H168.074V34.0938ZM168.194 34.0938L168.573 34.2235C168.775 33.6349 169.109 33.1823 169.577 32.8502L169.345 32.5241L169.113 32.1981C168.501 32.633 168.069 33.2269 167.816 33.964L168.194 34.0938ZM169.345 32.5241L169.577 32.8502C170.04 32.5209 170.601 32.3489 171.277 32.3489V31.9489V31.5489C170.457 31.5489 169.729 31.7603 169.113 32.1981L169.345 32.5241ZM171.277 31.9489V32.3489C171.963 32.3489 172.527 32.5233 172.989 32.856L173.223 32.5312L173.456 32.2065C172.839 31.7627 172.106 31.5489 171.277 31.5489V31.9489ZM173.223 32.5312L172.989 32.856C173.449 33.1866 173.737 33.6228 173.862 34.1814L174.253 34.0938L174.643 34.0061C174.475 33.2579 174.076 32.6524 173.456 32.2065L173.223 32.5312ZM174.253 34.0938V34.4938H174.366V34.0938V33.6937H174.253V34.0938ZM174.366 34.0938L174.748 34.2135C174.923 33.6569 175.261 33.2127 175.779 32.8728L175.559 32.5384L175.34 32.2039C174.674 32.6406 174.217 33.2333 173.985 33.974L174.366 34.0938ZM175.559 32.5384L175.781 32.8716C176.299 32.5277 176.918 32.3489 177.655 32.3489V31.9489V31.5489C176.782 31.5489 176.004 31.763 175.338 32.2051L175.559 32.5384ZM177.655 31.9489V32.3489C178.593 32.3489 179.322 32.646 179.882 33.2219L180.169 32.9432L180.456 32.6645C179.727 31.9146 178.781 31.5489 177.655 31.5489V31.9489ZM180.169 32.9432L179.883 33.2229C180.437 33.7887 180.735 34.5828 180.735 35.6562H181.135H181.535C181.535 34.4286 181.189 33.4139 180.455 32.6634L180.169 32.9432ZM181.135 35.6562H180.735V43H181.135H181.535V35.6562H181.135ZM181.135 43V42.6H177.662V43V43.4H181.135V43ZM177.662 43H178.062V36.4517H177.662H177.262V43H177.662ZM177.662 36.4517H178.062C178.062 35.8416 177.904 35.3112 177.528 34.9284L177.243 35.2088L176.958 35.4893C177.14 35.6746 177.262 35.9728 177.262 36.4517H177.662ZM177.243 35.2088L177.53 34.9307C177.167 34.5552 176.697 34.3756 176.156 34.3756V34.7756V35.1756C176.506 35.1756 176.76 35.2848 176.955 35.4869L177.243 35.2088ZM176.156 34.7756V34.3756C175.582 34.3756 175.089 34.568 174.726 34.9803L175.027 35.2443L175.327 35.5084C175.514 35.2956 175.774 35.1756 176.156 35.1756V34.7756ZM175.027 35.2443L174.726 34.9806C174.376 35.3795 174.222 35.8966 174.222 36.4872H174.622H175.022C175.022 36.0362 175.138 35.7247 175.328 35.508L175.027 35.2443ZM174.622 36.4872H174.222V43H174.622H175.022V36.4872H174.622ZM174.622 43V42.6H171.284V43V43.4H174.622V43ZM171.284 43H171.684V36.4162H171.284H170.884V43H171.284ZM171.284 36.4162H171.684C171.684 35.8356 171.525 35.3282 171.164 34.9426L170.872 35.2159L170.58 35.4892C170.768 35.6907 170.884 35.9835 170.884 36.4162H171.284ZM170.872 35.2159L171.164 34.9426C170.804 34.5582 170.331 34.3756 169.785 34.3756V34.7756V35.1756C170.139 35.1756 170.39 35.2865 170.58 35.4892L170.872 35.2159ZM169.785 34.7756V34.3756C169.415 34.3756 169.071 34.4663 168.769 34.6577L168.983 34.9957L169.197 35.3338C169.358 35.2316 169.55 35.1756 169.785 35.1756V34.7756ZM168.983 34.9957L168.774 34.6546C168.472 34.8392 168.241 35.1018 168.078 35.4276L168.436 35.6065L168.794 35.7854C168.896 35.581 169.029 35.4364 169.192 35.3369L168.983 34.9957ZM168.436 35.6065L168.076 35.4328C167.916 35.7629 167.844 36.1372 167.844 36.544H168.244H168.644C168.644 36.2312 168.7 35.9805 168.796 35.7803L168.436 35.6065ZM168.244 36.544H167.844V43H168.244H168.644V36.544H168.244ZM168.244 43V42.6H164.771V43V43.4H168.244V43Z" fill="black" mask="url(#path-8-outside-2_37_46)"/>
</g>
</g>
<defs>
<clipPath id="clip0_37_46">
<rect width="182.764" height="48" fill="white"/>
</clipPath>
<clipPath id="clip1_37_46">
<rect width="118" height="48" fill="white" transform="translate(64.764)"/>
</clipPath>
</defs>
</svg>
