<svg width="161" height="48" viewBox="0 0 161 48" fill="none" xmlns="http://www.w3.org/2000/svg">
<g clip-path="url(#clip0_52_31)">
<path d="M0.2323 12.1365L26.1162 19.686L52.0001 12.1365" stroke="#1E3A8A" stroke-width="1.0785"/>
<path d="M52 12.1365L26.1161 4.58708L0.232236 12.1365" stroke="#1E3A8A" stroke-width="1.0785"/>
<path d="M0 20.2253L25.8839 27.7747L51.7678 20.2253" stroke="#ADD8E6" stroke-width="1.0785"/>
<path d="M0.2323 28.314L26.1162 35.8634L52.0001 28.314" stroke="#ADD8E6" stroke-width="1.0785"/>
<path d="M0.2323 35.8635L26.1162 43.4129L52.0001 35.8635" stroke="#ADD8E6" stroke-width="1.0785"/>
<g clip-path="url(#clip1_52_31)">
<g filter="url(#filter0_d_52_31)">
<path d="M66.7172 19H65.3251L70.6163 4.45455H72.0368L77.328 19H75.9359L71.3763 6.1804H71.2768L66.7172 19ZM67.7186 13.4247H74.9345V14.6179H67.7186V13.4247ZM79.8209 19V4.45455H81.149V17.8068H88.0808V19H79.8209ZM91.0709 19V4.45455H92.399V17.8068H99.3308V19H91.0709ZM107.946 19V4.45455H116.362V5.64773H109.274V11.1236H115.702V12.3168H109.274V19H107.946ZM120.993 4.45455V19H119.665V4.45455H120.993ZM125.087 4.45455L129.114 10.7685H129.207L133.233 4.45455H134.803L130.123 11.7273L134.803 19H133.233L129.207 12.7571H129.114L125.087 19H123.518L128.269 11.7273L123.518 4.45455H125.087Z" fill="white"/>
</g>
<g filter="url(#filter1_d_52_31)">
<path d="M65.8649 43V28.4545H71.8734C72.9624 28.4545 73.9023 28.651 74.693 29.044C75.4885 29.4323 76.1016 29.991 76.5325 30.7202C76.9634 31.4446 77.1788 32.304 77.1788 33.2983C77.1788 34.3068 76.9586 35.1638 76.5183 35.8693C76.078 36.5701 75.453 37.1051 74.6433 37.4744C73.8336 37.839 72.8748 38.0213 71.7669 38.0213H67.9672V35.2514H71.1135C71.6438 35.2514 72.0865 35.1828 72.4416 35.0455C72.8014 34.9034 73.0737 34.6903 73.2584 34.4062C73.443 34.1174 73.5353 33.7481 73.5353 33.2983C73.5353 32.8485 73.443 32.4768 73.2584 32.1832C73.0737 31.8849 72.8014 31.6624 72.4416 31.5156C72.0817 31.3641 71.639 31.2884 71.1135 31.2884H69.3805V43H65.8649ZM74.0538 36.3523L77.676 43H73.8407L70.2896 36.3523H74.0538ZM83.9917 43.206C82.8506 43.206 81.8657 42.9811 81.0371 42.5312C80.2133 42.0767 79.5788 41.4304 79.1337 40.5923C78.6934 39.7495 78.4732 38.7481 78.4732 37.5881C78.4732 36.4612 78.6957 35.4763 79.1408 34.6335C79.5859 33.786 80.2133 33.1278 81.0229 32.6591C81.8326 32.1856 82.7866 31.9489 83.8851 31.9489C84.6616 31.9489 85.3719 32.0696 86.0158 32.3111C86.6598 32.5526 87.2161 32.91 87.6848 33.3835C88.1536 33.857 88.5182 34.4418 88.7786 35.1378C89.039 35.8291 89.1692 36.6222 89.1692 37.517V38.3835H79.6877V36.3665H85.9377C85.933 35.9972 85.8454 35.6681 85.6749 35.3793C85.5045 35.0904 85.2701 34.8655 84.9718 34.7045C84.6782 34.5388 84.3397 34.456 83.9562 34.456C83.5679 34.456 83.2199 34.5436 82.9121 34.7188C82.6044 34.8892 82.3605 35.1236 82.1806 35.4219C82.0007 35.7154 81.906 36.0492 81.8965 36.4233V38.4759C81.8965 38.9209 81.9841 39.3116 82.1593 39.6477C82.3345 39.9792 82.583 40.2372 82.905 40.4219C83.227 40.6065 83.6105 40.6989 84.0556 40.6989C84.3634 40.6989 84.6427 40.6562 84.8937 40.571C85.1446 40.4858 85.36 40.3603 85.54 40.1946C85.7199 40.0289 85.8548 39.8253 85.9448 39.5838L89.1337 39.6761C89.0011 40.3911 88.7099 41.0137 88.2601 41.544C87.8151 42.0696 87.2303 42.4792 86.5059 42.7727C85.7814 43.0616 84.9434 43.206 83.9917 43.206ZM97.1433 32.0909V34.6477H90.1263V32.0909H97.1433ZM91.5893 43V31.5369C91.5893 30.6941 91.7479 29.9957 92.0652 29.4418C92.3824 28.883 92.8228 28.4664 93.3862 28.1918C93.9496 27.9124 94.6007 27.7727 95.3393 27.7727C95.8223 27.7727 96.2768 27.8106 96.703 27.8864C97.1338 27.9574 97.4534 28.0213 97.6618 28.0781L97.1078 30.6207C96.9799 30.5781 96.8237 30.5426 96.639 30.5142C96.4591 30.4858 96.2887 30.4716 96.1277 30.4716C95.7205 30.4716 95.4411 30.5616 95.2896 30.7415C95.1381 30.9214 95.0623 31.1676 95.0623 31.4801V43H91.5893ZM103.555 43.206C102.409 43.206 101.424 42.9716 100.6 42.5028C99.7812 42.0294 99.1491 41.3712 98.704 40.5284C98.2637 39.6809 98.0435 38.6984 98.0435 37.581C98.0435 36.4588 98.2637 35.4763 98.704 34.6335C99.1491 33.786 99.7812 33.1278 100.6 32.6591C101.424 32.1856 102.409 31.9489 103.555 31.9489C104.701 31.9489 105.683 32.1856 106.502 32.6591C107.326 33.1278 107.958 33.786 108.399 34.6335C108.844 35.4763 109.066 36.4588 109.066 37.581C109.066 38.6984 108.844 39.6809 108.399 40.5284C107.958 41.3712 107.326 42.0294 106.502 42.5028C105.683 42.9716 104.701 43.206 103.555 43.206ZM103.576 40.5852C103.993 40.5852 104.346 40.4574 104.634 40.2017C104.923 39.946 105.143 39.5909 105.295 39.1364C105.451 38.6818 105.529 38.1562 105.529 37.5597C105.529 36.9536 105.451 36.4233 105.295 35.9688C105.143 35.5142 104.923 35.1591 104.634 34.9034C104.346 34.6477 103.993 34.5199 103.576 34.5199C103.145 34.5199 102.781 34.6477 102.482 34.9034C102.189 35.1591 101.964 35.5142 101.808 35.9688C101.656 36.4233 101.58 36.9536 101.58 37.5597C101.58 38.1562 101.656 38.6818 101.808 39.1364C101.964 39.5909 102.189 39.946 102.482 40.2017C102.781 40.4574 103.145 40.5852 103.576 40.5852ZM110.845 43V32.0909H114.219V34.0795H114.333C114.531 33.3598 114.856 32.8248 115.306 32.4744C115.755 32.1193 116.279 31.9418 116.875 31.9418C117.036 31.9418 117.202 31.9536 117.372 31.9773C117.543 31.9962 117.701 32.027 117.848 32.0696V35.0881C117.682 35.0312 117.465 34.9863 117.195 34.9531C116.93 34.92 116.693 34.9034 116.485 34.9034C116.073 34.9034 115.701 34.9957 115.37 35.1804C115.043 35.3603 114.785 35.6136 114.595 35.9403C114.411 36.2623 114.318 36.6411 114.318 37.0767V43H110.845ZM119.263 43V32.0909H122.566V34.0938H122.687C122.914 33.4309 123.297 32.9077 123.837 32.5241C124.377 32.1406 125.021 31.9489 125.769 31.9489C126.527 31.9489 127.175 32.143 127.715 32.5312C128.255 32.9195 128.598 33.4403 128.745 34.0938H128.858C129.062 33.4451 129.46 32.9266 130.052 32.5384C130.644 32.1454 131.342 31.9489 132.147 31.9489C133.179 31.9489 134.017 32.2803 134.661 32.9432C135.305 33.6013 135.627 34.5057 135.627 35.6562V43H132.154V36.4517C132.154 35.9072 132.014 35.4929 131.735 35.2088C131.456 34.92 131.093 34.7756 130.648 34.7756C130.17 34.7756 129.794 34.9318 129.519 35.2443C129.249 35.5521 129.114 35.9664 129.114 36.4872V43H125.776V36.4162C125.776 35.9096 125.639 35.5095 125.364 35.2159C125.09 34.9223 124.727 34.7756 124.278 34.7756C123.975 34.7756 123.707 34.849 123.475 34.9957C123.243 35.1378 123.061 35.3414 122.928 35.6065C122.8 35.8717 122.736 36.1842 122.736 36.544V43H119.263ZM140.854 43.1847C140.158 43.1847 139.54 43.0687 139.001 42.8366C138.466 42.5999 138.042 42.2448 137.729 41.7713C137.421 41.2931 137.268 40.6941 137.268 39.9744C137.268 39.3684 137.374 38.857 137.587 38.4403C137.8 38.0237 138.094 37.6851 138.468 37.4247C138.842 37.1643 139.273 36.9678 139.76 36.8352C140.248 36.6979 140.769 36.6056 141.323 36.5582C141.943 36.5014 142.443 36.4422 142.822 36.3807C143.2 36.3144 143.475 36.2221 143.645 36.1037C143.821 35.9806 143.908 35.8078 143.908 35.5852V35.5497C143.908 35.1851 143.783 34.9034 143.532 34.7045C143.281 34.5057 142.942 34.4062 142.516 34.4062C142.057 34.4062 141.688 34.5057 141.408 34.7045C141.129 34.9034 140.951 35.178 140.876 35.5284L137.672 35.4148C137.767 34.7519 138.011 34.16 138.404 33.6392C138.802 33.1136 139.346 32.7017 140.037 32.4034C140.733 32.1004 141.569 31.9489 142.545 31.9489C143.241 31.9489 143.882 32.0317 144.469 32.1974C145.056 32.3584 145.568 32.5952 146.003 32.9077C146.439 33.2154 146.775 33.5942 147.012 34.044C147.253 34.4938 147.374 35.0076 147.374 35.5852V43H144.107V41.4801H144.022C143.828 41.8494 143.579 42.1619 143.276 42.4176C142.978 42.6733 142.625 42.8651 142.218 42.9929C141.815 43.1207 141.361 43.1847 140.854 43.1847ZM141.927 40.9119C142.301 40.9119 142.637 40.8362 142.935 40.6847C143.238 40.5331 143.48 40.3248 143.66 40.0597C143.84 39.7898 143.93 39.4773 143.93 39.1222V38.0852C143.83 38.1373 143.709 38.1847 143.567 38.2273C143.43 38.2699 143.278 38.3101 143.113 38.348C142.947 38.3859 142.777 38.419 142.601 38.4474C142.426 38.4759 142.258 38.5019 142.097 38.5256C141.77 38.5777 141.491 38.6581 141.259 38.767C141.032 38.8759 140.857 39.018 140.733 39.1932C140.615 39.3636 140.556 39.5672 140.556 39.804C140.556 40.1638 140.684 40.4384 140.939 40.6278C141.2 40.8172 141.529 40.9119 141.927 40.9119ZM159.022 35.4219L155.833 35.5071C155.8 35.2798 155.71 35.0786 155.563 34.9034C155.416 34.7235 155.225 34.5838 154.988 34.4844C154.756 34.3802 154.486 34.3281 154.178 34.3281C153.776 34.3281 153.432 34.4086 153.148 34.5696C152.869 34.7306 152.732 34.9484 152.736 35.223C152.732 35.4361 152.817 35.6207 152.992 35.777C153.172 35.9332 153.492 36.0587 153.951 36.1534L156.053 36.5511C157.142 36.7595 157.952 37.1051 158.482 37.5881C159.017 38.071 159.287 38.7102 159.292 39.5057C159.287 40.2538 159.064 40.9048 158.624 41.4588C158.189 42.0128 157.592 42.4437 156.834 42.7514C156.077 43.0545 155.21 43.206 154.235 43.206C152.677 43.206 151.448 42.8864 150.549 42.2472C149.654 41.6032 149.143 40.7415 149.015 39.6619L152.445 39.5767C152.521 39.9744 152.717 40.2775 153.035 40.4858C153.352 40.6941 153.757 40.7983 154.249 40.7983C154.694 40.7983 155.056 40.7154 155.336 40.5497C155.615 40.384 155.757 40.1638 155.762 39.8892C155.757 39.643 155.648 39.4465 155.435 39.2997C155.222 39.1482 154.888 39.0298 154.434 38.9446L152.53 38.5824C151.437 38.3835 150.622 38.0166 150.087 37.4815C149.552 36.9418 149.287 36.2552 149.292 35.4219C149.287 34.6927 149.481 34.0701 149.874 33.554C150.267 33.0331 150.826 32.6354 151.55 32.3608C152.275 32.0862 153.129 31.9489 154.114 31.9489C155.591 31.9489 156.756 32.259 157.608 32.8793C158.461 33.4948 158.932 34.3423 159.022 35.4219Z" fill="white"/>
</g>
</g>
</g>
<defs>
<filter id="filter0_d_52_31" x="63.3251" y="2.45454" width="73.478" height="18.5455" filterUnits="userSpaceOnUse" color-interpolation-filters="sRGB">
<feFlood flood-opacity="0" result="BackgroundImageFix"/>
<feColorMatrix in="SourceAlpha" type="matrix" values="0 0 0 0 0 0 0 0 0 0 0 0 0 0 0 0 0 0 127 0" result="hardAlpha"/>
<feOffset/>
<feGaussianBlur stdDeviation="1"/>
<feComposite in2="hardAlpha" operator="out"/>
<feColorMatrix type="matrix" values="0 0 0 0 0 0 0 0 0 0 0 0 0 0 0 0 0 0 0.5 0"/>
<feBlend mode="normal" in2="BackgroundImageFix" result="effect1_dropShadow_52_31"/>
<feBlend mode="normal" in="SourceGraphic" in2="effect1_dropShadow_52_31" result="shape"/>
</filter>
<filter id="filter1_d_52_31" x="63.8649" y="25.7727" width="97.4269" height="19.4332" filterUnits="userSpaceOnUse" color-interpolation-filters="sRGB">
<feFlood flood-opacity="0" result="BackgroundImageFix"/>
<feColorMatrix in="SourceAlpha" type="matrix" values="0 0 0 0 0 0 0 0 0 0 0 0 0 0 0 0 0 0 127 0" result="hardAlpha"/>
<feOffset/>
<feGaussianBlur stdDeviation="1"/>
<feComposite in2="hardAlpha" operator="out"/>
<feColorMatrix type="matrix" values="0 0 0 0 0 0 0 0 0 0 0 0 0 0 0 0 0 0 0.5 0"/>
<feBlend mode="normal" in2="BackgroundImageFix" result="effect1_dropShadow_52_31"/>
<feBlend mode="normal" in="SourceGraphic" in2="effect1_dropShadow_52_31" result="shape"/>
</filter>
<clipPath id="clip0_52_31">
<rect width="160.764" height="48" fill="white"/>
</clipPath>
<clipPath id="clip1_52_31">
<rect width="96" height="48" fill="white" transform="translate(64.764)"/>
</clipPath>
</defs>
</svg>
