<svg width="10" height="11" viewBox="0 0 10 11" fill="none" xmlns="http://www.w3.org/2000/svg">
<path d="M4.90254 0.75C7.47129 0.75 9.55254 2.83125 9.55254 5.4C9.55254 7.96875 7.47129 10.05 4.90254 10.05C2.33379 10.05 0.252539 7.96875 0.252539 5.4C0.252539 2.83125 2.33379 0.75 4.90254 0.75ZM7.60254 5.925V4.875C7.60254 4.7625 7.49004 4.65 7.37754 4.65H5.65254V2.925C5.65254 2.8125 5.54004 2.7 5.42754 2.7H4.37754C4.24629 2.7 4.15254 2.8125 4.15254 2.925V4.65H2.42754C2.29629 4.65 2.20254 4.7625 2.20254 4.875V5.925C2.20254 6.05625 2.29629 6.15 2.42754 6.15H4.15254V7.875C4.15254 8.00625 4.24629 8.1 4.37754 8.1H5.42754C5.54004 8.1 5.65254 8.00625 5.65254 7.875V6.15H7.37754C7.49004 6.15 7.60254 6.05625 7.60254 5.925Z" fill="#19543A"/>
</svg>
