<svg width="48" height="48" viewBox="0 0 48 48" fill="none" xmlns="http://www.w3.org/2000/svg">
<path d="M24 25.416L13.508 35.908C13.3213 36.0947 13.092 36.1947 12.82 36.208C12.548 36.2213 12.3053 36.1213 12.092 35.908C11.8786 35.6947 11.772 35.4587 11.772 35.2C11.772 34.9413 11.8786 34.7053 12.092 34.492L22.584 24L12.092 13.508C11.9053 13.3213 11.8053 13.092 11.792 12.82C11.7786 12.548 11.8786 12.3053 12.092 12.092C12.3053 11.8787 12.5413 11.772 12.8 11.772C13.0586 11.772 13.2946 11.8787 13.508 12.092L24 22.584L34.492 12.092C34.6786 11.9053 34.9086 11.8053 35.182 11.792C35.4526 11.7787 35.6946 11.8787 35.908 12.092C36.1213 12.3053 36.228 12.5413 36.228 12.8C36.228 13.0587 36.1213 13.2947 35.908 13.508L25.416 24L35.908 34.492C36.0946 34.6787 36.1946 34.9087 36.208 35.182C36.2213 35.4527 36.1213 35.6947 35.908 35.908C35.6946 36.1213 35.4586 36.228 35.2 36.228C34.9413 36.228 34.7053 36.1213 34.492 35.908L24 25.416Z" fill="white"/>
</svg>
