<svg width="48" height="48" viewBox="0 0 48 48" fill="none" xmlns="http://www.w3.org/2000/svg">
<g clip-path="url(#clip0_5_201)">
<path d="M22.672 4.506C23.038 4.18098 23.5105 4.00146 24 4.00146C24.4895 4.00146 24.962 4.18098 25.328 4.506L43.328 20.506C43.7042 20.8634 43.9268 21.3531 43.9487 21.8716C43.9706 22.3902 43.7901 22.8969 43.4453 23.2848C43.1005 23.6726 42.6185 23.9113 42.101 23.9504C41.5835 23.9894 41.0711 23.8258 40.672 23.494L40 22.9V38C40 39.0609 39.5785 40.0783 38.8284 40.8284C38.0783 41.5786 37.0608 42 36 42H12C10.9391 42 9.92169 41.5786 9.17155 40.8284C8.4214 40.0783 7.99998 39.0609 7.99998 38V22.9L7.32798 23.494C6.92889 23.8258 6.41648 23.9894 5.89897 23.9504C5.38147 23.9113 4.89941 23.6726 4.55462 23.2848C4.20983 22.8969 4.02932 22.3902 4.05122 21.8716C4.07312 21.3531 4.29571 20.8634 4.67198 20.506L22.672 4.506ZM12 19.34V38H18V28C18 27.4696 18.2107 26.9609 18.5858 26.5858C18.9608 26.2107 19.4695 26 20 26H28C28.5304 26 29.0391 26.2107 29.4142 26.5858C29.7893 26.9609 30 27.4696 30 28V38H36V19.342L24 8.676L12 19.34ZM26 38V30H22V38H26Z" fill="#19543A"/>
</g>
<defs>
<clipPath id="clip0_5_201">
<rect width="48" height="48" fill="white"/>
</clipPath>
</defs>
</svg>
