<svg width="18" height="19" viewBox="0 0 18 19" fill="none" xmlns="http://www.w3.org/2000/svg">
<path d="M17.4199 9.62305L12.0234 4.22656C11.9297 4.14453 11.8213 4.10352 11.6982 4.10352C11.5752 4.10352 11.4668 4.14453 11.373 4.22656C11.291 4.32031 11.25 4.42871 11.25 4.55176C11.25 4.6748 11.291 4.7832 11.373 4.87695L16.0137 9.5H1.35352C1.22461 9.5 1.11621 9.54395 1.02832 9.63184C0.94043 9.71973 0.896484 9.82812 0.896484 9.95703C0.896484 10.0742 0.94043 10.1768 1.02832 10.2646C1.11621 10.3525 1.22461 10.3965 1.35352 10.3965H16.0137L11.3906 15.0371C11.2969 15.1191 11.25 15.2217 11.25 15.3447C11.25 15.4678 11.2969 15.5762 11.3906 15.6699C11.4258 15.7168 11.4727 15.749 11.5312 15.7666C11.5898 15.7842 11.6484 15.793 11.707 15.793C11.7656 15.793 11.8213 15.7842 11.874 15.7666C11.9268 15.749 11.9766 15.7168 12.0234 15.6699L17.4199 10.2734C17.502 10.1797 17.543 10.0713 17.543 9.94824C17.543 9.8252 17.502 9.7168 17.4199 9.62305Z" fill="white"/>
</svg>
